<?xml version="1.0" encoding="utf-8"?>
<!-- Generator: Adobe Illustrator 21.0.2, SVG Export Plug-In . SVG Version: 6.00 Build 0)  -->
<!DOCTYPE svg PUBLIC "-//W3C//DTD SVG 1.1//EN" "http://www.w3.org/Graphics/SVG/1.1/DTD/svg11.dtd">
<svg version="1.1" id="NBCS_A_POSITIVE" xmlns="http://www.w3.org/2000/svg" xmlns:xlink="http://www.w3.org/1999/xlink" x="0px"
	 y="0px" viewBox="0 0 170 164.6" style="enable-background:new 0 0 170 164.6;" xml:space="preserve">
<style type="text/css">
	.Arched_x0020_Green{fill:url(#SVGID_1_);stroke:#FFFFFF;stroke-width:0.25;stroke-miterlimit:1;}
	.st0{fill:#1A1A1A;}
</style>
<linearGradient id="SVGID_1_" gradientUnits="userSpaceOnUse" x1="-220.2324" y1="476.1046" x2="-219.5253" y2="475.3975">
	<stop  offset="0" style="stop-color:#12A147"/>
	<stop  offset="0.9831" style="stop-color:#122B19"/>
</linearGradient>
<g>
	<path class="st0" d="M92.6,117.9H69.8V75.8H92c9.8,0,15.8,4.3,15.8,10.9v0.1c0,4.7-2.9,7.4-6.3,9.1c5.5,1.9,8.9,4.7,8.9,10.3v0.1
		C110.4,114,103.3,117.9,92.6,117.9 M97.3,88.2c0-2.8-2.5-4.3-6.9-4.3H80.1v8.9h9.7c4.6,0,7.6-1.3,7.6-4.5V88.2z M100,105.1
		c0-2.8-2.4-4.6-7.8-4.6H80.1v9.3h12.5c4.6,0,7.4-1.4,7.4-4.6V105.1z"/>
	<g>
		<path class="st0" d="M24.4,117.8h10.4v-5V112c-2.8,0.3-6.5,0.9-10.4,1.9V117.8z"/>
		<path class="st0" d="M56.5,75.8v25.9L34.1,75.8h-9.7V105c3.8-0.9,7.3-1.4,10.4-1.6V91.1l23.1,26.7h8.9V75.8H56.5z"/>
	</g>
	<path class="st0" d="M135.8,118.6c3.6-4.3,6.2-6.9,6.8-7.5c0.6-0.6,1.3-0.9,1.9-0.9c0.5,0,0.9,0.2,1.1,0.3c0.4,0.2,1.7,0.9,3,1.8
		c0.9,0.7,1.1,1.4,1.1,1.9c0,0.3-0.1,0.6-0.2,0.8c2-1.1,3.7-2.5,5.4-4.1l-6.7-6c-3.8,3-7.1,4.9-12.6,4.9c-8.2,0-13.9-6-13.9-13.2
		v-0.1c0-7.2,5.8-13.1,13.9-13.1c4.8,0,8.5,1.8,12.2,4.7l6.7-6.8c-4.4-3.8-9.8-6.5-18.9-6.5c-14.7,0-24.9,9.8-24.9,21.8v0.1
		c0,12.1,10.4,21.6,24.5,21.6C135.4,118.6,135.6,118.6,135.8,118.6z"/>
</g>
<g>
	<path class="st0" d="M72.9,125.8c-1.9-1.5-4.7-0.3-4.7-0.3c-5.3,1.7-11,5.9-15.5,9.8c2.1-2.4,4.4-4.9,7.1-7.7c0,0,1.9-1,0.4-2.4
		c-1.5-1.4-3.2-2.8-3.2-2.8s-0.7-0.6-1-0.4c-0.3,0.2-0.1,0.9,0,1c0.1,0.1-0.9,1.2-0.9,1.2s-0.1,0.1-0.2,0.2
		c-1.5,1.3-4.3,2.7-5.7,3.3c-3,1.1-6.9,2.4-11.1,3.9c-0.2-0.2-0.5-0.5-0.9-0.7c-5-3.1-19.9-3.4-25.6-3.8c-6.2-0.5-7.6-0.9-7.8-1.9
		c-0.3-1.3,1.6-3.2,4.4-5.2c10.8-7.9,25.7-9.5,30.5-9.4c5.3,0.1,6.8,0.7,6.9,1.1c0.1,0.4-0.2,0.7-0.2,0.7c-0.9,1-2,1.6-3.3,2.4
		c-4.8,3.1-10.1,5.5-10.1,5.5c-1.2,1.1,1.1,1.3,1.1,1.3c3.1-0.1,6-0.8,8.8-1.9c5.7-2.2,7.1-4.2,7.3-5.4c0.3-2-0.6-4.2-0.5-4
		c-1.5-6.2-11.4-6-11.4-6c-8.5,0-21.3,2.5-32.7,10.8c-5.8,4.3-4.9,7.3-4.9,7.3s-0.1,5.9,4.4,7.4c1.8,0.6,3.1,0.9,6.1,1.2
		c5.7,0.6,10,0.7,15.9,1.1c3.5,0.2,5.9,0.6,7.6,1.1c-4.9,1.8-9.9,3.8-14.2,6c-3.8,1.9-9.5,5.1-11.6,7.7c-2.4,3.1-0.2,5.5-0.4,5
		c0.4,0.7,1.9,3.4,8.4,2.6c3.2-0.4,6.9-1.9,9.8-3.5c4.1-2.2,7.2-4.8,9-6.6c3.7-3.6,4.7-6.3,4.7-8.7c0-0.9-0.2-1.7-0.4-2.3
		c4.5-1.5,8.4-2.7,11-3.5c-7.3,8.7-19.5,25.5-14.1,33.1c0,0,0.4,0.6,0.8,1.1c0,0,1,0.8,1.3,0.3c0.4-0.5-0.7-1-0.7-1
		c-0.3-0.4-0.5-1-0.4-2c0.1-1,0.4-2.6,1.3-4.9l1.5-3.4c0,0,0,0,0,0c0,0,0,0,0,0l0,0c1.9-3.2,5-7.7,8.9-11.5
		c9.6-9.5,18.1-13.4,19.9-14c1.3-0.4,1.8-0.3,2-0.1c1.2,1.1-1.8,6-1.8,6c-0.1,0.1-0.1,0.1-0.2,0.2c-5.5,8-8.7,10.2-11.6,11.3
		c-2,0.6-3.2-0.1-3.6-0.3c-0.7-0.7-1.1-1.6-1-2c0.1-0.8-0.3-0.8-0.3-0.8c-1.4,0.5-0.6,2.9-0.6,2.9c1,4.6,7.3,5.7,13.4,1.2
		c7.9-5.9,9.5-10.7,10.7-13.6C77,129.5,74.9,127.3,72.9,125.8 M36.1,136c-2,3.5-8.8,7.6-11,8.9c-1.2,0.7-4.1,2.4-7.7,3.7
		c-3.9,1.4-7.4,2.1-7.7,1.1c-0.1-0.4-0.4-0.6,0.9-1.9c1.5-1.6,6.1-4.5,10.3-6.7c4.9-2.5,10.4-4.8,15.4-6.6
		C36.4,134.8,36.5,135.3,36.1,136"/>
	<path class="st0" d="M170,122.5c-0.4-2.6-4.4-3.2-11.4-2.7c-3.7,0.3-10.6,1.3-16.8,2.3l6.1-6.8c0,0,1.3-0.9,0-1.9
		c-1.4-1.1-2.9-1.8-2.9-1.8s-0.6-0.6-1.7,0.4c-0.6,0.6-4.6,4.6-10.1,11.5c-6.1,0.8-13.2,1.3-15,1.5c0,0-0.9,0.2-1.2-0.4
		c0,0-0.8-0.6-0.6,0.8c0,0,0.2,3.5,3.6,2.9c1.9-0.4,5.9-0.9,10.8-1.5c-0.8,1.1-2.1,2.7-3.5,4.6c-6.1,6.7-16.5,17.4-18.8,16
		c0,0-0.5-0.5-0.2-1.6c0.5-1.7,2.5-4.8,6.4-9.4c0,0,1.8-2.2,1.7-3.1c-0.1-1.5-0.9-1.4-0.9-1.4s-5.3-1.6-7-3.1
		c0.7-1.1,2.1-3.7,0.4-4.9c0,0-2.2-1.4-3.8,1.9c-0.7,1.3-0.6,2.6,0.3,3.8c-1.2,1.3-4.5,4.5-7.9,5.5c-0.2-1.2-0.7-1.9-1.4-2.2
		c0,0-1.8-0.9-2.8,0.2c-1,1.1-0.1,2.3,0.9,3.1c-0.3,0.9-1.1,2.1-2.3,3.9c-1.5,2.3-3.4,4.6-6.1,6.4c-0.9,0.6-4.6,2.7-5.6-0.2
		c-0.5-1.6,0.4-4.7,2.6-8.2c4.7-7.3,11.2-9.7,13-8.5c0,0,0.8,0.8,0.3,1.7c0,0-0.2,0.5,0.5,0.6c0.7,0.1,1.1-0.5,1.2-1.1
		c0.3-1.5-1.1-3.3-2.7-4.6c-0.5-0.4-1-0.6-1.7-1c0,0-2.8-1-6.6,0.9c-1.2,0.6-6.2,3.3-9.8,9.8c-1.1,2-1.9,4.2-1.8,6.4
		c0,1.4,0.3,2.8,1,4.1c0.3,0.5,1.8,2.5,3.9,3.5c4.1,2.1,8.9-1.9,10.7-3.6c3.3-3,5.8-7,6.4-8.7c4.3-1.1,8.6-5.4,10-6.9
		c0.3,0.2,0.5,0.3,0.8,0.5l2.6,1.4c-1.5,1.7-1.5,1.8-3.1,4c-1.7,2.3-5.8,7.8-3.1,11.4c0.5,0.7,1.2,1.6,2.4,2
		c3.5,1.4,7.5-2.1,13.6-8.5c1-1,1.9-2,2.8-3c-0.4,0.8-0.7,1.5-1,2.3c-1.4,3.7-0.6,7.1,2.4,9.1c1.8,1.2,4.1,0.6,6.7-1.1
		c5.2-3.5,13-11.2,17.9-16.4c-0.2,0.7-0.3,1.5-0.5,2.4c-1.2,6.5-5.1,14.8-6.7,12.7c0,0.3,0-1.4-0.9-2.2c-0.8-0.6-1.4-0.8-2.3-0.2
		c-1.1,0.7-0.6,3.5,2.9,5.2c0.8,0.4,1.5,0.6,2.1,0.7c1.9,0.3,5.6,0.3,10.1-3c6-4.5,12.5-11,12.5-11s1.3-1.2,0.1-1.9
		c0,0-0.6-0.3-1.2,0.2c-0.3,0.3-0.6,0.7-0.6,0.7c0.1-0.1-9.1,8.7-14.6,11.6c0.9-1.1,1.4-2.6,1.9-4.5c0.4-1.5,1.1-5.7,1.8-8.8
		c0.4-1.7,0.9-3,1.1-3.4c0.7-1.5,1.6-1.4,1.8-1.8c0.2-0.3,0.1-0.6-0.3-1.1c-0.3-0.4-0.8-0.8-1.1-1.2c-0.4-0.4-1.3-1-1.8-1.1
		c-0.3-0.1-0.7,0-1,0.2c-0.3,0.2-0.8,0.7-1.4,1.7c-3.3,3.6-14.1,15.2-20.8,19.1c0.4-0.2-5.4,3.7-4.2-1.4c0.6-2.3,2.9-7.4,9.3-15.5
		l3.4-3.8c2.8-0.4,5.6-0.8,8.5-1.3c0,0,25.3-3.1,18.4,2.2c0,0,0.4,0.8,1.5,0C169.3,124.8,170.1,123.3,170,122.5"/>
</g>
<g>
	<path class="st0" d="M52.6,16.2c-3,0-6,1.1-8.5,3.2c-2.7,2.4-4.3,6.4-4,10.1c0.2,2.7,1.4,6.6,6.1,9.6l34.8,24L64.2,24.7
		C62.1,19.4,57.8,16.2,52.6,16.2z"/>
	<path class="st0" d="M86.3,6c1.2,2.3,2,5,1.5,7.9c0,0-6.7,40.5-6.8,40.5L64.2,15.9c-1.5-4.6-0.1-9.3,3.2-12.5
		c3.3-3.4,8.8-4.3,13.1-2.5C82.8,1.9,84.9,3.8,86.3,6z"/>
	<path class="st0" d="M126.7,16.2c3,0,6,1.1,8.5,3.2c2.7,2.4,4.3,6.4,4,10.1c-0.2,2.7-1.4,6.6-6.1,9.6l-34.8,24l16.9-38.5
		C117.3,19.4,121.6,16.2,126.7,16.2z"/>
	<path class="st0" d="M96.6,12.4c0.4,0,1,0.3,1.1,0.7c-2.1,1.4-5.7,2.9-5.2,6l0.5,3.4c2,11.9,5.3,32,5.4,32l16.9-38.5
		c1.5-4.6,0.1-9.3-3.2-12.5c-3.3-3.4-8.8-4.3-13.1-2.5c-2.3,1-4.5,2.8-5.8,5.1c-1,1.9-1.7,4-1.7,6.4H96.6z"/>
	<path class="st0" d="M136.2,44c5.4,0,10,4,11.2,8.1c1.2,4.1,0.5,8.2-1.9,11.4c-2.3,3.1-6,4.8-10,4.8H96.8l31.9-22
		C131.1,44.8,133.7,44,136.2,44z"/>
	<path class="st0" d="M43.1,44c-5.4,0-10,4-11.2,8.1c-1.2,4.1-0.5,8.2,1.9,11.4c2.3,3.1,6,4.8,10,4.8h38.7l-31.9-22
		C48.2,44.8,45.6,44,43.1,44z"/>
</g>
</svg>
