<?xml version="1.0" encoding="utf-8"?>
<!-- Generator: Adobe Illustrator 21.0.2, SVG Export Plug-In . SVG Version: 6.00 Build 0)  -->
<!DOCTYPE svg PUBLIC "-//W3C//DTD SVG 1.1//EN" "http://www.w3.org/Graphics/SVG/1.1/DTD/svg11.dtd">
<svg version="1.1" id="Layer_1" xmlns="http://www.w3.org/2000/svg" xmlns:xlink="http://www.w3.org/1999/xlink" x="0px" y="0px"
	 viewBox="0 0 633 536.4" style="enable-background:new 0 0 633 536.4;" xml:space="preserve">
<style type="text/css">
	.st0{opacity:0.5;fill:#1A1A1A;}
	.st1{opacity:0.5;}
	.st2{fill:#1A1A1A;}
	.st3{fill:none;}
	.st4{fill-rule:evenodd;clip-rule:evenodd;fill:#1A1A1A;}
</style>
<path class="st0" d="M131.6,0h369.8c12.8,0,23.1,10.4,23.1,23.1v485.4c0,12.8-10.4,23.1-23.1,23.1H131.6
	c-12.8,0-23.1-10.3-23.1-23.1V23.1C108.5,10.4,118.9,0,131.6,0c-12.8,0-23.1,10.4-23.1,23.1v485.4c0,12.8,10.3,23.1,23.1,23.1h369.8
	c12.8,0,23.1-10.3,23.1-23.1V23.1c0-12.8-10.4-23.1-23.1-23.1H131.6"/>
<g class="st1">
	<path class="st2" d="M288.7,430.6c-11.6,0-14.9,9-15.2,14.2h29.7C301.5,435.5,297.5,430.6,288.7,430.6z"/>
	<path class="st2" d="M492.5,400.4h-3.8v4.4h3.8c1.5,0,2.4-0.7,2.4-2.2C494.8,401,494,400.4,492.5,400.4z"/>
	<path class="st2" d="M455.9,430.6c-12.3,0-16,10.7-16,21.4c0,10.6,3.7,21.3,16,21.3c12.5,0,16.2-10.7,16.2-21.3
		C472,441.2,468.3,430.6,455.9,430.6z"/>
	<g>
		<path class="st2" d="M491.3,394.9c-5.9,0-10.7,4.8-10.8,10.7c0,6,4.8,10.7,10.8,10.7c2.9,0,5.5-1.1,7.4-3h-3.4
			c-0.4-1-0.4-2.5-0.6-3.8c-0.2-1.6-0.9-2.4-2.6-2.4h-3.5v6.2h-3.5v-15.7h8.5c2.8,0,4.6,1.9,4.6,4.3c0,1.8-0.8,3.2-2.5,3.9v0
			c1.7,0.4,2.2,2.1,2.3,3.7c0.1,1,0,2.8,0.7,3.7c2-2,3.3-4.7,3.3-7.7C502.1,399.7,497.2,394.9,491.3,394.9z"/>
	</g>
	<g>
		<path class="st3" d="M289.2,416.8c-20.2,0-33.9,15.2-33.9,35.2c0,20.7,13,35.1,33.9,35.1c15,0,25.9-6.7,31.1-22.4h-16
			c-1.2,4.1-7.1,8.7-14.4,8.7c-10.1,0-15.8-5.3-16.3-16.9h47.9C322.7,435.8,311.7,416.8,289.2,416.8z"/>
		<path class="st3" d="M220.7,416.8c-9.2,0-16.2,5.3-20,11.1c-3.6-8-11-11.1-19.4-11.1c-8.6,0-15.5,4-20.3,10.8h-0.3v-9h-17.2v66.7
			h18.2v-38.7c0-13,8.7-15.3,12.3-15.3c11.5,0,11,8.9,11,16.6v37.4h18.2v-37.2c0-8.4,1.9-16.9,12.2-16.9c10.4,0,11.2,7.4,11.2,16.3
			v37.8H245v-44.6C245,423.3,234.8,416.8,220.7,416.8z"/>
		<path class="st3" d="M394,430.9h-0.3v-12.4h-17.3v66.7h18.2v-30.1c0-11.8,4.6-21.4,18-21.4c2.2,0,4.9,0.3,6.6,0.7v-17
			c-1.2-0.4-2.7-0.7-4-0.7C406.3,416.8,397.3,422.6,394,430.9z"/>
		<path class="st3" d="M354.7,398.6h-18.2v20h-11v12.2h11v39.4c0,13.3,9.8,15.9,20.9,15.9c3.6,0,7.6-0.1,10.7-0.7v-14.3
			c-1.9,0.3-3.7,0.5-5.7,0.5c-6.2,0-7.7-1.5-7.7-7.7v-33h13.4v-12.2h-13.4V398.6z"/>
		<ellipse class="st3" cx="491.3" cy="405.7" rx="12.3" ry="12.3"/>
		<path class="st3" d="M455.9,416.8c-20.8,0-34.3,13.9-34.3,35.2c0,21.2,13.5,35.1,34.3,35.1c20.9,0,34.4-13.9,34.4-35.1
			C490.3,430.7,476.8,416.8,455.9,416.8z"/>
	</g>
	<g>
		<path class="st3" d="M288.7,430.6c-11.6,0-14.9,9-15.2,14.2h29.7C301.5,435.5,297.5,430.6,288.7,430.6z"/>
		<polygon class="st3" points="489.9,381.4 489.9,34.7 385.8,34.7 316.5,265.8 247.2,34.7 143.2,34.7 143.2,381.4 212.5,381.4 
			212.5,138.7 281.8,381.4 351.2,381.4 420.5,138.7 420.5,381.4 		"/>
		<path class="st3" d="M455.9,430.6c-12.3,0-16,10.7-16,21.4c0,10.6,3.7,21.3,16,21.3c12.5,0,16.2-10.7,16.2-21.3
			C472,441.2,468.3,430.6,455.9,430.6z"/>
		<ellipse class="st3" cx="491.3" cy="405.7" rx="12.3" ry="12.3"/>
	</g>
	<g>
		<path class="st3" d="M354.7,398.6h-18.2v20h-11v12.2h11v39.4c0,13.3,9.8,15.9,20.9,15.9c3.6,0,7.6-0.1,10.7-0.7v-14.3
			c-1.9,0.3-3.7,0.5-5.7,0.5c-6.2,0-7.7-1.5-7.7-7.7v-33h13.4v-12.2h-13.4V398.6z"/>
		<path class="st3" d="M455.9,416.8c-20.8,0-34.3,13.9-34.3,35.2c0,21.2,13.5,35.1,34.3,35.1c20.9,0,34.4-13.9,34.4-35.1
			C490.3,430.7,476.8,416.8,455.9,416.8z"/>
		<polygon class="st3" points="489.9,381.4 489.9,34.7 385.8,34.7 316.5,265.8 247.2,34.7 143.2,34.7 143.2,381.4 212.5,381.4 
			212.5,138.7 281.8,381.4 351.2,381.4 420.5,138.7 420.5,381.4 		"/>
		<path class="st3" d="M394,430.9h-0.3v-12.4h-17.3v66.7h18.2v-30.1c0-11.8,4.6-21.4,18-21.4c2.2,0,4.9,0.3,6.6,0.7v-17
			c-1.2-0.4-2.7-0.7-4-0.7C406.3,416.8,397.3,422.6,394,430.9z"/>
		<path class="st3" d="M289.2,416.8c-20.2,0-33.9,15.2-33.9,35.2c0,20.7,13,35.1,33.9,35.1c15,0,25.9-6.7,31.1-22.4h-16
			c-1.2,4.1-7.1,8.7-14.4,8.7c-10.1,0-15.8-5.3-16.3-16.9h47.9C322.7,435.8,311.7,416.8,289.2,416.8z"/>
		<path class="st3" d="M220.7,416.8c-9.2,0-16.2,5.3-20,11.1c-3.6-8-11-11.1-19.4-11.1c-8.6,0-15.5,4-20.3,10.8h-0.3v-9h-17.2v66.7
			h18.2v-38.7c0-13,8.7-15.3,12.3-15.3c11.5,0,11,8.9,11,16.6v37.4h18.2v-37.2c0-8.4,1.9-16.9,12.2-16.9c10.4,0,11.2,7.4,11.2,16.3
			v37.8H245v-44.6C245,423.3,234.8,416.8,220.7,416.8z"/>
		<path class="st3" d="M491.3,394.9c-5.9,0-10.7,4.8-10.8,10.7c0,6,4.8,10.7,10.8,10.7c2.9,0,5.5-1.1,7.4-3h-3.4
			c-0.4-1-0.4-2.5-0.6-3.8c-0.2-1.6-0.9-2.4-2.6-2.4h-3.5v6.2h-3.5v-15.7h8.5c2.8,0,4.6,1.9,4.6,4.3c0,1.8-0.8,3.2-2.5,3.9v0
			c1.7,0.4,2.2,2.1,2.3,3.7c0.1,1,0,2.8,0.7,3.7c2-2,3.3-4.7,3.3-7.7C502.1,399.7,497.2,394.9,491.3,394.9z"/>
		<path class="st3" d="M492.5,400.4h-3.8v4.4h3.8c1.5,0,2.4-0.7,2.4-2.2C494.8,401,494,400.4,492.5,400.4z"/>
		<g>
			<path class="st3" d="M491.3,394.9c-5.9,0-10.7,4.8-10.8,10.7c0,6,4.8,10.7,10.8,10.7c2.9,0,5.5-1.1,7.4-3h-3.4
				c-0.4-1-0.4-2.5-0.6-3.8c-0.2-1.6-0.9-2.4-2.6-2.4h-3.5v6.2h-3.5v-15.7h8.5c2.8,0,4.6,1.9,4.6,4.3c0,1.8-0.8,3.2-2.5,3.9v0
				c1.7,0.4,2.2,2.1,2.3,3.7c0.1,1,0,2.8,0.7,3.7c2-2,3.3-4.7,3.3-7.7C502.1,399.7,497.2,394.9,491.3,394.9z"/>
			<path class="st3" d="M488.7,400.4v4.4h3.8c1.5,0,2.4-0.7,2.4-2.2c0-1.5-0.8-2.2-2.4-2.2H488.7z"/>
			<g>
				<path class="st3" d="M354.7,398.6h-18.2v20h-11v12.2h11v39.4c0,13.3,9.8,15.9,20.9,15.9c3.6,0,7.6-0.1,10.7-0.7v-14.3
					c-1.9,0.3-3.7,0.5-5.7,0.5c-6.2,0-7.7-1.5-7.7-7.7v-33h13.4v-12.2h-13.4V398.6z"/>
				<path class="st3" d="M394,430.9h-0.3v-12.4h-17.3v66.7h18.2v-30.1c0-11.8,4.6-21.4,18-21.4c2.2,0,4.9,0.3,6.6,0.7v-17
					c-1.2-0.4-2.7-0.7-4-0.7C406.3,416.8,397.3,422.6,394,430.9z"/>
				<polygon class="st3" points="489.9,381.4 489.9,34.7 385.8,34.7 316.5,265.8 247.2,34.7 143.2,34.7 143.2,381.4 212.5,381.4 
					212.5,138.7 281.8,381.4 351.2,381.4 420.5,138.7 420.5,381.4 				"/>
				<path class="st3" d="M289.2,416.8c-20.2,0-33.9,15.2-33.9,35.2c0,20.7,13,35.1,33.9,35.1c15,0,25.9-6.7,31.1-22.4h-16
					c-1.2,4.1-7.1,8.7-14.4,8.7c-10.1,0-15.8-5.3-16.3-16.9h47.9C322.7,435.8,311.7,416.8,289.2,416.8z"/>
				<path class="st3" d="M220.7,416.8c-9.2,0-16.2,5.3-20,11.1c-3.6-8-11-11.1-19.4-11.1c-8.6,0-15.5,4-20.3,10.8h-0.3v-9h-17.2
					v66.7h18.2v-38.7c0-13,8.7-15.3,12.3-15.3c11.5,0,11,8.9,11,16.6v37.4h18.2v-37.2c0-8.4,1.9-16.9,12.2-16.9
					c10.4,0,11.2,7.4,11.2,16.3v37.8H245v-44.6C245,423.3,234.8,416.8,220.7,416.8z"/>
				<path class="st3" d="M488.7,400.4v4.4h3.8c1.5,0,2.4-0.7,2.4-2.2c0-1.5-0.8-2.2-2.4-2.2H488.7z"/>
				<path class="st3" d="M455.9,416.8c-20.8,0-34.3,13.9-34.3,35.2c0,21.2,13.5,35.1,34.3,35.1c20.9,0,34.4-13.9,34.4-35.1
					C490.3,430.7,476.8,416.8,455.9,416.8z"/>
				<path class="st3" d="M491.3,394.9c-5.9,0-10.7,4.8-10.8,10.7c0,6,4.8,10.7,10.8,10.7c2.9,0,5.5-1.1,7.4-3h-3.4
					c-0.4-1-0.4-2.5-0.6-3.8c-0.2-1.6-0.9-2.4-2.6-2.4h-3.5v6.2h-3.5v-15.7h8.5c2.8,0,4.6,1.9,4.6,4.3c0,1.8-0.8,3.2-2.5,3.9v0
					c1.7,0.4,2.2,2.1,2.3,3.7c0.1,1,0,2.8,0.7,3.7c2-2,3.3-4.7,3.3-7.7C502.1,399.7,497.2,394.9,491.3,394.9z"/>
				<g>
					<path class="st3" d="M394,430.9h-0.3v-12.4h-17.3v66.7h18.2v-30.1c0-11.8,4.6-21.4,18-21.4c2.2,0,4.9,0.3,6.6,0.7v-17
						c-1.2-0.4-2.7-0.7-4-0.7C406.3,416.8,397.3,422.6,394,430.9z"/>
					<path class="st3" d="M354.7,398.6h-18.2v20h-11v12.2h11v39.4c0,13.3,9.8,15.9,20.9,15.9c3.6,0,7.6-0.1,10.7-0.7v-14.3
						c-1.9,0.3-3.7,0.5-5.7,0.5c-6.2,0-7.7-1.5-7.7-7.7v-33h13.4v-12.2h-13.4V398.6z"/>
					<polygon class="st3" points="489.9,381.4 489.9,34.7 385.8,34.7 316.5,265.8 247.2,34.7 143.2,34.7 143.2,381.4 212.5,381.4 
						212.5,138.7 281.8,381.4 351.2,381.4 420.5,138.7 420.5,381.4 					"/>
					<path class="st3" d="M289.2,416.8c-20.2,0-33.9,15.2-33.9,35.2c0,20.7,13,35.1,33.9,35.1c15,0,25.9-6.7,31.1-22.4h-16
						c-1.2,4.1-7.1,8.7-14.4,8.7c-10.1,0-15.8-5.3-16.3-16.9h47.9C322.7,435.8,311.7,416.8,289.2,416.8z"/>
					<path class="st3" d="M220.7,416.8c-9.2,0-16.2,5.3-20,11.1c-3.6-8-11-11.1-19.4-11.1c-8.6,0-15.5,4-20.3,10.8h-0.3v-9h-17.2
						v66.7h18.2v-38.7c0-13,8.7-15.3,12.3-15.3c11.5,0,11,8.9,11,16.6v37.4h18.2v-37.2c0-8.4,1.9-16.9,12.2-16.9
						c10.4,0,11.2,7.4,11.2,16.3v37.8H245v-44.6C245,423.3,234.8,416.8,220.7,416.8z"/>
					<path class="st3" d="M488.7,400.4v4.4h3.8c1.5,0,2.4-0.7,2.4-2.2c0-1.5-0.8-2.2-2.4-2.2H488.7z"/>
					<path class="st3" d="M455.9,416.8c-20.8,0-34.3,13.9-34.3,35.2c0,21.2,13.5,35.1,34.3,35.1c20.9,0,34.4-13.9,34.4-35.1
						C490.3,430.7,476.8,416.8,455.9,416.8z"/>
					<path class="st3" d="M491.3,394.9c-5.9,0-10.7,4.8-10.8,10.7c0,6,4.8,10.7,10.8,10.7c2.9,0,5.5-1.1,7.4-3h-3.4
						c-0.4-1-0.4-2.5-0.6-3.8c-0.2-1.6-0.9-2.4-2.6-2.4h-3.5v6.2h-3.5v-15.7h8.5c2.8,0,4.6,1.9,4.6,4.3c0,1.8-0.8,3.2-2.5,3.9v0
						l2.3,3.7c0.1,1,0,2.8,0.7,3.7c2-2,3.3-4.7,3.3-7.7C502.1,399.7,497.2,394.9,491.3,394.9z"/>
					<path class="st2" d="M501.4,0H131.6c-12.8,0-23.1,10.4-23.1,23.1v485.4c0,12.8,10.3,23.1,23.1,23.1h369.8
						c12.8,0,23.1-10.3,23.1-23.1V23.1C524.5,10.4,514.2,0,501.4,0z M245,485.3h-18.2v-37.8c0-8.9-0.8-16.3-11.2-16.3
						c-10.3,0-12.2,8.5-12.2,16.9v37.2h-18.2v-37.4c0-7.7,0.5-16.6-11-16.6c-3.6,0-12.3,2.3-12.3,15.3v38.7h-18.2v-66.7h17.2v9h0.3
						c4.7-6.8,11.7-10.8,20.3-10.8c8.3,0,15.8,3.1,19.4,11.1c3.9-5.8,10.8-11.1,20-11.1c14.1,0,24.3,6.6,24.3,23.9V485.3z
						 M321.4,456.3h-47.9c0.5,11.6,6.2,16.9,16.3,16.9c7.3,0,13.2-4.5,14.4-8.7h16c-5.1,15.7-16,22.4-31.1,22.4
						c-20.9,0-33.9-14.4-33.9-35.1c0-20,13.7-35.2,33.9-35.2C311.7,416.8,322.7,435.8,321.4,456.3z M368.1,430.8h-13.4v33
						c0,6.2,1.5,7.7,7.7,7.7c1.9,0,3.7-0.1,5.7-0.5v14.3c-3.1,0.5-7.1,0.7-10.7,0.7c-11.2,0-20.9-2.6-20.9-15.9v-39.4h-11v-12.2h11
						v-20h18.2v20h13.4V430.8z M419.2,434.4c-1.7-0.4-4.4-0.7-6.6-0.7c-13.4,0-18,9.6-18,21.4v30.1h-18.2v-66.7h17.3v12.4h0.3
						c3.3-8.4,12.3-14.2,21.2-14.2c1.3,0,2.8,0.3,4,0.7V434.4z M351.2,381.4h-69.3l-69.3-242.7v242.7h-69.3V34.7h104l69.3,231.2
						l69.3-231.2h104v346.7h-69.3V138.7L351.2,381.4z M455.9,487.1c-20.8,0-34.3-13.9-34.3-35.1c0-21.3,13.5-35.2,34.3-35.2
						c20.9,0,34.4,13.9,34.4,35.2C490.3,473.2,476.8,487.1,455.9,487.1z M491.3,418c-6.8,0-12.3-5.5-12.3-12.3
						c0-6.8,5.5-12.3,12.3-12.3c6.8,0,12.3,5.5,12.3,12.3C503.6,412.4,498.1,418,491.3,418z"/>
				</g>
			</g>
		</g>
	</g>
</g>
<g>
	<path class="st4" d="M594.2,30.6c-1.7,4.4-4.7,0.6-7.1,0.5c-0.8,0-1.4,0.9-2.3,1.1c-1.6,0.3-3.5-0.6-5.3-0.7
		c-4.5-0.3-9.5,0.3-13.7,0C573.9,27.7,584.8,30.5,594.2,30.6z M487.3,27.9c-1.7,0.3-3.6-1.1-5,0.4c8.9,1.3,17.9,1.3,26,1.5
		c2.3,0.1,5,1.7,7.1-0.1C506.4,28,495.3,26.5,487.3,27.9z M477.2,28c1.2-0.2,3.2,1.1,3.8-0.2C480.1,27.1,477.7,26.6,477.2,28z
		 M138.5,5.6c0.9,0.1,1.6,0.1,2.2-0.4C139.9,5.1,138.9,4.8,138.5,5.6z M462,26.4c-8.3-0.6-15-0.6-22.8-0.8c-9.8-0.2-19-1-28.2-1.1
		c-3.9-0.1-7.8,0.7-11.6,0.6c-23.7-0.5-47.5-4.7-69.6-4.6c-13.2,0.1-28.2,1.7-42.1,0.5c-6-0.5-12.6-0.5-17.9-2.2
		c-1.3-0.4-2.3-1.7-3.5-2.1c-2-0.6-4.5,0-6.8-0.2c-10.8-1-19.5-1.4-30.2-2.1c-5.3-0.3-10.7,0.4-15.3-0.5c-1.6-0.3-3.1-1.7-4.7-1.9
		c-3-0.4-6.1-0.3-8.5-0.4c-5.2-0.2-11-2.7-16-2c-1.6,0.2-2.9,1.1-4.4,1.1c-3.3,0.1-6.1-0.9-9.7-1.5c-9.9-1.7-19.9-0.1-29.6-1.3
		c-0.8-0.1-1.7-0.9-2.5-1c-2.4-0.4-4.8,0.9-7.2,1.1c-1.2,0.1-2.3-0.4-3.5-0.4c-6.1-0.3-12.6,1.5-18.9,2.1c-4.3,0.4-8.7-0.1-12.8,0.4
		c-1.3,0.2-2.5,0.9-3.7,0.9c-7.2,0-13-3-19.2-5.1c-1.4,0.6,0.3,2.7-0.7,3.6c-1.1,1.6-2.8,2.2-4,3.6c0.5,1.2-0.6,2.6-0.7,3.6
		c0,1.1,0.8,2.3,0.8,3.5c0,0.2-0.8,1.2-1,2.2c-0.2,1.1,0,2.5-0.2,3.4c-0.5,2.5-2.1,4.3-2.7,6.4c-1.2,4.4-0.9,7.5-3.1,10.1
		c0.8,2,1.4,4.2,1.5,6.9c-3,4-0.7,8-0.9,12.7c-0.1,2.9-1.2,7.1-1.5,10.6c-0.4,4.4,0.4,6.9-1.4,9.6c0.7,3.3-1.7,6.6-2,10.2
		c-0.1,2.2,0.7,3.3,0.7,5.5c-1,2.2-2.1,2.7-2.5,5.1c-0.9,5.2,2.4,8.8,2.5,12.5c8.8,4,21.2,1.1,31.4,1.5c1-0.2-0.3,2,1,1.5
		c21.8-2.5,44.2-1.4,66.5,0.5c1.4,0.1,2.7-0.5,4.1-0.5c13.5,0.3,26.7,2.6,40.4,4c5.4,0.5,12.5,1.2,17.6,0.8
		c6.2-0.5,12.3,1.2,18.5,1.6c20,1.2,38.8,4.5,57.7,5.1c9.5,0.3,19.2-1.2,28.9-1.1c9.9,0.1,20.4,1.2,29.1,1.6
		c6.6,0.3,13.1,1.6,19.6,2.1c6.4,0.5,12.8,0.2,19.3,0.4c6.7,0.1,13.6,0.7,20,0.8c6.8,0.1,13.6-0.5,20.4-0.5c8.9,0,16.5,0.5,24.7,0.7
		c15.8,0.4,31.5,0.8,47.6,2.5c7.8,0.8,15.9,0.9,23.9,1.6c10.4,0.9,20.7,2.2,30.8,1.4c3.8-0.3,7.7-1.8,11.3-2
		c2.3-0.1,4.5-0.2,6.6-0.2c7.7,0.1,15.4,3.2,21.3-0.4c1.2-2.7,3.9-5.3,4.1-10c0-1.3-0.7-2.6-0.9-4.2c-0.5-4.1-0.2-8.3,0-13.5
		c0.1-2-0.4-4-0.2-5.8c0.1-1.5,0.7-2.8,0.8-4.3c0-1.6-0.7-3.2-0.6-4.8c0.3-4,2.9-7.1,0.6-10.4c0.5-0.5,1.3-1.8,0.8-2.9
		c-0.6-1.4-3.1-0.5-4.1-1.5c1.4-2,4.5-3,3.8-7.6c-1.7-1.8-4.5-1.1-6.9-1.2c-0.4-1.2,0.8-1.6,0.3-2.7c-3-0.3-4.7-2-5.3-5
		c1.1-1.2,1.9-3,2.9-4.4c-1.9,0-4.7-0.5-6.7-1.2c0.2-1.4,2.1-0.9,1.5-2.5c-3.9-3.1-9.3-2.5-13.9-2.4c-2.2,0.1-4.5,1.2-6.8,1.5
		c-4.3,0.5-8.9-0.7-11.8,2.2c1.2,2,5.1-0.5,6.2,1.4c-13.3,3.4-28.2,0.6-42.9-0.6c-7.2-0.6-15.8-1.1-22.1-2.7
		c8-0.9,16.5,1.2,24.5,0.7c-2.7-2.1-6.3-2.4-9.6-2.9c-6.1-1-13.6-3.4-20.5-2.5c-2.8,0.4-5.1,1.3-7.7,1.1
		c-19.7-1.5-39.2-1.6-59.6-3.3c0.1-1.7,1.8-0.5,1.7-2.5c-9.3-1.5-16-0.7-25.2-0.8c-1.1,2,1.1,1.8-0.6,2.6c-1.8,0.9-0.9-1.2-1.8-2.6
		c-8.5,0-16.6-1.3-23.8-2.3c-5.6-0.8-11.3,0.1-16.6-1.7c-12.8-0.5-25.9-1.1-38.3-1.7c-6,2.4-13.4,0.8-20.2,0.9c-1,0-2,0.6-2.9,0.6
		c-5.7,0-10.5-0.8-15.6-1.6c-5.1-0.8-10.4-0.3-15.4-1.2c-6.4-1.2-13.4-2.4-20.4-2.9c-12.3-0.9-23.6,0-35.4-2
		c-1.3-0.2-2.5-1.3-3.8-1.5c-1.4-0.2-3,0.7-4.3,0.5c-5.2-0.7-10.3-2.1-15.5-2.6c-2.1-0.2-4.4,0.6-6.7,0.5
		c-9.2-0.4-19.6-1.4-28.3-2.2c-0.5,0-1.4,0.5-1.9,0.4c-0.6-0.1-1.1-0.9-1.5-0.9c-0.7,0-1.3,0.7-2,0.8c-2.1,0.1-4.4-0.9-6.5-1.1
		c2.2-1.5,5.4-0.2,8.3-0.3c0.8,0,1.7-0.4,2.4-0.4c18.3,0.2,38.1,0.8,56.1,4.6c2.5-1.4,6-0.1,9.2,0.1c6.2,0.4,12.6-0.1,18.8,0.3
		c7.4,0.4,14.6,2.2,21.6,3c4.1,0.5,7.9-0.3,10.6,0c2.9,0.3,5.5,1.7,8.2,2c3.2,0.4,6.6,0.1,9.9,0.2C291,36,297.8,37,303,36.8
		c2.5-0.1,5.2,0.4,8,0.3c4.1-0.1,8.5-1.5,11.9-0.9c2.3,0.4,3.8,0.5,6.1,0.4c9.7-0.4,19,0.5,28.3,1.8c5.4,0.8,10.9,0,16.5,0
		c11.2,0,22.5,1.5,33.8,1.5c5.1,0,10.3,0.2,15.3,0.2c3.1,0,6.3,0.2,9.4-1.2c-1.3-3.4-7.2-1.5-9.5-3.2c-17.2,0.7-36.8,0.2-53.4-1.5
		c-3-0.3-6-2.6-8.4-0.7c-3-1-6-1-9.1-1.1c-7.9-0.2-15.8-0.6-24-0.3c-5.8,0.2-11.7,0.1-17.3,0.2c-3.4,0.1-7.2,1.5-9.3-0.8
		c4.1-2.6,8.4-1,12.6-0.8c2.5,0.1,5.2-1,7.9-1c6.8-0.1,14.7-0.8,21.3-0.1c1,0.1,1.8,0.7,2.7,0.7c0.9,0,1.8-0.7,2.7-0.7
		c2.8,0.1,5.7,1.5,8.8,1.8c3.2,0.3,6.5-0.3,9.4,0.2c1.3,0.2,2.5,1.1,3.9,1.2c0.8,0,1.6-0.7,2.4-0.7c1.9-0.1,3.9,0,5.9,0.1
		c10.5,0.2,21.4,1,30.8,1.1c4.6,0,9.3-0.8,13.5-0.4c3.2,0.3,6,1.2,8.5-1.6c-4.2-1.1-9.2,0.3-12.5-1.9c4.4-1.8,8.7-1.3,14.1-1.3
		c5.6,0,11.8-0.9,17.8-0.8c8.6,0.1,17.2,1.5,25.4,0.5C471.6,27.2,467.1,26.8,462,26.4z M412.3,29.1c-0.2,0.9-2.2,1.5-1.9-0.2
		C411.2,29,411.9,28.2,412.3,29.1z M395.9,28.7c-2.5,2-7.8,0.8-11.1,0C387.9,27.2,392.7,26.6,395.9,28.7z M402.4,29.2
		c-1.9,0.9-4.1,0.7-5.9,0.3C397.8,28.3,401.4,28.1,402.4,29.2z M405.2,29.2c-0.1,0.9-2.5,0.9-2.3-0.3
		C403.5,28.7,404.8,28.5,405.2,29.2z M379.9,28.1c0.2,1.2-1.7,1.4-1.4,0.2C378.8,27.9,379.3,28,379.9,28.1z M495,53.8
		c0.7,0.2,1.7,0,2.1,0.6C496.7,55.2,494.8,55.2,495,53.8z M489.6,53.8c-9.7,2.1-22.1,0.4-32.5-0.6c2.7-2.4,6.5,0.1,9.9-0.1
		C474.5,52.5,482.9,52.8,489.6,53.8z M299.4,31.9c-3.1,0.1-6.4,0.4-9.5,0.2c-3.6-0.3-6.9-0.7-9.4-2.2c3.4-1.3,7.8,0.1,11.8,0.4
		C294.7,30.6,298.5,28.6,299.4,31.9z M558,65.6c-10.2,1.3-22.3,0.8-31.9-3.6c6.1-0.9,14.5,0.1,21.9,0.4
		C550.8,62.5,556.8,61.9,558,65.6z M247.4,26.2c-1.9,1-4.6,0.8-6.9,0.5c-4.7-0.5-10.3,0-13.7-2c2.5-2.3,5.8-0.4,9-0.2
		C240,24.7,244.5,23.6,247.4,26.2z M253.4,27.6c-1.8,0.3-3.5-0.5-5.5-1.4C249.2,24.7,252.5,25.7,253.4,27.6z M274.5,29.2
		c-2.3,1.6-7,0.7-9.1-0.8C267.6,27.2,271.9,28.2,274.5,29.2z M280.3,29.6c-0.8,2.1-2.5,0.4-3.9,0.9C277,29,279.2,28.8,280.3,29.6z
		 M264.5,28c-0.2,1.6-2.1,1.4-2.4,0.4C262.3,27.3,263.9,27.2,264.5,28z M260.2,27.8c0.1,1.2-1.1,0.5-1.2,0.2
		C259,27.3,260.2,27,260.2,27.8z M226.7,24.3c-1.5,3-4.4,1.2-6.5,0.9c-2.9-0.4-6,0-8.3,0c-0.7-0.9-2.5-0.5-2.6-2
		c2.4-0.2,6.6-0.6,8.6,1.1C220.6,23.6,224.6,23.7,226.7,24.3z M455.9,52.7c-1.7,1.3-6.1,1.4-7.8,0C450.2,51.1,453.4,52.1,455.9,52.7
		z M515.8,61.1c-0.6,0-1.1-0.1-1.4-0.5C514.6,59.5,516.1,60,515.8,61.1z M196.4,22.6c-1.4-0.5-3.7,1.1-4.9-0.6
		C192.8,21.6,196.3,20.2,196.4,22.6z M207.9,23.7c-0.5-0.3-1.7,0.3-1.3-0.8C207.1,22.7,207.9,22.5,207.9,23.7z M395.6,45.9
		c0.7,0,1.3,0.1,1,1.1C396,47,395.4,46.9,395.6,45.9z M184.4,20.4c-3.6,1.3-8.7,1.9-11.8-0.1C175.9,19.3,180.7,19.2,184.4,20.4z
		 M200.1,23.4c-0.8,0.5-2.6,0.1-2.4-1.3C198.5,21.7,200.2,21.8,200.1,23.4z M442.3,52.3c-0.1,0.8-1,0.7-1.2,0.2
		C441.2,51.7,442,51.8,442.3,52.3z M186.2,21.3c-0.2,0.7-1.3,0.1-1.4-0.2C185.1,20,185.9,20.8,186.2,21.3z M436.6,52.3
		c0,1.2-0.8,0.9-1.5,0.8c0-0.3,0.1-0.7,0.1-1C435.6,51.7,436.4,51.8,436.6,52.3z M480.2,58.7c-0.1,1.3-1.8,1-2.2,0.4
		C478.3,58,479.4,58.8,480.2,58.7z M157.1,19.7c-0.8,1.5-4.9,2.1-5.4,0C153.4,19.9,155.5,18.5,157.1,19.7z M148.6,19.7
		c-0.3,0.6-2,0.3-1.5-0.9C147.8,18.1,148.2,19.3,148.6,19.7z M460.5,58c-0.6,2.3-2.4,1.2-3.3,0.3C457.7,57.3,459.7,57.2,460.5,58z"
		/>
	<path class="st4" d="M26.9,225.2c7.9,0.3,14.6,1.1,23.2,1.1c-6.4,1.7-16.1,1.3-23.1,0.3C27,226.1,26.9,225.6,26.9,225.2z
		 M128,227.7c-0.2,0.1-0.3,0.3-0.2,0.6c6.9-0.1,14.6,1.1,21.7-0.7C143.1,226.2,134.8,227.4,128,227.7z M151.1,227.7
		c0.6,0.5,1.9-0.1,2.4-0.4C153,226.8,151.3,227,151.1,227.7z M166.5,227.1c0.9-0.1,1.7-0.3,2.2-0.7
		C168,226.7,166.3,226.1,166.5,227.1z M178.5,226c-0.9,0.1-1.2-0.4-2.2-0.1C176.4,226.8,178.5,227,178.5,226z M129.6,230.6
		c0.3,0.2,0.8,0.3,1.4,0.2C131.2,229.7,129.6,229.8,129.6,230.6z M133.5,230.3c1.3,1.4,5.8-0.1,7.7,0.3
		C139.9,229.5,136,229.6,133.5,230.3z M150.4,232.4c-5-1.9-12.4-0.9-18.7-0.1c1.3,1.6,4.9,0.5,6.7,1.5c3.6-1.8,8.1,1.4,11.8-1.1
		c1.8,0.9,5.6,1.6,6.6-0.7C154.9,232.2,152,231.2,150.4,232.4z M157.2,231.9c0,0.5,0.4,0.6,0.4,1.1c1.2,0.1,1.5-0.6,1.8-1.2
		C158.6,231.2,157.9,231.3,157.2,231.9z M170.1,231.6c4.5-0.5,7.8,0.4,11.5-1.1C178.3,230.8,173.2,229.3,170.1,231.6z M572.6,203.1
		c0-0.8-0.8-0.6-1.2-1C571.3,202.9,571.7,203.3,572.6,203.1z M161.6,231.6c0,1,1.5,1.1,2,0.7c0-0.4-0.1-0.7-0.1-1.1
		C162.6,231.1,162.2,231.5,161.6,231.6z M183,230.7c0.4,0.2,2.9,0.6,2.7-0.5C184.5,230.7,183.2,229.5,183,230.7z M497.1,209.5
		c0.1,1.3,4.7,1,4.7-0.3C500.1,208.9,499,210.1,497.1,209.5z M577.5,206.1c-3.6-1.1-9.7,1.1-13.1,2c3.5,2.1,9.3-1.3,13.2,0.2
		C578.2,207.6,577.5,206.9,577.5,206.1z M579.7,205.9c1.1,1.3,5.5,2.5,5.7-0.4C583.8,205.5,580.6,204.8,579.7,205.9z M540.3,209.8
		c-3.4-1.2-9.5-0.6-12,1.1c3.3,3,8.6,0.1,13.2-0.4c1.4-0.2,2.9,0.4,4.1,0.3c3.7-0.3,7-1.3,10.4-0.7c0.9-0.8,2.1-1.2,3.2-1.9
		C552.2,208,546.3,208.6,540.3,209.8z M510.8,212.4c1.3,0.2,2.1,0.9,3.9,0.6C515.1,210.9,511.8,211,510.8,212.4z M455.4,219.1
		c0.6-0.2,1.8,0.2,1.9-0.4C456.9,218.3,455.3,218.3,455.4,219.1z M475.9,217.6c-2.7,0-6.5-0.6-7.9,1.1c4.3,0.4,8.3-0.2,12.6-0.3
		C479.8,217.5,477.7,217.7,475.9,217.6z M454.2,221.7c0.5,0.3,2.6,0.3,3-0.2C456.4,221,454.8,220.8,454.2,221.7z M457.2,225.8
		c-0.3,0.1-0.1,0.3,0,0.5c3.5-0.6,7.9,0.7,10.4-0.7C464.5,225.8,460.7,225.1,457.2,225.8z M474.8,225.4c-0.1,0.4-0.3,0.5,0.1,0.8
		c3.1-0.4,7-0.1,9.6-1C481.8,224.8,477.3,225,474.8,225.4z M495.7,135.9c-25.1,1.7-50.6,2.2-75.2,2.8c-1.9-1.2-4-0.2-6.1-0.1
		c-13.8,0.4-28.3-0.6-42.1-0.6c-18.4,0.1-36.8,0.2-55.1-0.5c-3.4-0.1-7.3,0.4-9.9,0.4c-15.9,0-32.1,0.1-48.3,1.2
		c-8.1,0.6-16.2-0.1-24.4,0.6c-1.9,0.2-3.4,0.8-4.9,0.1c-39.4,4.2-80.3,5.1-120.8,7.2c-9,0.5-18.1,0-27.2,0.5
		c-15.9,0.9-32.9,3-46.4,4.7c-2.2-1-6.3-0.9-8.8,0.1c-4-0.7-9.2-2.5-13.8-1.2c-4.5-1.7-8,1.4-10.8,3c-0.4,2.4-1.9,3.6-1.8,6.2
		c0.1,2.8,1.6,5.8,0.9,9c2,2,4.1,3.9,4.9,7.4c4.1,1.5,4.2,7.6,8.1,9.3c1,3,2.6,5.3,4.4,7.4c0.3,1.1-0.6,1.2-0.4,2.2
		c3.4,1.8,0.7,6.2,2.5,8.6c-0.3,0.7-1,1-1,2c0.9,2.1,3.5,3.7,2.4,6.4c1.8,0.9,2.2,3.4,4.1,4.1c0,1.1-1.9,1.7-1.2,2.6
		c16.4,2.9,39.2-2,53.9-1.1c-3.6,1.3-7.6-0.1-10.3,2.4c1.5-0.4,2,0.3,2.5,0.9c3.6-0.7,6.3-1.3,9.3-0.9c-0.4,1.4-2.6,1.7-4,1.9
		c-5.6,1-11.5,1.1-15.5,3c5.8,0.2,11.4-0.9,17.2-1.2c4.9-0.2,9.7,0,14.6,0.3c9.3,0.6,18.8-2.2,27.5-0.6c-5,0.7-13.2,0.5-18,2.1
		c15.4-0.8,33.1,0.4,48.6-1c19.7-1.8,40.9-2.1,60.3-3.4c7.4-0.5,14.7-2.5,21.7-1c-10.2,1.8-21.5,1.8-31.1,3.3
		c-7.1,1.1-15-0.3-20.5,2.3c16.5-0.5,34.7-2.6,49.9-2.7c-0.1,1.3,0.9,0.8,1.2,2.1c-2,0.3-2.8,0.1-4.6,0.6c-1-0.7,0.2-0.9-0.4-1.6
		c-1.5,0.4-2.3,0.3-3.8,0.3c0,1,1.5,0.3,1.7,1c-10.3,2.2-19.7,1.9-29.5,2.6c-2.5,0.2-5.9,0.1-7.8,1.9c14.9,1.4,33.6-2.3,49.1-2.1
		c0.3,0.8-0.7,0.6-0.4,1.4c1.7-0.2,1.9-0.3,3.6-0.3c0.5-0.5,0.1-1.8,1.3-1.7c5,0.9,9.5,0.4,14.3-0.7c0.7,0.5-0.3,1.1,0.4,1.6
		c3-0.7,8-0.3,12.1-0.6c1.6-1.9,5.2-2,7.4-0.8c0.5-0.4,0.4-1.3,1.3-1.5c2.7,2.5,9.4-2.1,13,1c1.6,0.2,0.3-1,1.3-0.9
		c0.5,0.3,0.6,1.1,1.2,1.3c15.2-0.5,29.3,0.7,44.3-0.1c0.9,0.1,0.4-1,1-1.2c0.6,1.2,2.7,1.7,3.3,0.6c-0.8,0.2-1.3-0.2-0.9-0.8
		c2-0.7,1.9,1.2,3.1,1.4c4.6-0.2,9.2,0.4,14.3,0.4c1.1,0.1,0.4-1.3,1.6-1.2c0.2,0.9,0.9,1.4,2,1.2c0.9-0.2,0.1-1.8,1.3-1.7
		c1.4,0.1,2.9,0.1,2.3,1.8c9.4-0.4,18.6,2.5,27.2-0.5c1.5,0.5,2.6,0.7,4.4,0.2c0.6,0.3,0.8,1,1.5,1.3c1.8-0.1,3.6-0.2,4.6-0.9
		c0.9,0.2,1.2,1,2.3,0.9c3.2,0.1,6.6-1,9.8-1.2c3.3-0.3,6.8-0.4,9.4,1.3c4.9-4.6,10.9,1.2,14.5-1.8c0.8,1.2,2.7,0.4,4.7,0.8
		c0.9-0.4,1.4-1.2,2.7-1.3c2.7,1.5,6.5,0.2,10.2-0.2c-3.5-2.4-10.5,0.7-14.1-1.2c1.5-0.2,1.3-1.8,2.3-2.4c2.4-1,5.4-0.3,7.3-1.3
		c-6.7-0.9-14.7-0.3-21.3-1.2c6.3-1.9,16.1,0.6,24.1-1.4c-9.8-1.2-21.7-0.3-30.7-1.7c10.5-1.1,24.1,0.6,36-1.2
		c3.5,0.9,9.1,0.8,14.6,0.6c3.1-0.1,6.5-0.1,8.8-0.6c2.7-0.6,5-2.4,6.9-0.2c0.5-2.2,4.7-1.2,6-0.7c1.1-1,3-1.4,4.2-2.2
		c1.5,0.7,2.6,0,4.7-0.1c0.9,1.1,5.1,1.7,5.2-0.6c-1.8,0.3-3-0.1-4.2-0.5c-7.1,1.7-15,0.2-22.2,0.7c-1.9,0.1-4.4,1.4-5.8-0.4
		c2.3-1.2,4.7,0,6.9-0.2c0.8-0.1,1.6-0.9,2.4-1c2.1-0.3,5.1,1.5,6.3-1c-5.6,0.5-13.1,0-17.9,0.2c1.1-1.1-0.3-0.7-0.7-1.6
		c2-2.2,5.4-0.3,8.2-0.6c2.5-0.3,4.9-1.7,7.1-0.2c3.9-2.6,10.7-1.2,15.9-1.1c4.1-2.4,8.8-1.4,14.2-1.6c5.2-0.1,10.3-1,14.7-1.6
		c4-0.5,8.4-0.7,12-1.1c3.6-0.4,7.4-0.9,9.6-0.1c3.9-1.6,7.6-1,12.3-0.6c0.9-1.9,4.8-1.7,5.5,0.2c-1.1,0.8-1.4,1.4-0.6,2.8
		c3.4,0.9,3.3-0.9,5.6-2.3c0.4-0.3,1.1-0.1,1.4-0.4c1-1,0.5-1.9,1.8-2.3c1.6-0.6,2.9,0.4,4.4,0.2c1.4-0.1,2.8-1.3,4.3-1.4
		c2.3-0.2,4,1.2,6.4,0.4c2.5-3.2,8.4,0.3,12.8-1.5c-0.2-1.6-2.7-0.4-3.1-1.7c3.1-0.4,5-1.2,8.5-1.1c0.8-1.1-0.9-1-1-1.9
		c0.5-0.3,1-0.5,1.6-0.7c-0.5-1-1.3-1.6-1.3-3.2c0.9-0.2,2.6,0.2,3-0.5c-0.4-0.2-0.6-0.5-0.6-1.1c0.9-0.3,1.9-0.6,2.4-1.3
		c-2.6-0.8-5.3-1.3-6.8-3.4c1.1-0.6,2.7,0.3,3.5-0.8c0.9-0.5,0.1-2.3,0.6-3.1c2.5-0.5,4.9-1,7-1.9c-1-2.6-6-0.6-6.1-4.2
		c2,0.3,2.5-0.8,2.9-1.9c2.2,0.2,3.2-0.7,3.7-1.9c-0.9-0.3-2.3-0.3-1.8-1.5c1.4-0.4,1.6,0.5,2.8,0.4c0.2-1.7-1.8-0.7-1.8-2.1
		c1.1-0.4,1.2-1.7,2.3-2.1c-0.6-0.4-1.7-1.2-1.2-1.8c0.5,0,0.9-0.1,1.4-0.1c-1.3-2,0.9-2,1.1-3.4c0.1-1.7-2.1-0.8-2.3-2
		c0.9-0.9,1.7,0.7,2.7-0.2c-0.1-0.9-0.8-1.7-0.2-2.5c0.8-0.1,1.8,0,2.2-0.4c0-1.3-2-2.4,0.1-2.8c-0.2-1.1-1.4-1-1.3-2.4
		c1.2-1.4,2.8,0.1,4.7-0.3c-0.3-2.2-2.8-1.9-3.6-3.6c0.7-1.2-0.7-2.5,0.8-3.6c-2.4-2.6-5.8-4-9.7-4.8c-0.4-0.8-0.1-0.9-0.1-1.9
		C584.6,123.3,537.7,133.1,495.7,135.9z M82.5,217.4c0,0.6-0.6,0.6-1.3,0.6C81.2,217.1,81.8,217.3,82.5,217.4z M130,223.9
		c-2.3,0.1-4.9,0.6-6.9,0.2C124.4,223,128.7,223.1,130,223.9z M137.9,223.4c0,0.7-1,0.7-1.3,0.4C136.5,223.1,137.5,223,137.9,223.4z
		 M143.7,223.3c-0.1,0.9-1,0.5-1.6,0.4C142.2,222.6,142.9,223.4,143.7,223.3z M170.6,222.5c-7.4,0.9-15,1-24.1,1.2
		c4.3-1.2,11.9-1.5,16.7-0.9C165.1,221.9,169.3,221.3,170.6,222.5z M176.3,222c-0.9,0.1-1.8,0.1-2.7,0.2
		C173.8,221.4,176.2,220.8,176.3,222z M181,221.4c0,0.9-2,0.8-2.4,0.4C178.5,221,180.5,221.1,181,221.4z M515.5,201.1
		c-1,2.9-5.7,2.1-8.2,1.4c0-0.3,0-0.5-0.1-0.8C509.9,201.1,513.3,201.6,515.5,201.1z M271.3,218.4c3.1-0.1,4.9-0.5,7.4-0.2
		C277.3,219.5,272.7,219.8,271.3,218.4z M531.1,200.8c-4.7,0.4-10.7,1.8-14.2,1C521.1,200.7,527.3,199.7,531.1,200.8z M283.7,218.3
		c-1.1,0.5-2.9,1-3.8,0.3C280.3,217.4,282.9,217.9,283.7,218.3z M342,215c1.4-0.1,2.9-0.3,3.6,0.3C344.8,215.9,342.3,216,342,215z
		 M458.2,207.9c0.2,2.6-4.1,1.3-6,0.7C452.5,206.5,456.8,207.5,458.2,207.9z M517.8,202.8c0.6,1.3-1.5,1.6-1.3,0.4
		C517.1,203.3,517,202.7,517.8,202.8z M448.8,208c0.7-0.1,1.6-0.2,1.9,0.1C450.8,209,448.6,209.1,448.8,208z M464.5,208
		c-0.8,0.3-2.8,0.8-3.6,0.3C460.9,207,464.4,206.8,464.5,208z M470.9,208.1c-1.1,1.1-5.6,1.2-6.1-0.4
		C466.3,206.6,469.2,207.5,470.9,208.1z M268.7,221.3c0.7-0.1,0.9,0.4,1.4,0.4c0,0.7-0.9,0.6-1.6,0.7
		C268.4,221.8,268.7,221.7,268.7,221.3z M275.1,221.9c-0.8,0.4-1.2,0.2-1.9-0.1C273.3,221.2,275.2,220.7,275.1,221.9z M247.2,224.2
		c-0.3,0.7-0.8,0.9-1.6,0.7C245.7,224.2,246.6,223.6,247.2,224.2z M335.6,217.7c3.8-0.2,8.4-0.1,11.9,0.3c3.1,0.3,6.9-1.1,9.1,0.7
		c-7.4,0.4-14,0.2-20.1-0.2C335.9,218.5,335.6,218.3,335.6,217.7z M288.1,222.7c-0.2,0.7-1.2,0.7-2.2,0.7
		C285.6,221.2,287.7,221,288.1,222.7z M271.4,223.6c-0.7,0-1.6,0.2-1.9-0.1C269.6,222.8,271.5,222.3,271.4,223.6z M279.6,223.5
		c-2,0.1-3.3,0.1-4.7,0.1C275.3,222.2,279.4,221.6,279.6,223.5z M462.4,209.5c0.3,1.1-1.6,1.2-1.4,0.1
		C461.9,209.4,461.6,209.4,462.4,209.5z M309.9,220.3c1.2-0.1,2.2,0.1,3.1,0.3C313,222.4,309.8,222.1,309.9,220.3z M317.6,220.3
		c0.6,1.3-1.5,1.6-1.3,0.4C316.6,220.4,317,220.3,317.6,220.3z M384.4,215.6c0.7-0.1,1.2,0,1.2,0.7
		C384.9,216.4,384.2,216.5,384.4,215.6z M472.6,209.3c0.8-0.3,0.8,0.4,1.7,0.2C473.9,210,472.7,210.4,472.6,209.3z M288.4,222.9
		c0.4-0.6,2.5-0.5,3-0.2C290.7,223.6,289.4,222.7,288.4,222.9z M359.3,218.5c0-0.4,2-0.7,1.7,0.2
		C360.3,218.7,359.7,218.7,359.3,218.5z M388.6,216.1c0.7,0,1.6-0.2,1.9,0.1C390.6,217.1,388.4,217.3,388.6,216.1z M400.8,216.9
		c-2.3,0.2-4.6,0.3-6.3-0.1C395.3,215.1,399.8,215.8,400.8,216.9z M345.7,220.8c-0.1,0.6-0.5,1-1,1.2c1.3,1,1.9-0.3,3-0.8
		c0.4,0.9,1.4,1.2,2.3,1.5c-1.1,1-4.7,0.8-6.6,0.2c0-0.5,0.4-0.7,1.1-0.6c-0.2-0.9-1.8-0.1-1.5-1.5
		C343.9,220.2,345.1,220.3,345.7,220.8z M421.9,216.8c-5.9,1.8-13.2,0.2-19,0C408.1,215.8,415.8,215.9,421.9,216.8z M339.4,221.2
		c0.4,1.2,2.2,0.6,2.6,1.7c-1.4,0.1-2.8,0.3-3.6-0.3C338.2,221.7,339.4,222,339.4,221.2z M404.6,219.9c-3.9,0.5-7.1,0.1-10.2-0.4
		C396.9,218.4,402.5,218.6,404.6,219.9z M408.4,219.4c0.9,0,2.3-0.5,2.3,0.7C409.7,220,408.3,220.6,408.4,219.4z M423.5,219.7
		c-3.2,1-8.9,1.1-11.8,0.3C414.9,217.3,419.7,220.2,423.5,219.7z M424.1,220.2c0.1-0.6,1.3-0.2,1.9-0.4
		C425.9,220.7,424.7,220.3,424.1,220.2z M396.5,222.2c0.4,0,0.7-0.1,1.1-0.1c0.2,1,0.8,1.4,1.3,2.1c-1.4,0.5-4.4,0.4-5.8-0.1
		C393.9,222.7,396.6,224.5,396.5,222.2z M418.2,222.3c0,0.6-0.5,0.8-0.7,1.2c2,0.4,3.9,0.8,6.1,0.9c-3.6,1.2-9.8,0.4-13.7,0.1
		c0-0.9,0.7-1.1,1-1.7c1.2-0.3,1.2,0.8,1.7,1.3c0.8-0.2,1.4-0.5,2.2-0.7c0.1-1.5-1.3,0.1-1.2-1C415.1,221.7,416.7,221.5,418.2,222.3
		z M428.3,224.9c-1.5,0.3-2.3-0.3-3.9,0C424.9,224.3,427.9,223.5,428.3,224.9z M435.4,224.4c-0.6,1-2.6,1.1-3.5,0.5
		C432.1,223.8,434.6,224.2,435.4,224.4z"/>
	<path class="st4" d="M534.9,328c1.7-1,3.8,0.2,5.8-0.1C539.7,329.5,536.9,328.1,534.9,328z M598,328.9c-0.8-0.6-2.5,0-2.6-1.9
		c1.2-1.1,2.7,0,4.1-0.7c0.1-1.3-1.3-1.9-0.9-2.5c1.2-1,2.2-2.1,4.1-1.3c-0.2-4.4-4.4-2.7-5.2-6.2c1.6-2.9,5.8-2.6,8.1-3.5
		c-0.2-2.1-2.6-1.1-3-2.8c1.5-0.3,2.6-1.2,4.1-1.6c1.2-3.1-0.9-4.1-1.4-6.6c1.5,0,3.2,0.2,3.4-1.6c-1.7-2.8-5.4-2.8-7.1-5.6
		c1.3-0.7,3.6,1.4,3.9-1.6c-0.5-0.6-1.5-0.3-1.7-1.2c1.8-0.4,2.2-2.8,3.4-4.1c-1.8-2-4.5-2.9-6.9-2.1c-0.4-2.4-1.7-1.9-2.6-3.1
		c1.4,0.1,3.5,0.1,4.9-1.3c-0.8-0.1-1.4-0.5-1.5-1.6c2.1,0,3.9-0.4,5.4-1.3c-0.7-0.9-2.2-0.6-2.4-2.2c0.7-0.4,1.3-1,1.5-2.2
		c1.2,0.4,1.3-0.8,1.9-1.3c-0.4-1.9,0.1-3.4-0.3-5.3c1-0.9,2.6,0.6,3-0.7c-1.2-0.8-1.8-2.4-2.4-4.1c1.8,0.3,2-1.7,3.2-2.2
		c-0.9-1.6-0.4-2,0.2-3.5c-0.2-2.1-1.8-2.2-2.2-4.1c2.6-0.6,4.6,1.4,6.9,0.2c-1.9-2.9-6.3-1.8-8.4-4.3c0.5-0.6,2.1,0.3,1.9-1.3
		c-0.2-0.8-1.7,0.1-1.9-0.6c-0.2-1.1,0.3-1.2,0.2-2.2c-2.8-1-5.5-2.3-8.4-3.1c-0.7-0.7,0-1.6-0.5-2.5c-0.9-0.7-2.2-0.7-2.8-1.9
		c-4.5-1.8-8.8-2.3-13.4-4.9c-1.2-0.7-2.2-2.2-3.5-2.8c-0.7-0.3-1.6-0.2-2.4-0.6c-1.9-1-3.2-2.4-5-2.5c-0.9-0.1-1.7,0.4-2.6,0.3
		c-1.6-0.1-3.1-1.2-4.7-1.5c-2.1-0.4-4.7,0.4-6.9-0.6c-2.4-1.1-6.1-1.1-8.8-1.2c-6.6-0.1-13.3-2.5-20-2.6
		c-4.8-0.1-10.2,0.2-15.1-1.7c-3.4,1.4-7-0.4-10.5-0.5c-0.6,0-1.1,0.6-1.7,0.6c-1.2,0.1-2.3-1-3.7-1.2c-1.3-0.2-2.6,0.4-3.9,0.4
		c-7.4,0-15.6-1.3-23-1c-6-2.3-14.1,0.4-19.8-2.3c-1.5,0.2-1.9,0.1-3.2-0.3c-3.4,1-6.8-0.2-10.3-0.2c-1.2,0-2.6,1-3.9,1
		c-1.8-0.1-3.7-1.2-5.6-1.2c-2.9-0.1-5.4-0.1-8.2-0.5c-1.1-0.2-2.5-0.3-3.7-0.3c-6.1,0.2-11.1,0.1-17-0.5c-4.4-0.4-9.8,0.3-13.3-0.2
		c-4-0.6-8.6,2.2-12,0.1c-7.2,2.2-13.7,0.2-21.1,0.5c-0.6,0.3-1.1,0.7-1.7,1c-2.9-1-6.3-0.5-8.8-0.9c-2.1-0.3-3.8,1.6-5.8,1.6
		c-1.8,0.1-3.7-0.6-5.6-0.9c-2.7,0.5-5.6,1.3-8.4,1c-1.5-0.1-2.7-1-4.3-0.6c-6,1.6-13,1.1-18.9,0.8c-0.9-0.2-0.9,1-1.7,1
		c-4.1-0.7-8.1-0.7-11.8-0.2c-1.3,0.2-2.2,1.2-3.4,1c-0.8-0.2-1.3-0.9-2.2-0.9c-4.8-0.1-10.4,2.5-15.5,0.5c-4,1.4-10.5,0.8-16.3,0.5
		c-2.2-0.1-4.2,0.3-6.2,0.4c-6.2,0.1-12.6-1.2-18.9-1.1c-2.7,0-6.2-0.4-7.3,1.3c-0.1-1.6-1.5-1.1-2.2-1.9c-0.8-0.1-0.6,1.3-1.5,1.3
		c-3.5-0.9-8-1.8-12-1.5c-0.7,0.1-1.3,0.7-1.9,0.6c-26.9-1.2-55.7-4.9-82.6-6.1c-2.6-0.1-5.3,0.5-7.9,0.7c-4.7,0.4-9.4,0.6-14,0.8
		c-8.9,0.3-17.3,2.4-25.8,1.8c-2.4-0.2-5.4-1.2-7.5-0.9c-1.9,0.3-2.7,3-4.9,3.2c0.8,3.3,0.3,6.3,1,9.7c-0.3,0.8-1.4,0.5-1.1,2.2
		c0.8,1.1,1.3-1.5,2.1-0.3c0.7,1.8-0.8,2.2-0.4,4.4c1.8,4.3,2.6,11.1,1.7,17c2.1,5.7,4,11.7,7,16c-0.3,0.5-1.2,0.1-1.1,1.3
		c0.8,0.6,2.4,0.1,2.8,1.2c0.1,1.2-1.5-0.1-1.3,1.3c2.3-0.1,3.3,1.8,4.5,3.4c-0.3,1.3-1.5,1.4-1.5,3.2c0.3,1.7,2.3,0.9,2.4,2.8
		c-2,2.1-0.5,5.6-0.3,9.1c0.1,1.9-0.6,3.2-0.4,4.7c0.1,0.7,0.6,1.4,0.7,2.2c0.4,4.1,0.3,8.1,1.8,11c-0.2,0.8-0.6,1.2-0.6,2.2
		c0.7,1,1.9,1.4,2.4,2.8c-0.6,3.5,1.5,5,2.4,7.2c2.8-0.3,5.3,3.4,7.1-0.1c0.7,1.8,3.5,1.8,5.4,1.8c2.3,0,4.4-0.1,5.8-1
		c0.8-0.2,0.8,0.7,1.5,0.6c9.2-0.6,19.9-2.2,29-2.2c2.4,0,5.4,0.5,6.9,2.8c4.1-0.3,8.1,1.2,11-0.7c2.2,1.7,6.7,2.5,9,0.5
		c0.4,0.9,1.1,1.6,2.4,1.2c0.7,0.1,0.4-1.2,1.1-1.3c2.4,0.7,5.2-0.7,7.7,0.5c0.8,0.4,1.2,1.6,2,1.9c3.3,1.1,6.7,0,9.7-0.1
		c2.4-0.1,4.7,1,6.9,1.2c1.2-1.5,3.8-1,5.2-0.1c4.8-1.6,11.4-0.1,17,0.1c15.8,0.8,30.8-0.4,45.4,2.1c6.2,1.1,11.7-1.5,17.6-1.1
		c2.5,0.1,4.8,0.6,7.1-0.7c3,1.6,9.7,1.1,13.5-0.1c7,2.3,14.2-0.1,21.1-0.2c2.4,0,4.8,0.6,7.1,0.6c2,0,4-0.9,6-1
		c2.4-0.1,5.2,0.5,6.9,0.6c1.6,0.1,3-1.3,4.7-1c9.2,1.6,19.8-1.6,29.7,0.6c0.8-0.7,1.7-1.2,2.6-1.3c1.1-0.1,2.2,1.2,3.2,1.2
		c0.3,0,0.7-0.9,1.1-1c1.4-0.3,3,0.2,3.9,0.6c5.4-1.3,12.3-0.7,16.8,0.1c6.7-1.3,14.3,1.3,21.3,0.1c1.8-0.3,2.9,0.2,4.5,0.3
		c0.6,0,1.4-0.6,1.9-0.6c5-0.5,11.8,0.8,16.1,0.8c1.8,0,2.9,0.8,4.3,0.9c3.4,0.2,7.2-1,11-0.4c2.9,0.4,6.3,0.1,9.7,0.5
		c4.4,0.5,8.9,0.3,13.3,0.5c4,0.2,8.3,1.2,12,1.5c5.7,0.4,9.9,0,14.8,0.2c1.1-0.9-1-1.7,0.2-2.5c0.5-0.1,1-0.1,1.3,0.3
		c0.2,1.3-0.9,0.8-0.8,1.9c1.7,1.9,4,0.8,6,0.6c1.5-0.1,3,0.9,4.5,1.2c4.2,0.8,8.6,1,12.9,0.2c0.7-0.1,0.7,0.8,1.5,0.6
		c1.1-0.9,2.6-0.2,3.6-0.7c-0.3-2.6-2,0.5-2.4-1.5c1.5-1,5,0,6.6-1.6c1.9,3,4.6,1.9,6.9,0.6c1.2,0.8,3,2.1,4.3,0.9
		c2.1,2.4,6.1,0.9,9.5,1.8c0.1-1.2-1.2-0.3-0.9-1.9c2.3-0.7,1.6,2.9,3.7,2.5c0.8-0.2,0.7-1.6,1.5-1.9c3.3,1.6,6,0.4,9.3,1.8
		c-1.1,1.3-2-0.1-3.4,0c1.8,2.5,5,1.8,6.7,0.2c0.6-0.1,0.7,0.4,0.7,1.3c1.8-2.8,6.3-0.7,7.8,1.8c1.6-1.6,3.1,2,4.3,3.1
		c3.5-0.4,6.4,2.8,10.6,2.4c1-2.7,4-1.4,5.8-1.6c-2-1.7-5.1-1.9-6.9-4c0.5-1,1.7,0.8,1.9-0.6c-0.3-0.5-1.7,0.6-1.5-1.2
		C595.8,330.3,596.7,330,598,328.9z M596.9,239.3c0.4,0.3,0.8,0.6,0.7,1.6C597.1,240.7,596.4,240.1,596.9,239.3z M274.8,321.1
		c-2,1.8-5.9,0.2-7.7,0.1C269.6,319.9,271.9,320.7,274.8,321.1z M284.7,321c0,0.9-1,0.8-1.3,0.3C283.4,320.5,284.4,320.6,284.7,321z
		 M290.7,321.6c-0.7,0.2-1-0.2-1.5-0.3C289.4,320.5,290.6,320.5,290.7,321.6z M577.6,325.6c-0.7,0.6-2.6,0.3-3-0.6
		C575.7,323.9,576.7,325.4,577.6,325.6z"/>
	<path class="st4" d="M280.9,335c1.5-0.7,2.5,0.1,3.7,0.3c6,0.8,12.8,0,19.2,0.8c8.5,1,17.2,1.1,25.4,2.4c4.7,0.7,10,2.1,14.7,2.2
		c3.8,0.1,7.3,1.3,9.8,0.1c1.1,0,0.9,1.4,2,1.3c3.2-1.2,8.5-0.3,11.4,1.1c10.4,0,21.8,3.4,33.1,3.9c3.5,0.2,7.2,0.9,10.7,1.4
		c6.1,0.7,12.6,0.1,17.4,3.3c3.1,0,5.6-0.6,7.9,1.2c4.1-0.7,8.8,1.8,13.5,2.4c2.7,0.3,5.3,0.1,7.7,0.6c5.2,0.9,11.6,3.3,17.4,3.6
		c4,0.2,7,1.3,10.9,2.2c7.9,2,16,2.4,24.4,4.7c5,1.4,9.6,3.9,14.8,3.7c1.1,1.7,3.4,2.1,5.1,1c3.9,2.5,9.3,2.5,14.9,3.1
		c8.9,1,18.5,2,24.8,1.2c1.1,1.5,3.5,0,4.9,0.9c1.8-1.8,5.4-1.2,8.5-1.1c5.1,0.1,9-1,13.6-0.8c0.8-0.4,1.4-1,2.2-1.3
		c2.2,1.4,5-0.9,7.1-1.5c1.2,1.2,2.7,0.3,4.2,0.9c1,0.4,1.2,1.5,2.3,1.6c0.8,0.1,1.6-0.8,2.4-0.7c2.1,0.1,2.7,2.5,4.5,3.5
		c0,0,0,0.3,0,0.3c-0.3,0-0.5,0.1-0.7,0.2c-1.4,4.5-5.3,7-4.8,13.1c-3.1,2.4-3.4,7.6-5.2,11.3c0.1,0.7,0.3,1.4,0.1,2.4
		c-1,2.1-2.4,3.7-2.4,7.1c-2.7,3.6-3.9,9.3-6.7,12.7c-0.1,2.9-1.7,3.6-1.7,6.6c-1.4,2-4.6,1.4-6.5,2.8c-0.1,5.1-3.9,5.1-4.9,9
		c-1.4,0.9-3.3-0.9-4,0.9c1.6,1,5.1-1,6,1.6c-2.1,3.4-7.3,0.6-10.2,2.8c4.6,2,10.6,1,14.9,2.2c-2,4.7-10.5,0.5-12.2,5.6
		c-1.4,0.5-3.8-0.5-4.3,1.2c0.9,0.7,3.1,0.1,3.5,1.4c-1.7,1.6-5.8-0.1-6.9,2.4c2.2,0.6,6,0.1,7.1,2.6c-5.7,3.5-14.9,2.3-21.5,3.7
		c1.6,0.8,4,0.5,5.6,1.3c-13.2,1.1-31.7-1.4-46.5-2.5c-2.7-0.2-5.6-0.4-7.7-1.7c3.9,0.6,7.1,0.6,10.3,0.2
		c-10.3-1.8-22.3-3.4-31.4-5.5c-5.4-1.2-10.9-1.8-15.8-3.5c-1.9-0.6-3.2-2.1-5.1-2.1c-0.6,0-1.3,0.6-1.9,0.4
		c-1.4-0.2-2.9-1.7-4.4-2.1c-2.8-0.6-6.9-1.4-9.8-1.3c-1.4,0.1-1.6-0.1-3-0.5c-1.2-0.4-2.5-0.1-3.5-0.8c-0.8,0-1.2,0.7-2.1,0.4
		c-1.6-1.7-3.1-1.3-4.9-1.2c-1.3,0-3.4-0.4-5.1-0.7c-3.1-0.5-5-2.3-7.8-2.9c-3.4-0.7-6.6-0.5-10-0.7c-5.5-0.4-12-2.9-17.9-4.2
		c-8.2-1.8-16-2.6-24.2-3.5c-24.7-2.7-50-6.5-73-9.4c-0.7,0.2-1.1,0.9-1.9,1c-0.3-0.4-0.4-1.2-1.4-1c-6.1,1.2-11.2-1.3-17.1,0.2
		c-0.7-0.4-1.2-1-2.3-1c-1-0.3-1,0.9-1.9,0.7c-1.9-0.5-4.3-1.6-5.8-0.4c-0.7-1.3-4.4-1.7-5.1-0.4c-2.6-1.7-7.4-1.8-10.5-1.1
		c-3-2.1-6.5,0.1-9.4-0.4c-0.9-0.1-1.7-1.1-2.5-1.4c-2.2-0.6-4-0.4-5.9,0.2c-4.8-0.5-10.2-1.3-15.6-2c-20.8-2.7-44.3-3.4-66.4-5.1
		c-17.2-1.3-34.6-3.7-51.1-4.9c-11.7-0.8-23.6-1.7-33.4-2.7c-4.1-0.4-10.3,0.8-12.8-2.4c1-2.6,4.6-1.4,6.2-3.1c-1.4-1.1-3-2-4.6-3
		c0.3-1.4,2.4-0.3,2.7-1.9c0.1-1-1-0.7-1.4-1.3c-0.1-1.1,1.1-0.5,0.8-2c-4.7-0.2-2.5-3.3-0.5-4.7c-1.5-0.1-0.9-2.6-2.2-2.8
		c0-1.5,1.3-1.3,1.3-2.8c-3.2-1.9-0.9-5.9-0.7-9.4c-0.5-0.9-1.8-1-2.5-1.6c0.2-2,1.9-1.9,2.3-3.6c-0.3-1.2-2-0.9-2-2.5
		c1.2-2.3,4.3-1.8,6.7-2.4c-2.6-1.5-4.4-4-6.3-6.3c1.5-0.1,1.2-1.3,1.7-2.2c1.2-0.3,2.7-0.1,3.1-1.5c-0.8-1.8-1.6-1.7-0.3-3.5
		c-1-0.7-3.2-0.2-4.2-0.9c-0.7-2.8,1.5-4,2.2-6c-0.9-1-3.1-0.6-2.4-3.4c0-1.4,1.5-0.5,1.7-1.6c-0.3-0.9,0-2.6-0.3-3.5
		c0.2-0.9,1.8,0.1,1.7-1.3c-1.6-1.1-3.3-2-3.3-4c0-1.2,1-1.9,1.3-3.4c0.1-0.7-0.4-0.7-0.4-1.5c0-1.3,0.6-1.8,0.4-2.6
		c-0.3-0.8-0.8-0.6-1.3-1.8c0.4-0.4,0.3-1.5,0.3-2.3c0.8-0.7,2.1-0.6,2.6-1.6c9.6-0.8,19.8-1.7,29.3-0.8c0.8-0.3,0.7-1.9,2-1.6
		c0.7,0.3,0.3,1.7,1.1,1.8c17.6,1.1,31.5,3.8,49.2,5.6c0.7-0.2,0.6-1.6,1.3-2c2.1,0,3.5,0.8,5.6,0.7c0.8,0.5,0.7,1.9,1.8,2.2
		c15.8,1.6,33.6,2.3,49.3,3.6c0.8-0.2,0.4-1.9,1.5-1.6c0.5,0.6-0.8,0.8-0.1,1.7c15.1,1.2,29.1,2.9,43.6,4.6c0.8,0.2,0.7-0.8,1.4-0.8
		c3.6,2.3,11.5,2.8,15.9,1.7c1.2-0.1,1,1.2,2.3,1c1.1,0.4,0.4-1.7,1.5-1.4c0.8,0.1,1.1,0.6,2.1,0.4c0.8,0.5-1,1.2,0.2,1.5
		c1.5,0.2,2.4-0.3,4,0c0-0.6-0.6-0.4-0.4-1.2C275.8,333.7,278.2,333.7,280.9,335z M558.3,466.9c0.1-1.1-2-0.7-2.3-0.5
		C556.2,467.8,557.4,466.7,558.3,466.9z M551.5,466.5c-0.1-0.9-0.6-0.4-1.2-0.4C550.3,466.8,551.2,466.8,551.5,466.5z M541.5,466
		c0.3-1.2-1.6-1.3-1.4-0.1C540.6,466.1,541,466.6,541.5,466z M524.4,464.5c0-0.3,0-0.6,0-0.9c-0.7-0.1-1.3-0.1-1.2,0.8
		C523.6,464.4,524,464.5,524.4,464.5z M522.5,464.4c0.3-1.2-1.3-1.3-1.2-0.1C521.8,464.3,522.1,464.3,522.5,464.4z M476.5,445.8
		c-0.1-0.3-0.2-0.5-0.4-0.6c-13.3-4-27.6-6.2-41.1-8.5c-8.6-1.5-17.1-4.1-26-6c-2.2-0.4-4.8-1.2-6.7-1.4c-0.6-0.1-1.3,0.5-1.9,0.4
		c-0.8-0.1-1.6-0.9-2.3-1c-3-0.8-6-0.1-9.1-0.4c-4.7-0.4-9.8-1.2-14.7-1.6c-6.1-0.6-12-1.7-17.7-3.3c-12.2-0.5-26.5-3.1-40.3-5
		c-4.2-0.5-8.4-1-12.4-0.3c2.2,2.1,4.8,1.1,7.2,1.4c22.9,3.2,47,8.6,69.9,8.8c3,0,6.3,0.9,9.6,1.3c9.2,1,18.6,2.4,27.2,4.6
		c1.4,0.4,2.9,1.6,4.4,1.8c0.9,0.1,1.7-0.4,2.6-0.4c2.7,0.1,5.8,1.8,9,2.4c9.1,1.6,20,2.9,29.1,5C466.8,444,471.9,445.2,476.5,445.8
		z M475.3,436.7c0.1-0.3,0-0.5-0.2-0.6c-8.7-2.6-17.8-3.9-26.9-5.7c-1.1-0.2-2.1-1.2-3.2-1.4c-3.4-0.8-6.9-0.4-10.3-1
		c-4.6-0.9-9-2.9-13.7-3.6c-9.4-1.5-19.5-3.6-29.1-5c-2.5-0.4-5.4-0.9-7.7-0.8c-1.3,0-2.5,0.9-3.8,0.9c-3.6,0-7.2-1.2-10.7-1.1
		c2.5,1.6,7,1.4,10.5,1.3c3.8-0.1,8.6,1.5,13,2.1c4.8,0.6,9.5,1.1,14.2,1.9c4.5,0.8,8.8,2.3,13.2,3.3c3.7,0.8,7.5,1,11.2,1.7
		c4.2,0.8,8.4,1.9,12.5,2.7c10.1,1.8,19.7,3.4,30.2,5.7C474.9,437,475,436.7,475.3,436.7z M472.8,449.7c-4.7-4.1-13.6-5.1-20.4-4.4
		c2,1.6,5.1,1.4,8.1,2C464.6,448.1,469.1,449.5,472.8,449.7z M446.8,444.6c0-0.6-0.6-0.7-1.1-0.7
		C445.7,444.9,446.2,444.7,446.8,444.6z M444.7,444.1c-2.4-1.8-6.4-1.6-9-2.1C437.5,444.2,441.9,444,444.7,444.1z M435.4,442.3
		c-0.1-0.4-0.4-0.5-0.4-0.9c-6.4-1-12.6-3.5-18.8-3.7C421.9,440.7,429.1,441.9,435.4,442.3z M414.5,437.9c-0.5-1.4-3.3-1.9-4.2-0.6
		C411.9,437.2,413.5,438.3,414.5,437.9z M402.9,435.6c0.1-0.5-0.2-0.5-0.2-0.9c-5.7-2.3-12.4-1.9-18.6-2.5c-2.3-0.2-4.5-1.8-6.7-1.9
		c-2.5-0.2-5.4,1.3-7.2-1.1c-26-1.3-60.8-8.8-87.3-7.8c1.5,1.6,3.2,0.8,4.9,0.9c8.8,0.7,18,1.1,26.6,2.5c1,0.2,2,1,3,1.1
		c1,0.1,2.1-0.5,3.1-0.4c1,0.1,1.8,1,2.8,1.1c1.2,0.2,2.4-0.2,3.5,0c7.9,1,15.8,2.9,23.7,4.1c16.7,2.3,33.8,2.8,51.8,4.9
		C402.4,435.5,402.7,435.6,402.9,435.6z M368.5,418.5c-0.1-0.3-0.2-0.5-0.4-0.6c-5.8,0.1-11.4-2.6-17-3c-2.6-0.2-6.1,0.6-8.6-1.5
		c-1.3,0.2-2.4,0.6-4,0.3c5.7,2.4,12.5,2.8,18.6,3.4C361.1,417.4,364.8,420,368.5,418.5z M344.5,420.2c-0.5-0.1-0.9,0-1.2,0.2
		C343.3,421.3,344.7,421.3,344.5,420.2z M340.3,420.5c0.2-1-0.8-1.1-1.1-0.7C339.1,420.5,339.7,420.5,340.3,420.5z M335.9,419.6
		c-0.1-1.6-2.2-1.3-3.2-1.1C333.1,419.6,334.6,419.5,335.9,419.6z M327.3,418.4c0.1-1.1-1.6-1.2-2.1-0.7
		C325.2,418.7,326.5,418.2,327.3,418.4z M323.8,417.9c-0.2-0.6-1.2-0.9-1.6-0.4C322.3,418.1,323.3,418.4,323.8,417.9z M318.4,416.6
		c-0.6,0-1.2-0.1-1.9-0.1c0,0.2,0,0.4,0,0.6C317.1,416.9,318.5,417.8,318.4,416.6z M303.3,418.4c-2.1-2.5-6.8-0.5-9.6-0.7
		C296,418.4,300.8,419.1,303.3,418.4z M292.8,417.7c-0.7-1.3-5.3-2-5.9-0.1C288.7,418,291,418,292.8,417.7z M280.9,421.8
		c-0.7-0.6-3-0.6-3.7-0.3C277.7,422.8,279.9,421.8,280.9,421.8z M275.5,421.7c0.1-0.5-0.2-0.5-0.2-0.9c-9.5-1.3-20.5-1.4-29.2-1.8
		c2.2,0.9,4.6,1.3,7,1.4c1.7,0,3.6-0.5,5.2-0.2c0.9,0.2,1.8,0.9,2.8,1.1C265.6,422,270.5,421.9,275.5,421.7z M275.1,416.4
		c-0.4-1-1.3-0.5-2.1-0.4C272.9,417.3,274.7,417.1,275.1,416.4z M272.7,416.5c0.1-0.3,0-0.5-0.2-0.6c-4.7-0.9-8.6-0.9-12.6-0.6
		C263.6,416.9,269.3,417.5,272.7,416.5z M255.4,415.6c0-0.3,0-0.6,0-0.9c-0.7,0-1.7-0.3-2.1,0.1
		C253.4,415.8,254.7,415.4,255.4,415.6z M252.8,415.4c0.1-0.5-0.2-0.5-0.2-0.9c-0.6-0.3-3.1-1.1-3.1,0.4
		C250.8,414.9,251.6,416.1,252.8,415.4z M247.9,415c0-0.3,0-0.6,0-0.9c-0.8-0.1-1.6-0.1-2.3-0.2C245.9,414.9,246.9,415,247.9,415z
		 M244.9,414.2c-1.1-0.7-3.3-1.2-4.9-0.6C240.9,415,243.3,414.3,244.9,414.2z M242.8,419c0.1-0.5-0.2-0.5-0.2-0.9
		c-1.6,0.9-4.2-1.9-5.2,0.2C238.9,419,241.6,419,242.8,419z M239.5,413.8c-7.3-2.4-15.7-2.2-23.5-3.2
		C223.3,412.8,231.4,413.2,239.5,413.8z M237,418c-3.2-1.7-8.5-1.2-11.6-1.7C228,417.9,233.5,418.9,237,418z M223.7,416.8
		c-1.3-1.8-4.4-1.6-6.3-1.3C219.5,416.5,221,416.5,223.7,416.8z M199.2,413.9c0-0.9-1.9-1-1.7,0.2
		C198.2,414.1,198.9,414.2,199.2,413.9z M193.1,408.4c-0.2-1.1-2-0.7-2.6-0.5C190.7,409,192.6,408.8,193.1,408.4z M192,413.3
		c-0.2-1.1-2-1.3-2.8-0.8C189.4,413.7,191,413.1,192,413.3z M157.4,410.8c0-1-1.6-0.7-1.6,0.2C156.4,411.1,157.1,411.2,157.4,410.8z
		 M144.7,405.5c0.1-0.5-0.2-0.5-0.2-0.9c-0.7-0.3-0.7,0.4-1.2,0.5C143.3,405.9,144.4,405.9,144.7,405.5z M132.1,404.3
		c0-0.7-0.8-0.6-1.4-0.7C130.5,404.7,131.7,404.1,132.1,404.3z"/>
	<path class="st4" d="M583.9,479.1c2.5-0.1,4.1-0.4,5.9,0.8C587.4,480.2,585.4,480,583.9,479.1z M557.2,480
		c-0.1-0.8-1.1-0.4-1.9-0.4C555.2,480.7,556.6,479.9,557.2,480z M507.2,523.1c-4.7-0.9-10,0.4-14.4-1.1c8.8-1,18.6-1.6,28.5-3.7
		c-0.1-2.2,2.3-2.1,2.9-3.7c-0.2-2-2.8-0.9-4.1-1.6c-0.4-1.2,1.2-0.5,0.9-1.5c-0.9,0-2.1,0.4-2.7,0c-1.4-2.5-5.4-1.3-6.6-3.3
		c-9.7,0-19.3,1.6-27.8-0.1c-3.5,0.2-9.1,1.1-12.2-0.2c5-1.3,10.9,0.4,16.6-0.5c3.1-0.5,6.2-1.8,9.2-0.3c4.8-2,10.7-1.5,15.6-3.5
		c1.3,0.2,0.2-1.7,1.2-1.8c2.4-0.2,5.7-0.2,7.8-1.3c-0.5-1.4-2.8-0.6-3.3-1.9c2.9-0.3,4.1-2.1,6.9-2.4c-0.2-1.3-2.1-0.4-2.7-1.1
		c1.6-1,4.5-0.2,7.3-1c-3.1-3.7-11.1-1.1-16.3-2.1c9.1-3.5,19.3-0.5,29.5-2.4c1.4,0.1,0.1-0.6,0.7-1.2c1.1-0.1,1.9,0.3,3.2,0
		c-1.5-1.7-4.2-0.5-6.4-0.5c-5.4,0-9.6-0.9-14.5-2c1.6-3.4,7.2-2,12.5-2.4c2.9-0.2,4.9-0.9,6.6,0.2c4.4-1.3,9.1,2.3,13.5-0.2
		c-2.7-2.5-9.2-0.3-11.4-3.4c-0.4-1.6,1.6-0.1,1.2-1.3c-7.5-2.1-15.4,0.3-22.7-2c3.9-1.1,7.9,0.1,11.9,0c2.9-0.1,5.8-1,8.7-0.9
		c3.6,0.1,7,1.7,10.5,1.5c3.4-0.2,6.8-1.8,10.2-1c-2.7-1.8-5.7-1.9-9.4-1.6c-3.7,0.3-7.7-1.6-11.8-1.7c-5.5,0-10.7,1.4-15.6-0.1
		c2.2-1.2,4.2,0.3,6.4,0.2c2.5-0.1,5-1.3,7.6-1.3c6.4-0.2,12.8,3.4,19.9,0.3c0.5-0.5,0.2-1.7,0.6-2.3c9.7-1.4,16.2,4.4,25.5,3.4
		c1.3-1,1.4-3.1,2.5-4.2c-0.5-2.8,0.5-4.3,1.4-5.8c-0.7-2.4-0.1-3.6,0.6-5.2c0.1-1.4-1.2-1-1.2-2.1c2.4-0.9,1.8-3.5,2-7
		c0.1-1.4,1-3,1-4.1c0.2-11.7-7.3-9.7-16.1-12c-7.1-1.8-12.4-2.5-19.5-2.3c-3.2,0.1-6.7-0.7-9.4-1.1c-5.7-0.8-11.1,0.3-16.9,0.3
		c-6.8,0-13.1-1-19.8,0.3c-11.2,2.1-22.3,2.8-33.7,2.2c-5.1-0.2-10.4-0.5-15.7-0.7c-4.8-0.1-9.5,0.8-14.2,0.8
		c-6.7,0.1-13.2-0.2-19.8,0.3c-6,0.5-12,0-17.5,0c-13.2,0.2-25.2,1.3-38.3,0.7c-4.7-0.2-9.5-0.6-14.1-0.6c-4.3,0-8.7,0.9-13.2,1
		c-5.4,0.1-10.9-0.3-16.1,0.2c-11.8,1.2-23.4,2.8-35.2,3.5c-7.8,0.5-15.4,1.2-23.2,1.7c-32.3,2.3-64.9,0.2-96.1,3.6
		c-9.2,1-21,2.1-30.3,1.6c-7.5-0.4-15.4,1-23,0.6c-16-0.8-32.7-0.4-49.1-1.4c-3.5-0.2-7.2-0.6-10.6-0.6c-6.7-0.2-14.3,2.2-20.8,1.2
		c-1.6-0.2-2.9-1.4-4.6-0.7c-0.3,0.6-0.7,1.1-1.2,1.5c0.2,4,1.8,6,3.4,8.2c-0.1,3.2,1.2,5.8,1.3,8.7c0,0.9-0.6,1.5-0.6,2.3
		c0,0.4,0.4,1,0.4,1.7c0.1,2.1,0.6,2.8,0.9,4.7c0.9,5.2,0.4,10.7,3.4,15c0.4,1.2-0.4,1.4-0.6,2.1c0.1,1.3,1.5,1,1.8,2.1
		c-3.1,1.9-2.4,10.9-0.1,13.6c-0.9,3.9-1.3,8.9,0.8,12.4c-0.6,1.7-0.2,4.2,0.5,5.9c-1.7,3.5,0.2,9.1,2.1,11.7
		c4.9,3,10.7,2.7,16.1,2.4c30.3-1.7,62.9,1.4,94.4,0.8c18.1-0.3,37.5-4.1,56.4-3.6c3.4,0.1,6.3,0.3,10.6,0.1c10.1-0.5,20.1,1.1,31,0
		c13.9-1.3,29.5-3.3,42.1-3.6c12-0.3,24.6-1.5,36.5-3.6c5.9-1,11.1-0.1,16.4-0.2c6.7-0.1,13.4-2,19.3-0.2c15.7-0.9,30,0.7,47.1-0.1
		c3.2-0.2,6.5,0.4,9.5,0.2c19.9-1.3,39.7-1.6,58.5-0.1C494.5,523.3,501.8,525,507.2,523.1z M541.8,488.7c-0.3-0.8,0.5-0.6,1-0.7
		c0,0.3,0,0.6,0.1,0.8C542.4,488.9,542.1,488.9,541.8,488.7z M527.1,472c0.9,0,3.2-0.2,2.5,0.9C529.1,472.2,527.3,473.1,527.1,472z"
		/>
</g>
</svg>
