<?xml version="1.0" encoding="utf-8"?>
<!-- Generator: Adobe Illustrator 21.0.2, SVG Export Plug-In . SVG Version: 6.00 Build 0)  -->
<!DOCTYPE svg PUBLIC "-//W3C//DTD SVG 1.1//EN" "http://www.w3.org/Graphics/SVG/1.1/DTD/svg11.dtd">
<svg version="1.1" id="Layer_1" xmlns="http://www.w3.org/2000/svg" xmlns:xlink="http://www.w3.org/1999/xlink" x="0px" y="0px"
	 viewBox="0 0 1600 209.6" style="enable-background:new 0 0 1600 209.6;" xml:space="preserve">
<style type="text/css">
	.st0{fill:#1A1A1A;}
</style>
<g>
	<path class="st0" d="M0,1.6c4.8,17.6,20.8,36.8,41.6,41.6h65.6l3.2,1.6v164.8h40V44.8l3.2-1.6h65.6c22.4-6.4,36.8-24,41.6-41.6l0,0
		L0,1.6L0,1.6z"/>
	<path class="st0" d="M1244.8,209.6c20.8-8,32-24,35.2-41.6h-180.8V0h-40v208h185.6L1244.8,209.6L1244.8,209.6z"/>
	<path class="st0" d="M756.8,43.2h144c20.8-6.4,40-22.4,43.2-41.6H716.8v123.2h185.6V168H756.8c-22.4,6.4-41.6,22.4-51.2,41.6h11.2
		H944V84.8H756.8V43.2z"/>
	<polygon class="st0" points="1366.4,84.8 1366.4,209.6 1408,209.6 1408,126.4 1553.6,126.4 1553.6,209.6 1595.2,209.6 1595.2,84.8 
			"/>
	<path class="st0" d="M403.2,43.2h155.2c20.8-4.8,38.4-24,41.6-41.6H360C366.4,20.8,382.4,38.4,403.2,43.2"/>
	<path class="st0" d="M403.2,126.4h155.2c20.8-4.8,38.4-24,41.6-41.6H360C366.4,102.4,382.4,121.6,403.2,126.4"/>
	<path class="st0" d="M403.2,209.6h155.2c20.8-4.8,38.4-24,41.6-41.6H360C366.4,187.2,382.4,206.4,403.2,209.6"/>
	<path class="st0" d="M1403.2,43.2h155.2c20.8-4.8,38.4-24,41.6-41.6h-240C1364.8,20.8,1380.8,40,1403.2,43.2"/>
</g>
</svg>
