<?xml version="1.0" encoding="utf-8"?>
<!-- Generator: Adobe Illustrator 21.0.2, SVG Export Plug-In . SVG Version: 6.00 Build 0)  -->
<!DOCTYPE svg PUBLIC "-//W3C//DTD SVG 1.1//EN" "http://www.w3.org/Graphics/SVG/1.1/DTD/svg11.dtd">
<svg version="1.1" id="Layer_1" xmlns:sketch="http://www.bohemiancoding.com/sketch/ns"
	 xmlns="http://www.w3.org/2000/svg" xmlns:xlink="http://www.w3.org/1999/xlink" x="0px" y="0px" viewBox="0 0 900 174"
	 style="enable-background:new 0 0 900 174;" xml:space="preserve">
<style type="text/css">
	.st0{fill:#1A1A1A;}
</style>
<title>The World Of X</title>
<desc>Created with Sketch.</desc>
<g sketch:type="MSLayerGroup">
	<path sketch:type="MSShapeGroup" class="st0" d="M813.2,0.9c-47.6,0-86.2,38.8-86.2,86.6s38.6,86.6,86.2,86.6s86.2-38.8,86.2-86.6
		S860.8,0.9,813.2,0.9z M871.8,87.4c0,10.8-2.9,21.2-8.3,30.2l-30.1-30.2l30.1-30.2C868.9,66.2,871.8,76.6,871.8,87.4z M843,36.7
		l-30,30.1l-29.8-29.9c9-5.4,19.3-8.3,30.1-8.3C823.9,28.6,834.1,31.4,843,36.7L843,36.7z M762.7,117.3c-5.3-9-8.1-19.2-8.1-29.9
		s2.8-20.9,8.1-29.9l29.7,29.9L762.7,117.3z M783.1,137.9l29.8-29.9l30,30.1c-8.9,5.3-19.1,8.1-29.7,8.1
		C802.5,146.2,792.1,143.3,783.1,137.9L783.1,137.9z"/>
	<path sketch:type="MSShapeGroup" class="st0" d="M35.4,38.8v119.5H15.3V38.8H0.9V18.6h49v20.2L35.4,38.8"/>
	<path sketch:type="MSShapeGroup" class="st0" d="M57.5,17.6h19.8v107.3l13.9-1.2V17.6h20.1v139.5H91.1V142l-13.9,1v14.1H57.5V17.6"
		/>
	<path sketch:type="MSShapeGroup" class="st0" d="M140.7,125.6v11.1H167v20.2h-46.4V17.6H167v20.2h-26.3v69.6l15.1-1.2v18.3
		L140.7,125.6"/>
	<path sketch:type="MSShapeGroup" class="st0" d="M289.9,158.1H254c-14.9,0.2-26.3-1.6-34.1-5.6c-4.5-2.3-6.8-5.7-6.8-10.2V18.6
		h19.8v120c0.6,2.9,3.2,4.1,8,3.7V18.6H261v120c2.1,2.3,4.2,3.5,6.4,3.5c0.7,0,1.5,0.1,2.4,0.2V18.6h20.1V158.1"/>
	<path sketch:type="MSShapeGroup" class="st0" d="M311.4,17.4h25.3c3.5,0,6.4,1.2,8.9,3.7c2.5,2.5,3.7,5.5,3.7,9v114.6
		c0,3.5-1.2,6.5-3.7,9c-2.5,2.5-5.5,3.7-8.9,3.7h-25.3c-3.6,0-6.6-1.2-9-3.7c-2.4-2.4-3.6-5.4-3.6-9V30.1c0-3.6,1.2-6.6,3.6-9
		S307.8,17.4,311.4,17.4L311.4,17.4z M317.6,142.5h12.8V32h-12.8V142.5z"/>
	<path sketch:type="MSShapeGroup" class="st0" d="M359.4,18.3h19.8v0.2c4.9,0.2,9.8,0.3,14.8,0.3c6.3,2.3,9.9,6.8,11,13.4
		c3.5,20.6,4.9,46.1,4.4,76.4c-0.1,7.4-3.2,12.8-9.2,16l-2.1,0.9l15.8,33.2L395,168.8L380.2,134l-1,0.5v23.3h-19.8L359.4,18.3
		L359.4,18.3z M379.1,42.3v65.4l6.3-2.8c2.9-1.6,4.5-3.9,4.6-6.8c0.5-9.9,0.5-18.4,0.2-25.6c-0.4-7.5-1.6-16.1-3.7-25.6
		c-0.6-2.8-2.3-4.3-5.3-4.7L379.1,42.3L379.1,42.3z"/>
	<path sketch:type="MSShapeGroup" class="st0" d="M419.3,17.6h20.1v119.3h29.5v20.2h-49.6L419.3,17.6"/>
	<path sketch:type="MSShapeGroup" class="st0" d="M478,19h0.7v-0.5l7.4,0.3c2.5,0.1,5,0.2,7.6,0.2h4.1c4.9,0.2,9.8,0.3,14.6,0.3
		c6.3,2.6,9.9,7,11,13.4c3.7,22.7,5.2,56.1,4.4,100c-0.1,7.4-3.2,12.8-9.2,16c-6.9,3.7-13.5,6.3-19.8,7.7
		c-5.2,1.2-12.1,1.8-20.8,1.9L478,19L478,19z M497.7,36.4l0.2,101.9l6.2-3c2.8-1.3,4.2-3.6,4.3-6.9c0.1-3.3,0.3-9.4,0.5-18.2
		c0.1-17.4-0.4-34.3-1.4-50.6c-0.6-7.5-1.4-13.7-2.5-18.4c-0.7-2.9-2.5-4.5-5.5-4.9L497.7,36.4L497.7,36.4z"/>
	<path sketch:type="MSShapeGroup" class="st0" d="M586.2,17.4h25.3c3.5,0,6.4,1.2,8.9,3.7c2.5,2.5,3.7,5.5,3.7,9v114.6
		c0,3.5-1.2,6.5-3.7,9c-2.5,2.5-5.5,3.7-8.9,3.7h-25.3c-3.6,0-6.6-1.2-9-3.7c-2.4-2.4-3.6-5.4-3.6-9V30.1c0-3.6,1.2-6.6,3.6-9
		C579.6,18.6,582.6,17.4,586.2,17.4L586.2,17.4z M592.4,142.5h12.8V32h-12.8V142.5z"/>
	<path sketch:type="MSShapeGroup" class="st0" d="M654.1,125.6v31.5h-19.8V17.6h46.3v20.2h-26.5v69.6l15.2-1.2v18.3L654.1,125.6"/>
</g>
</svg>
