<?xml version="1.0" encoding="utf-8"?>
<!-- Generator: Adobe Illustrator 21.0.2, SVG Export Plug-In . SVG Version: 6.00 Build 0)  -->
<!DOCTYPE svg PUBLIC "-//W3C//DTD SVG 1.1//EN" "http://www.w3.org/Graphics/SVG/1.1/DTD/svg11.dtd">
<svg version="1.1" id="Layer_1" xmlns="http://www.w3.org/2000/svg" xmlns:xlink="http://www.w3.org/1999/xlink" x="0px" y="0px"
	 viewBox="0 0 302.3 79.3" style="enable-background:new 0 0 302.3 79.3;" xml:space="preserve">
<style type="text/css">
	.st0{fill:#1A1A1A;}
</style>
<path class="st0" d="M12.9,1.4l8.6,24.9h0.1l8.8-24.9h12.5v0.7h-4.6v34.2h4.6V37H26.5v-0.7H31V2.1h-0.1L18.6,37h-0.8L5.5,2.1H5.4
	v34.2H10V37H0v-0.7h4.6V2.1H0V1.4H12.9z"/>
<path class="st0" d="M61.2,1.4v0.7h-4.6v34.2h4.6V37H44.7v-0.7h4.6V2.1h-4.6V1.4H61.2z"/>
<path class="st0" d="M64.5,25.9c0.1,0.4,0.2,0.9,0.3,1.6c0.2,0.6,0.4,1.4,0.7,2.1c0.3,0.8,0.7,1.5,1.2,2.3c0.5,0.8,1.1,1.5,1.8,2.2
	c0.8,0.8,1.5,1.3,2.2,1.8c0.7,0.4,1.4,0.7,2.1,0.9c0.6,0.2,1.3,0.3,1.9,0.3c0.6,0,1.1,0,1.6,0c1.8,0,3.2-0.3,4.3-0.8
	c1.1-0.5,2-1.2,2.7-2c0.6-0.8,1.1-1.6,1.4-2.5c0.3-0.9,0.4-1.7,0.4-2.3c0-1.2-0.3-2.2-0.9-3c-0.6-0.8-1.4-1.5-2.3-2
	c-1-0.5-2.1-1-3.3-1.4c-1.2-0.4-2.5-0.7-3.8-1.1c-1.3-0.4-2.6-0.8-3.8-1.4c-1.2-0.5-2.3-1.2-3.3-2c-1-0.8-1.7-1.8-2.3-3
	c-0.6-1.2-0.9-2.7-0.9-4.5c0-1.3,0.3-2.6,0.9-3.8c0.6-1.2,1.4-2.3,2.5-3.3c1.1-1,2.3-1.7,3.8-2.3c1.5-0.6,3.1-0.9,4.8-0.9
	c1.1,0,2.1,0.1,2.9,0.3s1.6,0.4,2.2,0.6c0.6,0.2,1.2,0.4,1.7,0.6c0.5,0.2,0.9,0.3,1.3,0.3c0.5,0,0.8-0.1,0.9-0.2
	c0.1-0.2,0.3-0.4,0.5-0.8h0.8v9.5h-0.6c-0.4-1.2-0.8-2.3-1.3-3.4c-0.5-1.1-1-2.2-1.7-3.1c-0.7-0.9-1.6-1.7-2.6-2.2
	c-1.1-0.6-2.4-0.9-4.1-0.9c-1.3,0-2.5,0.2-3.5,0.6c-1,0.4-1.9,0.9-2.6,1.5c-0.7,0.6-1.2,1.3-1.6,2c-0.4,0.7-0.6,1.5-0.6,2.2
	c0,1.2,0.3,2.1,0.9,2.9c0.6,0.8,1.4,1.4,2.4,2s2.1,1,3.4,1.4c1.3,0.4,2.6,0.8,3.9,1.2c1.4,0.4,2.7,0.9,4,1.4c1.3,0.5,2.4,1.2,3.4,2
	s1.8,1.8,2.4,2.9c0.6,1.1,0.9,2.5,0.9,4.2c0,1.6-0.3,3.2-1,4.6c-0.7,1.5-1.6,2.7-2.8,3.9c-1.2,1.1-2.7,2-4.3,2.6
	c-1.7,0.7-3.6,1-5.6,1c-1,0-2.1-0.1-3.1-0.3c-1-0.2-2-0.4-2.9-0.6c-0.9-0.2-1.7-0.4-2.3-0.6s-1.2-0.3-1.5-0.3c-0.5,0-0.8,0.1-1,0.2
	c-0.2,0.2-0.4,0.5-0.5,0.9h-0.8V25.9H64.5z"/>
<path class="st0" d="M101,2.1c-1.2,0-2.3,0.1-3.3,0.4c-1,0.2-1.8,0.7-2.6,1.3c-0.8,0.6-1.4,1.5-2.1,2.6c-0.6,1.1-1.2,2.5-1.7,4.2
	h-0.6V1.4h31.3v9.1h-0.6c-0.5-1.7-1.1-3.1-1.7-4.2s-1.3-2-2.1-2.6c-0.8-0.6-1.6-1-2.6-1.3c-1-0.2-2.1-0.4-3.3-0.4h-1.8v34.2h4.6V37
	H98.2v-0.7h4.6V2.1H101z"/>
<path class="st0" d="M122,36.3L136.9,0h1.4L154,36.3h4.3V37h-16.8v-0.7h4.6l-5.8-13.4h-12l-5.5,13.4h4.4V37h-9.4v-0.7H122z
	 M128.6,22.2h11.5l-5.9-13.6L128.6,22.2z"/>
<path class="st0" d="M174.3,1.4v0.7h-4.6v16h0.4l15.3-16h-5.1V1.4h10v0.7h-4l-11.1,11.7l17.3,22.5h3.1V37h-16.7v-0.7h4.5l-13.3-17.5
	h-0.4v17.5h4.6V37h-16.4v-0.7h4.6V2.1h-4.6V1.4H174.3z"/>
<path class="st0" d="M225.1,1.4v8.6h-0.6c-0.2-0.6-0.4-1.3-0.9-2.2c-0.4-0.9-1-1.7-1.7-2.6c-0.7-0.8-1.6-1.6-2.8-2.2
	c-1.1-0.6-2.5-0.9-4.1-0.9H207v15.4h2.8c1.2,0,2.3-0.2,3.1-0.5c0.9-0.4,1.6-0.9,2.1-1.5s1-1.4,1.4-2.4c0.4-0.9,0.7-1.9,0.9-3.1h0.6
	v15.6h-0.6c-0.2-1-0.5-1.9-0.8-2.8c-0.3-0.9-0.7-1.7-1.3-2.4c-0.5-0.7-1.2-1.2-2-1.6c-0.8-0.4-1.8-0.6-2.9-0.6H207v18h8.2
	c1.5,0,2.9-0.3,4.1-0.8c1.2-0.5,2.3-1.2,3.3-2.2c0.9-0.9,1.7-2,2.4-3.3c0.6-1.2,1.1-2.6,1.4-4h0.6v11h-31.9v-0.7h4.6V2.1h-4.6V1.4
	H225.1z"/>
<path class="st0" d="M241,1.4l16.6,23.8h0.1V2.1h-4.6V1.4h10v0.7h-4.6V37h-1.4L234.7,5h-0.1v31.3h4.6V37h-10v-0.7h4.6V2.1h-4.6V1.4
	H241z"/>
<g>
	<path class="st0" d="M277,13.2c0.3-1,0.7-2,1.2-2.9c0.5-0.9,1.1-1.7,1.8-2.4c0.7-0.7,1.4-1.2,2.2-1.6c0.8-0.4,1.6-0.6,2.3-0.6
		c0.5,0,0.9,0.1,1.2,0.2c0.3,0.1,0.6,0.3,0.8,0.5c0.2,0.2,0.4,0.4,0.5,0.7c0.1,0.2,0.1,0.5,0.1,0.7c0,0.3-0.1,0.6-0.3,0.9
		c-0.2,0.3-0.5,0.5-1,0.5c-0.4,0-0.7-0.1-0.9-0.2c-0.2-0.2-0.3-0.3-0.3-0.5c0-0.2,0-0.3,0.1-0.5c0.1-0.1,0.1-0.3,0.2-0.4
		c0.1-0.1,0.2-0.2,0.2-0.3c0.1-0.1,0.1-0.2,0.1-0.4c0-0.3-0.1-0.5-0.3-0.6c-0.2-0.1-0.4-0.1-0.7-0.1c-0.8,0-1.5,0.3-2.1,0.8
		c-0.6,0.5-1.1,1.1-1.6,1.8c-0.4,0.7-0.8,1.4-1.1,2.2c-0.3,0.7-0.5,1.3-0.6,1.8l-0.6,2.1h3.3l-0.1,0.4h-3.3l-2.4,9.2
		c-0.3,1.2-0.7,2.3-1.2,3.4c-0.5,1.1-1,2-1.6,2.9c-0.6,0.8-1.3,1.5-2,2c-0.7,0.5-1.5,0.7-2.3,0.7c-0.2,0-0.5,0-0.7-0.1
		c-0.3-0.1-0.5-0.1-0.7-0.3c-0.2-0.1-0.4-0.3-0.5-0.5c-0.1-0.2-0.2-0.5-0.2-0.9c0-0.3,0.1-0.6,0.3-0.9c0.2-0.3,0.5-0.4,1-0.4
		c0.2,0,0.4,0,0.6,0.1c0.1,0.1,0.2,0.3,0.2,0.6c0,0.2,0,0.4-0.1,0.6c-0.1,0.2-0.1,0.4-0.1,0.7c0,0.2,0.1,0.4,0.2,0.5
		c0.2,0.1,0.3,0.2,0.6,0.2c0.8,0,1.5-0.5,2.2-1.6c0.7-1,1.4-2.7,2-5l3-11.2h-2.6l0.1-0.4h2.6L277,13.2z"/>
	<path class="st0" d="M280.4,19c0.5-0.9,1-1.8,1.7-2.5c0.7-0.7,1.5-1.2,2.3-1.6c0.8-0.4,1.7-0.6,2.4-0.6c0.7,0,1.3,0.1,1.8,0.4
		c0.5,0.3,1,0.7,1.3,1.1c0.3,0.5,0.6,0.9,0.8,1.5s0.2,1.1,0.2,1.6c0,1-0.2,2-0.7,3c-0.5,0.9-1,1.7-1.7,2.5c-0.7,0.7-1.4,1.3-2.3,1.7
		c-0.8,0.4-1.6,0.6-2.4,0.6c-0.6,0-1.2-0.1-1.7-0.4c-0.5-0.3-1-0.6-1.3-1c-0.4-0.4-0.7-0.9-0.9-1.4c-0.2-0.5-0.3-1.1-0.3-1.7
		C279.7,21,279.9,19.9,280.4,19z M282.1,25.6c0.4,0.4,1,0.7,1.7,0.7c0.6,0,1.1-0.2,1.6-0.5c0.5-0.3,0.9-0.8,1.3-1.3
		c0.4-0.5,0.7-1.1,1.1-1.8c0.3-0.6,0.6-1.3,0.8-1.9c0.2-0.6,0.4-1.3,0.5-1.8c0.1-0.6,0.2-1,0.2-1.4c0-0.9-0.2-1.6-0.6-2.1
		c-0.4-0.5-1-0.8-1.9-0.8c-0.5,0-1,0.2-1.5,0.5c-0.5,0.3-0.9,0.7-1.3,1.2c-0.4,0.5-0.7,1.1-1,1.7c-0.3,0.6-0.6,1.3-0.8,1.9
		c-0.2,0.7-0.4,1.3-0.5,1.9c-0.1,0.6-0.2,1.2-0.2,1.6C281.5,24.5,281.7,25.1,282.1,25.6z"/>
	<path class="st0" d="M294.7,16.5c0.1-0.5,0.3-1,0.4-1.5h-2.4l0.1-0.4h4.2c-0.1,0.4-0.2,0.9-0.4,1.4c-0.2,0.6-0.4,1.1-0.6,1.7
		l0.1,0.1c0.2-0.3,0.4-0.6,0.7-1c0.3-0.4,0.6-0.7,0.9-1.1c0.3-0.4,0.7-0.6,1.1-0.9c0.4-0.2,0.9-0.4,1.3-0.4c0.7,0,1.2,0.2,1.5,0.6
		c0.4,0.4,0.5,0.8,0.5,1.2c0,0.3,0,0.5-0.1,0.7c-0.1,0.2-0.2,0.3-0.4,0.4c-0.2,0.1-0.3,0.2-0.5,0.2c-0.2,0-0.3,0.1-0.5,0.1
		c-0.3,0-0.5-0.1-0.6-0.2c-0.2-0.1-0.2-0.3-0.2-0.6c0-0.2,0-0.3,0.1-0.4c0.1-0.1,0.2-0.2,0.3-0.3c0.1-0.1,0.2-0.2,0.3-0.3
		c0.1-0.1,0.1-0.3,0.1-0.4c0-0.2-0.1-0.3-0.2-0.4c-0.1-0.1-0.3-0.2-0.5-0.2c-0.3,0-0.7,0.2-1.2,0.5c-0.4,0.4-0.9,0.8-1.3,1.4
		c-0.4,0.6-0.9,1.2-1.3,1.9c-0.4,0.7-0.7,1.4-1,2.1l-1.9,5.5h-1.9l2.9-8.3C294.4,17.5,294.6,17,294.7,16.5z"/>
</g>
<path class="st0" d="M2.2,67.5c0.1,0.4,0.2,0.9,0.3,1.6c0.2,0.7,0.4,1.3,0.7,2.1C3.6,72,4,72.7,4.5,73.5C5,74.3,5.6,75,6.3,75.7
	C7,76.5,7.8,77,8.5,77.4s1.4,0.7,2.1,0.9c0.6,0.2,1.3,0.3,1.9,0.3c0.6,0,1.1,0,1.6,0c1.8,0,3.2-0.3,4.3-0.8c1.1-0.6,2-1.2,2.7-2
	s1.1-1.6,1.4-2.5c0.3-0.9,0.4-1.7,0.4-2.3c0-1.2-0.3-2.2-0.9-3.1s-1.4-1.5-2.3-2c-1-0.5-2.1-1-3.3-1.3c-1.2-0.4-2.5-0.7-3.8-1.1
	c-1.3-0.4-2.6-0.8-3.8-1.3c-1.2-0.5-2.3-1.2-3.3-2c-1-0.8-1.7-1.8-2.3-3s-0.9-2.7-0.9-4.5c0-1.3,0.3-2.6,0.9-3.8
	c0.6-1.2,1.4-2.3,2.5-3.3c1.1-1,2.3-1.7,3.8-2.3c1.5-0.6,3.1-0.9,4.8-0.9c1.1,0,2.1,0.1,2.9,0.3c0.8,0.2,1.6,0.4,2.2,0.6
	c0.6,0.2,1.2,0.4,1.7,0.6c0.5,0.2,0.9,0.3,1.3,0.3c0.5,0,0.8-0.1,0.9-0.2c0.1-0.2,0.3-0.4,0.5-0.8h0.8v9.5h-0.6
	c-0.4-1.2-0.8-2.3-1.3-3.5c-0.5-1.1-1-2.2-1.7-3.1s-1.6-1.7-2.6-2.2c-1.1-0.6-2.4-0.8-4.1-0.8c-1.3,0-2.5,0.2-3.5,0.5
	c-1,0.4-1.9,0.8-2.6,1.5c-0.7,0.6-1.2,1.3-1.6,2c-0.4,0.7-0.6,1.5-0.6,2.2c0,1.2,0.3,2.1,0.9,2.9c0.6,0.8,1.4,1.4,2.4,2
	s2.1,1,3.4,1.4c1.3,0.4,2.6,0.8,4,1.2c1.4,0.4,2.7,0.9,4,1.4c1.3,0.5,2.4,1.2,3.4,2s1.8,1.8,2.4,2.9c0.6,1.1,0.9,2.5,0.9,4.2
	c0,1.6-0.3,3.2-1,4.7c-0.7,1.5-1.6,2.8-2.8,3.8c-1.2,1.1-2.7,2-4.4,2.6c-1.7,0.7-3.6,1-5.6,1c-1,0-2.1-0.1-3.1-0.3
	c-1-0.2-2-0.4-2.8-0.6C6.8,78.2,6,78,5.3,77.8c-0.7-0.2-1.2-0.3-1.5-0.3c-0.5,0-0.8,0.1-1,0.2s-0.4,0.5-0.5,0.9H1.4V67.5
	C1.4,67.5,2.2,67.5,2.2,67.5z"/>
<path class="st0" d="M38.8,43.7c-1.2,0-2.3,0.1-3.3,0.4s-1.8,0.7-2.6,1.3c-0.8,0.6-1.5,1.5-2,2.6c-0.6,1.1-1.1,2.5-1.6,4.2h-0.6V43
	h31.4v9.2h-0.7c-0.5-1.7-1-3.1-1.7-4.2c-0.6-1.1-1.3-2-2-2.6c-0.8-0.6-1.6-1-2.6-1.3c-1-0.2-2.1-0.4-3.3-0.4h-1.8v34.2h4.6v0.7H35.9
	v-0.7h4.6V43.7C40.5,43.7,38.8,43.7,38.8,43.7z"/>
<path class="st0" d="M61.7,43.7V43h7.6c1.4,0,2.8,0,4.2-0.1c1.4,0,2.8-0.1,4.1-0.1c1.3,0,2.7,0.1,4.1,0.4c1.4,0.3,2.8,0.7,4,1.4
	c1.2,0.7,2.2,1.5,3,2.6c0.8,1.1,1.2,2.5,1.2,4.2c0,1.3-0.3,2.5-0.9,3.4c-0.6,1-1.4,1.7-2.3,2.3c-0.9,0.6-2,1.1-3.2,1.4
	c-1.2,0.3-2.3,0.5-3.4,0.6v0.2c1.6,0.3,3.1,0.6,4.4,0.9c1.3,0.3,2.4,0.8,3.3,1.3s1.7,1.4,2.2,2.5c0.6,1.1,0.9,2.5,1,4.3
	c0.2,2.1,0.3,3.8,0.4,5.1c0.1,1.3,0.2,2.2,0.4,2.9c0.2,0.7,0.4,1.2,0.8,1.4c0.3,0.2,0.8,0.3,1.4,0.3c0.7,0,1.2-0.2,1.6-0.6
	c0.4-0.4,0.8-0.7,1.2-1.1l0.5,0.4c-0.3,0.3-0.7,0.6-1,0.9c-0.3,0.3-0.7,0.5-1.1,0.7c-0.4,0.2-0.9,0.4-1.5,0.5s-1.3,0.2-2.2,0.2
	c-1.8,0-3.3-0.3-4.3-0.9c-1-0.6-1.8-1.3-2.3-2.2c-0.5-0.9-0.8-1.8-0.9-2.8c-0.1-1-0.2-2-0.2-2.9c-0.1-1.4-0.2-2.7-0.3-4
	c-0.1-1.3-0.4-2.4-0.8-3.4c-0.4-1-1.1-1.8-1.9-2.4c-0.9-0.6-2.1-0.9-3.6-0.9h-3.3v18h4.6v0.7H61.7v-0.7h4.6V43.7L61.7,43.7
	L61.7,43.7z M75.6,59.2c1.5,0,2.7-0.2,3.6-0.6c0.9-0.4,1.5-0.9,1.9-1.6c0.4-0.7,0.7-1.5,0.8-2.3c0.1-0.9,0.2-1.8,0.2-2.7
	c0-1.5-0.1-2.7-0.3-3.8c-0.2-1-0.5-1.9-1-2.6s-1.1-1.2-1.9-1.5c-0.8-0.3-1.9-0.5-3.1-0.5c-0.4,0-0.7,0-1.1,0c-0.4,0-0.7,0.1-1.1,0.1
	v15.5C73.6,59.2,75.6,59.2,75.6,59.2z"/>
<path class="st0" d="M100.3,77.9l14.9-36.3h1.4l15.8,36.3h4.3v0.7h-16.8v-0.7h4.6l-5.8-13.4h-12l-5.6,13.4h4.5v0.7h-9.5v-0.7H100.3z
	 M106.9,63.8h11.5l-5.9-13.7L106.9,63.8z"/>
<path class="st0" d="M147.7,43l16.6,23.8h0.1V43.7h-4.6V43h10v0.7h-4.6v34.9h-1.4l-22.5-32h-0.1v31.4h4.6v0.7h-10v-0.7h4.6V43.7
	h-4.6V43C135.9,43,147.7,43,147.7,43z"/>
<path class="st0" d="M200,53.2c-0.9-3.3-2.2-5.8-3.9-7.6c-1.7-1.8-4-2.7-6.9-2.7c-2.3,0-4.1,0.4-5.6,1.3c-1.4,0.9-2.5,2-3.2,3.5
	c-0.8,1.4-1.2,3-1.5,4.8c-0.2,1.8-0.4,3.7-0.4,5.5v4.3c0,3,0.2,5.6,0.6,7.6c0.4,2.1,1,3.7,1.9,5s1.9,2.2,3.3,2.7
	c1.4,0.6,3,0.8,4.8,0.8c1.5,0,2.8-0.3,3.6-0.8c0.9-0.6,1.6-1.3,2.1-2.2c0.5-0.9,0.8-2.1,0.9-3.4c0.1-1.3,0.2-2.7,0.2-4.2V66h-5.1
	v-0.7h15.5V66H203v11.4h-0.9c-0.1-0.4-0.3-0.7-0.6-0.9c-0.3-0.2-0.7-0.3-1.1-0.3c-0.8,0-1.6,0.2-2.3,0.5c-0.7,0.3-1.5,0.7-2.3,1
	c-0.8,0.4-1.8,0.7-2.9,1c-1.1,0.3-2.4,0.5-3.9,0.5c-2.4,0-4.8-0.5-7-1.4c-2.3-0.9-4.3-2.2-6-3.9c-1.7-1.7-3.1-3.6-4.1-5.8
	c-1-2.2-1.6-4.7-1.6-7.2c0-2.8,0.6-5.4,1.7-7.7c1.1-2.3,2.6-4.3,4.4-5.9c1.8-1.6,3.8-2.9,6-3.8c2.2-0.9,4.4-1.3,6.5-1.3
	c1,0,2,0.1,2.9,0.3c0.9,0.2,1.8,0.4,2.6,0.6c0.8,0.2,1.5,0.4,2.1,0.6s1.2,0.3,1.6,0.3c0.5,0,0.8-0.1,1-0.2c0.2-0.2,0.4-0.4,0.6-0.8
	h0.9v10.2L200,53.2L200,53.2z"/>
<path class="st0" d="M235.8,43v8.5h-0.6c-0.2-0.6-0.4-1.3-0.9-2.2c-0.4-0.9-1-1.7-1.7-2.6c-0.7-0.8-1.6-1.6-2.8-2.2
	c-1.1-0.6-2.5-0.9-4.1-0.9h-7.9v15.5h2.8c1.2,0,2.3-0.2,3.1-0.5c0.9-0.3,1.6-0.8,2.1-1.5s1-1.4,1.4-2.3c0.4-0.9,0.7-1.9,0.9-3.1h0.6
	v15.6h-0.6c-0.2-1-0.5-1.9-0.8-2.8c-0.3-0.9-0.7-1.7-1.3-2.4c-0.5-0.7-1.2-1.2-2-1.6c-0.8-0.4-1.8-0.6-2.9-0.6h-3.4v18.1h8.2
	c1.5,0,2.9-0.3,4.1-0.8c1.2-0.5,2.3-1.2,3.3-2.2c0.9-0.9,1.7-2,2.4-3.3c0.6-1.2,1.1-2.6,1.4-4h0.6v10.9h-31.9v-0.7h4.6V43.7h-4.6V43
	C205.9,43,235.8,43,235.8,43z"/>
<path class="st0" d="M239.9,43.7V43h7.6c1.4,0,2.8,0,4.1-0.1c1.4,0,2.8-0.1,4.1-0.1c1.3,0,2.7,0.1,4.1,0.4c1.4,0.3,2.8,0.7,4,1.4
	c1.2,0.7,2.2,1.5,3,2.6c0.8,1.1,1.2,2.5,1.2,4.2c0,1.3-0.3,2.5-0.9,3.4c-0.6,1-1.4,1.7-2.3,2.3c-1,0.6-2,1.1-3.2,1.4
	c-1.2,0.3-2.3,0.5-3.5,0.6v0.2c1.6,0.3,3.1,0.6,4.4,0.9c1.3,0.3,2.4,0.8,3.3,1.3s1.7,1.4,2.2,2.5c0.6,1.1,0.9,2.5,1,4.3
	c0.2,2.1,0.3,3.8,0.4,5.1c0.1,1.3,0.2,2.2,0.4,2.9c0.2,0.7,0.4,1.2,0.8,1.4s0.8,0.3,1.4,0.3c0.7,0,1.2-0.2,1.6-0.6
	c0.4-0.4,0.8-0.7,1.1-1.1l0.5,0.4c-0.3,0.3-0.7,0.6-1,0.9c-0.3,0.3-0.7,0.5-1.1,0.7c-0.4,0.2-0.9,0.4-1.5,0.5
	c-0.6,0.1-1.4,0.2-2.2,0.2c-1.8,0-3.3-0.3-4.3-0.9s-1.8-1.3-2.3-2.2c-0.5-0.9-0.8-1.8-0.9-2.8c-0.1-1-0.2-2-0.2-2.9
	c-0.1-1.4-0.2-2.7-0.3-4c-0.1-1.3-0.4-2.4-0.8-3.4c-0.4-1-1.1-1.8-2-2.4c-0.9-0.6-2.1-0.9-3.6-0.9h-3.3v18h4.6v0.7h-16.4v-0.7h4.6
	V43.7L239.9,43.7L239.9,43.7z M253.8,59.2c1.5,0,2.7-0.2,3.6-0.6c0.9-0.4,1.5-0.9,1.9-1.6c0.4-0.7,0.7-1.5,0.8-2.3
	c0.1-0.9,0.2-1.8,0.2-2.7c0-1.5-0.1-2.7-0.3-3.8c-0.2-1-0.5-1.9-1-2.6c-0.5-0.7-1.1-1.2-1.9-1.5c-0.8-0.3-1.9-0.5-3.1-0.5
	c-0.4,0-0.7,0-1.1,0c-0.4,0-0.7,0.1-1.1,0.1v15.5C251.7,59.2,253.8,59.2,253.8,59.2z"/>
<path class="st0" d="M277.1,67.5c0.1,0.4,0.2,0.9,0.4,1.6c0.2,0.7,0.4,1.3,0.7,2.1c0.3,0.8,0.7,1.5,1.2,2.3c0.5,0.8,1.1,1.5,1.8,2.2
	c0.8,0.8,1.5,1.3,2.2,1.8s1.4,0.7,2,0.9c0.6,0.2,1.3,0.3,1.9,0.3c0.6,0,1.1,0,1.6,0c1.8,0,3.2-0.3,4.4-0.8c1.1-0.6,2-1.2,2.7-2
	s1.1-1.6,1.4-2.5c0.3-0.9,0.4-1.7,0.4-2.3c0-1.2-0.3-2.2-0.9-3.1c-0.6-0.8-1.4-1.5-2.3-2c-1-0.5-2.1-1-3.3-1.3
	c-1.2-0.4-2.5-0.7-3.8-1.1c-1.3-0.4-2.6-0.8-3.8-1.3c-1.2-0.5-2.3-1.2-3.3-2c-1-0.8-1.7-1.8-2.3-3c-0.6-1.2-0.9-2.7-0.9-4.5
	c0-1.3,0.3-2.6,0.9-3.8c0.6-1.2,1.4-2.3,2.5-3.3c1.1-1,2.3-1.7,3.8-2.3c1.5-0.6,3.1-0.9,4.8-0.9c1.1,0,2.1,0.1,2.9,0.3
	c0.8,0.2,1.6,0.4,2.2,0.6c0.6,0.2,1.2,0.4,1.7,0.6c0.5,0.2,0.9,0.3,1.3,0.3c0.5,0,0.8-0.1,0.9-0.2c0.1-0.2,0.3-0.4,0.5-0.8h0.8v9.5
	h-0.6c-0.4-1.2-0.8-2.3-1.3-3.5c-0.5-1.1-1-2.2-1.7-3.1c-0.7-0.9-1.6-1.7-2.6-2.2c-1.1-0.6-2.4-0.8-4-0.8c-1.3,0-2.5,0.2-3.5,0.5
	c-1,0.4-1.9,0.8-2.6,1.5c-0.7,0.6-1.2,1.3-1.6,2c-0.4,0.7-0.5,1.5-0.5,2.2c0,1.2,0.3,2.1,0.9,2.9c0.6,0.8,1.4,1.4,2.4,2
	s2.1,1,3.4,1.4c1.3,0.4,2.6,0.8,4,1.2c1.4,0.4,2.7,0.9,4,1.4c1.3,0.5,2.4,1.2,3.4,2s1.8,1.8,2.4,2.9c0.6,1.1,0.9,2.5,0.9,4.2
	c0,1.6-0.3,3.2-1,4.7c-0.7,1.5-1.6,2.8-2.8,3.8c-1.2,1.1-2.7,2-4.4,2.6c-1.7,0.7-3.6,1-5.6,1c-1,0-2.1-0.1-3.1-0.3
	c-1-0.2-2-0.4-2.9-0.6c-0.9-0.2-1.7-0.4-2.4-0.6c-0.7-0.2-1.2-0.3-1.5-0.3c-0.5,0-0.8,0.1-1,0.2s-0.4,0.5-0.5,0.9h-0.8V67.5H277.1z"
	/>
</svg>
