<?xml version="1.0" encoding="utf-8"?>
<!-- Generator: Adobe Illustrator 21.0.2, SVG Export Plug-In . SVG Version: 6.00 Build 0)  -->
<!DOCTYPE svg PUBLIC "-//W3C//DTD SVG 1.1//EN" "http://www.w3.org/Graphics/SVG/1.1/DTD/svg11.dtd">
<svg version="1.1" id="load-logo" xmlns="http://www.w3.org/2000/svg" xmlns:xlink="http://www.w3.org/1999/xlink" x="0px" y="0px"
	 viewBox="0 0 1000 478" style="enable-background:new 0 0 1000 478;" xml:space="preserve">
<style type="text/css">
	.st0{clip-path:url(#SVGID_7_);}
	.st1{clip-path:url(#SVGID_13_);}
	.st2{clip-path:url(#SVGID_18_);}
	.st3{clip-path:url(#SVGID_19_);}
	.st4{clip-path:url(#SVGID_25_);}
	.st5{clip-path:url(#SVGID_30_);}
	.st6{clip-path:url(#SVGID_31_);}
	.st7{clip-path:url(#SVGID_37_);}
	.st8{clip-path:url(#SVGID_38_);}
	.st9{clip-path:url(#SVGID_39_);}
	.st10{clip-path:url(#SVGID_45_);}
	.st11{clip-path:url(#SVGID_50_);}
	.st12{clip-path:url(#SVGID_51_);}
	.st13{clip-path:url(#SVGID_57_);}
	.st14{clip-path:url(#SVGID_58_);}
	.st15{clip-path:url(#SVGID_59_);}
	.st16{clip-path:url(#SVGID_66_);}
	.st17{clip-path:url(#SVGID_67_);}
	.st18{clip-path:url(#SVGID_68_);}
	.st19{clip-path:url(#SVGID_69_);}
	.st20{fill:#1A1A1A;}
</style>
<g>
	<g>
		<g>
			<defs>
				<path id="SVGID_1_" d="M607,0c2.5,10.9,5.2,21.8,7.5,32.8c12.4,58.3,24.8,116.6,37.3,175c0.2,0.8,0.3,1.6,0.4,2.7
					c-26.2,0-52,0-78.4,0c-0.9-13.2-1.9-26.3-2.8-39.5c-11.8,0-23,0-34.5,0c-3.8,13.3-7.6,26.5-11.5,39.7c-49.8,0-99.2,0-149.3,0
					c12.3-54.4,24.5-108.3,36.8-162.8c-1.9-0.1-3.3-0.3-4.8-0.3c-25.4,0-50.8,0-76.2,0.2c-4,0.1-8,0.8-11.9,1.7
					c-4,0.9-7.4,2.8-6.8,7.9c0.6,4.6,4.5,8.3,9.3,8.4c11.6,0.1,23.2,0.1,34.9,0.1c8.4,0,16.8-0.1,25.3,0.1
					c11.3,0.3,16.6,6.3,14.3,17.4c-4,18.9-8.6,37.7-13.1,56.4c-3.6,15.2-7.6,30.3-10.9,45.6c-3.6,16.6-13.6,23.4-29.3,24.9
					c-11,1.1-22.2,0.8-33.3,0.8c-38.9,0.1-77.8,0.1-116.6-0.1c-5,0-10.2-0.6-14.9-2c-8.3-2.4-12-9.3-9.9-17.7
					c1.2-4.7,3-9.3,5.3-13.6c8-14.4,16.3-28.7,24.7-42.8c0.9-1.5,3.2-3.1,4.9-3.1c24.4-0.2,48.8-0.2,73.2-0.1c0.7,0,1.3,0.2,2.6,0.3
					c-0.7,1.9-1.5,3.5-2,5.2c-2.4,7.6,1.6,13.1,9.5,13.2c18.2,0.3,18.2,0.3,24.6-16.9c0.9-2.5,2.1-5,2.7-7.6
					c1.7-7-1.2-10.7-8.4-10.7c-21-0.1-42.1,0-63.1,0c-18.8,0-25.8-10.8-16.7-27.2c13.2-23.8,27-47.3,40.8-70.8
					c5.9-10,15.3-14.9,26.7-16.1c1.6-0.2,3.2-0.6,4.9-0.9c76.8,0,153.6,0,230.3,0c-5.6,14.4-11.2,28.8-16.6,43.3
					c-1.3,3.5-3.2,4.4-6.6,4.3c-10.7-0.2-21.5-0.1-32.5-0.1c-4.9,50.3-9.8,100.2-14.7,150c1.1-0.9,1.6-2,2-3
					c15.8-40.7,31.5-81.5,47.3-122.2c9.3-24.2,18.7-48.2,28.1-72.3C559.2,0,583.2,0,607,0z M568.1,127.1
					c-0.9-13.3-1.8-26.2-2.6-38.9c-3.9-1.2-5.7-0.2-6.3,3.3c-0.3,1.6-0.9,3.2-1.4,4.8c-2.8,10.2-5.7,20.2-8.7,30.8
					C555.6,127.1,561.5,127.1,568.1,127.1z"/>
			</defs>
			<use xlink:href="#SVGID_1_"  style="overflow:visible;fill:#1A1A1A;"/>
			<clipPath id="SVGID_2_">
				<use xlink:href="#SVGID_1_"  style="overflow:visible;"/>
			</clipPath>
		</g>
	</g>
	<g>
		<g>
			<defs>
				<path id="SVGID_3_" d="M607,0c2.5,10.9,5.2,21.8,7.5,32.8c12.4,58.3,24.8,116.6,37.3,175c0.2,0.8,0.3,1.6,0.4,2.7
					c-26.2,0-52,0-78.4,0c-0.9-13.2-1.9-26.3-2.8-39.5c-11.8,0-23,0-34.5,0c-3.8,13.3-7.6,26.5-11.5,39.7c-49.8,0-99.2,0-149.3,0
					c12.3-54.4,24.5-108.3,36.8-162.8c-1.9-0.1-3.3-0.3-4.8-0.3c-25.4,0-50.8,0-76.2,0.2c-4,0.1-8,0.8-11.9,1.7
					c-4,0.9-7.4,2.8-6.8,7.9c0.6,4.6,4.5,8.3,9.3,8.4c11.6,0.1,23.2,0.1,34.9,0.1c8.4,0,16.8-0.1,25.3,0.1
					c11.3,0.3,16.6,6.3,14.3,17.4c-4,18.9-8.6,37.7-13.1,56.4c-3.6,15.2-7.6,30.3-10.9,45.6c-3.6,16.6-13.6,23.4-29.3,24.9
					c-11,1.1-22.2,0.8-33.3,0.8c-38.9,0.1-77.8,0.1-116.6-0.1c-5,0-10.2-0.6-14.9-2c-8.3-2.4-12-9.3-9.9-17.7
					c1.2-4.7,3-9.3,5.3-13.6c8-14.4,16.3-28.7,24.7-42.8c0.9-1.5,3.2-3.1,4.9-3.1c24.4-0.2,48.8-0.2,73.2-0.1c0.7,0,1.3,0.2,2.6,0.3
					c-0.7,1.9-1.5,3.5-2,5.2c-2.4,7.6,1.6,13.1,9.5,13.2c18.2,0.3,18.2,0.3,24.6-16.9c0.9-2.5,2.1-5,2.7-7.6
					c1.7-7-1.2-10.7-8.4-10.7c-21-0.1-42.1,0-63.1,0c-18.8,0-25.8-10.8-16.7-27.2c13.2-23.8,27-47.3,40.8-70.8
					c5.9-10,15.3-14.9,26.7-16.1c1.6-0.2,3.2-0.6,4.9-0.9c76.8,0,153.6,0,230.3,0c-5.6,14.4-11.2,28.8-16.6,43.3
					c-1.3,3.5-3.2,4.4-6.6,4.3c-10.7-0.2-21.5-0.1-32.5-0.1c-4.9,50.3-9.8,100.2-14.7,150c1.1-0.9,1.6-2,2-3
					c15.8-40.7,31.5-81.5,47.3-122.2c9.3-24.2,18.7-48.2,28.1-72.3C559.2,0,583.2,0,607,0z M568.1,127.1
					c-0.9-13.3-1.8-26.2-2.6-38.9c-3.9-1.2-5.7-0.2-6.3,3.3c-0.3,1.6-0.9,3.2-1.4,4.8c-2.8,10.2-5.7,20.2-8.7,30.8
					C555.6,127.1,561.5,127.1,568.1,127.1z"/>
			</defs>
			<use xlink:href="#SVGID_3_"  style="overflow:visible;fill:#1A1A1A;"/>
			<clipPath id="SVGID_4_">
				<use xlink:href="#SVGID_3_"  style="overflow:visible;"/>
			</clipPath>
		</g>
		<g>
			<defs>
				<path id="SVGID_5_" d="M607,0c2.5,10.9,5.2,21.8,7.5,32.8c12.4,58.3,24.8,116.6,37.3,175c0.2,0.8,0.3,1.6,0.4,2.7
					c-26.2,0-52,0-78.4,0c-0.9-13.2-1.9-26.3-2.8-39.5c-11.8,0-23,0-34.5,0c-3.8,13.3-7.6,26.5-11.5,39.7c-49.8,0-99.2,0-149.3,0
					c12.3-54.4,24.5-108.3,36.8-162.8c-1.9-0.1-3.3-0.3-4.8-0.3c-25.4,0-50.8,0-76.2,0.2c-4,0.1-8,0.8-11.9,1.7
					c-4,0.9-7.4,2.8-6.8,7.9c0.6,4.6,4.5,8.3,9.3,8.4c11.6,0.1,23.2,0.1,34.9,0.1c8.4,0,16.8-0.1,25.3,0.1
					c11.3,0.3,16.6,6.3,14.3,17.4c-4,18.9-8.6,37.7-13.1,56.4c-3.6,15.2-7.6,30.3-10.9,45.6c-3.6,16.6-13.6,23.4-29.3,24.9
					c-11,1.1-22.2,0.8-33.3,0.8c-38.9,0.1-77.8,0.1-116.6-0.1c-5,0-10.2-0.6-14.9-2c-8.3-2.4-12-9.3-9.9-17.7
					c1.2-4.7,3-9.3,5.3-13.6c8-14.4,16.3-28.7,24.7-42.8c0.9-1.5,3.2-3.1,4.9-3.1c24.4-0.2,48.8-0.2,73.2-0.1c0.7,0,1.3,0.2,2.6,0.3
					c-0.7,1.9-1.5,3.5-2,5.2c-2.4,7.6,1.6,13.1,9.5,13.2c18.2,0.3,18.2,0.3,24.6-16.9c0.9-2.5,2.1-5,2.7-7.6
					c1.7-7-1.2-10.7-8.4-10.7c-21-0.1-42.1,0-63.1,0c-18.8,0-25.8-10.8-16.7-27.2c13.2-23.8,27-47.3,40.8-70.8
					c5.9-10,15.3-14.9,26.7-16.1c1.6-0.2,3.2-0.6,4.9-0.9c76.8,0,153.6,0,230.3,0c-5.6,14.4-11.2,28.8-16.6,43.3
					c-1.3,3.5-3.2,4.4-6.6,4.3c-10.7-0.2-21.5-0.1-32.5-0.1c-4.9,50.3-9.8,100.2-14.7,150c1.1-0.9,1.6-2,2-3
					c15.8-40.7,31.5-81.5,47.3-122.2c9.3-24.2,18.7-48.2,28.1-72.3C559.2,0,583.2,0,607,0z M568.1,127.1
					c-0.9-13.3-1.8-26.2-2.6-38.9c-3.9-1.2-5.7-0.2-6.3,3.3c-0.3,1.6-0.9,3.2-1.4,4.8c-2.8,10.2-5.7,20.2-8.7,30.8
					C555.6,127.1,561.5,127.1,568.1,127.1z"/>
			</defs>
			<defs>
				<path id="SVGID_6_" d="M0,476.7c3.1-4.9,6.3-9.8,9.2-14.8C55.4,382,101.6,302,147.6,222c2-3.5,4.2-4.9,8.3-4.8
					c19.5,0.2,39,0.1,59.6,0.1C193.4,259,171.7,300,149.9,341c0.2,0.2,0.4,0.3,0.7,0.5c5.1-5.9,10.3-11.7,15.4-17.6
					c29.7-34.4,59.5-68.7,89.2-103.1c2.2-2.5,4.4-3.6,7.8-3.6c16.1,0.2,32.3,0.1,49.3,0.1c-10.5,39.7-20.9,78.8-31.3,118
					c0.3,0.1,0.5,0.3,0.8,0.4c5.4-8.2,10.8-16.4,16.2-24.6c19.5-29.8,39-59.7,58.3-89.6c2-3.1,4.1-4.2,7.6-4.2
					c20.5,0.2,41.1,0.1,61.6,0.1c1.5,0,2.9,0.1,5,0.2c-1.1,2-1.8,3.4-2.6,4.7c-51.6,83.6-103,167-154.3,250.6
					c-2.3,3.8-4.7,5.1-9.1,5.1c-27.3-0.2-54.6-0.1-81.8-0.1c-1.7,0-3.3,0-5.6,0c10.7-40.4,21.2-80.3,31.7-120.1
					c-5.2-2.3-7.9,0.2-10.5,3.6c-29.3,37.8-58.6,75.5-88.1,113.1c-1.3,1.7-4,3.3-6,3.3c-34.7,0.2-69.3,0.1-104,0.1
					C0,477.4,0,477.1,0,476.7z"/>
			</defs>
			<use xlink:href="#SVGID_5_"  style="overflow:visible;fill:#1A1A1A;"/>
			<use xlink:href="#SVGID_6_"  style="overflow:visible;fill:#1A1A1A;"/>
			<clipPath id="SVGID_7_">
				<use xlink:href="#SVGID_5_"  style="overflow:visible;"/>
			</clipPath>
			<clipPath id="SVGID_8_" class="st0">
				<use xlink:href="#SVGID_6_"  style="overflow:visible;"/>
			</clipPath>
		</g>
	</g>
	<g>
		<g>
			<defs>
				<path id="SVGID_9_" d="M607,0c2.5,10.9,5.2,21.8,7.5,32.8c12.4,58.3,24.8,116.6,37.3,175c0.2,0.8,0.3,1.6,0.4,2.7
					c-26.2,0-52,0-78.4,0c-0.9-13.2-1.9-26.3-2.8-39.5c-11.8,0-23,0-34.5,0c-3.8,13.3-7.6,26.5-11.5,39.7c-49.8,0-99.2,0-149.3,0
					c12.3-54.4,24.5-108.3,36.8-162.8c-1.9-0.1-3.3-0.3-4.8-0.3c-25.4,0-50.8,0-76.2,0.2c-4,0.1-8,0.8-11.9,1.7
					c-4,0.9-7.4,2.8-6.8,7.9c0.6,4.6,4.5,8.3,9.3,8.4c11.6,0.1,23.2,0.1,34.9,0.1c8.4,0,16.8-0.1,25.3,0.1
					c11.3,0.3,16.6,6.3,14.3,17.4c-4,18.9-8.6,37.7-13.1,56.4c-3.6,15.2-7.6,30.3-10.9,45.6c-3.6,16.6-13.6,23.4-29.3,24.9
					c-11,1.1-22.2,0.8-33.3,0.8c-38.9,0.1-77.8,0.1-116.6-0.1c-5,0-10.2-0.6-14.9-2c-8.3-2.4-12-9.3-9.9-17.7
					c1.2-4.7,3-9.3,5.3-13.6c8-14.4,16.3-28.7,24.7-42.8c0.9-1.5,3.2-3.1,4.9-3.1c24.4-0.2,48.8-0.2,73.2-0.1c0.7,0,1.3,0.2,2.6,0.3
					c-0.7,1.9-1.5,3.5-2,5.2c-2.4,7.6,1.6,13.1,9.5,13.2c18.2,0.3,18.2,0.3,24.6-16.9c0.9-2.5,2.1-5,2.7-7.6
					c1.7-7-1.2-10.7-8.4-10.7c-21-0.1-42.1,0-63.1,0c-18.8,0-25.8-10.8-16.7-27.2c13.2-23.8,27-47.3,40.8-70.8
					c5.9-10,15.3-14.9,26.7-16.1c1.6-0.2,3.2-0.6,4.9-0.9c76.8,0,153.6,0,230.3,0c-5.6,14.4-11.2,28.8-16.6,43.3
					c-1.3,3.5-3.2,4.4-6.6,4.3c-10.7-0.2-21.5-0.1-32.5-0.1c-4.9,50.3-9.8,100.2-14.7,150c1.1-0.9,1.6-2,2-3
					c15.8-40.7,31.5-81.5,47.3-122.2c9.3-24.2,18.7-48.2,28.1-72.3C559.2,0,583.2,0,607,0z M568.1,127.1
					c-0.9-13.3-1.8-26.2-2.6-38.9c-3.9-1.2-5.7-0.2-6.3,3.3c-0.3,1.6-0.9,3.2-1.4,4.8c-2.8,10.2-5.7,20.2-8.7,30.8
					C555.6,127.1,561.5,127.1,568.1,127.1z"/>
			</defs>
			<use xlink:href="#SVGID_9_"  style="overflow:visible;fill:#1A1A1A;"/>
			<clipPath id="SVGID_10_">
				<use xlink:href="#SVGID_9_"  style="overflow:visible;"/>
			</clipPath>
		</g>
		<g>
			<defs>
				<path id="SVGID_11_" d="M607,0c2.5,10.9,5.2,21.8,7.5,32.8c12.4,58.3,24.8,116.6,37.3,175c0.2,0.8,0.3,1.6,0.4,2.7
					c-26.2,0-52,0-78.4,0c-0.9-13.2-1.9-26.3-2.8-39.5c-11.8,0-23,0-34.5,0c-3.8,13.3-7.6,26.5-11.5,39.7c-49.8,0-99.2,0-149.3,0
					c12.3-54.4,24.5-108.3,36.8-162.8c-1.9-0.1-3.3-0.3-4.8-0.3c-25.4,0-50.8,0-76.2,0.2c-4,0.1-8,0.8-11.9,1.7
					c-4,0.9-7.4,2.8-6.8,7.9c0.6,4.6,4.5,8.3,9.3,8.4c11.6,0.1,23.2,0.1,34.9,0.1c8.4,0,16.8-0.1,25.3,0.1
					c11.3,0.3,16.6,6.3,14.3,17.4c-4,18.9-8.6,37.7-13.1,56.4c-3.6,15.2-7.6,30.3-10.9,45.6c-3.6,16.6-13.6,23.4-29.3,24.9
					c-11,1.1-22.2,0.8-33.3,0.8c-38.9,0.1-77.8,0.1-116.6-0.1c-5,0-10.2-0.6-14.9-2c-8.3-2.4-12-9.3-9.9-17.7
					c1.2-4.7,3-9.3,5.3-13.6c8-14.4,16.3-28.7,24.7-42.8c0.9-1.5,3.2-3.1,4.9-3.1c24.4-0.2,48.8-0.2,73.2-0.1c0.7,0,1.3,0.2,2.6,0.3
					c-0.7,1.9-1.5,3.5-2,5.2c-2.4,7.6,1.6,13.1,9.5,13.2c18.2,0.3,18.2,0.3,24.6-16.9c0.9-2.5,2.1-5,2.7-7.6
					c1.7-7-1.2-10.7-8.4-10.7c-21-0.1-42.1,0-63.1,0c-18.8,0-25.8-10.8-16.7-27.2c13.2-23.8,27-47.3,40.8-70.8
					c5.9-10,15.3-14.9,26.7-16.1c1.6-0.2,3.2-0.6,4.9-0.9c76.8,0,153.6,0,230.3,0c-5.6,14.4-11.2,28.8-16.6,43.3
					c-1.3,3.5-3.2,4.4-6.6,4.3c-10.7-0.2-21.5-0.1-32.5-0.1c-4.9,50.3-9.8,100.2-14.7,150c1.1-0.9,1.6-2,2-3
					c15.8-40.7,31.5-81.5,47.3-122.2c9.3-24.2,18.7-48.2,28.1-72.3C559.2,0,583.2,0,607,0z M568.1,127.1
					c-0.9-13.3-1.8-26.2-2.6-38.9c-3.9-1.2-5.7-0.2-6.3,3.3c-0.3,1.6-0.9,3.2-1.4,4.8c-2.8,10.2-5.7,20.2-8.7,30.8
					C555.6,127.1,561.5,127.1,568.1,127.1z"/>
			</defs>
			<defs>
				<path id="SVGID_12_" d="M0,476.7c3.1-4.9,6.3-9.8,9.2-14.8C55.4,382,101.6,302,147.6,222c2-3.5,4.2-4.9,8.3-4.8
					c19.5,0.2,39,0.1,59.6,0.1C193.4,259,171.7,300,149.9,341c0.2,0.2,0.4,0.3,0.7,0.5c5.1-5.9,10.3-11.7,15.4-17.6
					c29.7-34.4,59.5-68.7,89.2-103.1c2.2-2.5,4.4-3.6,7.8-3.6c16.1,0.2,32.3,0.1,49.3,0.1c-10.5,39.7-20.9,78.8-31.3,118
					c0.3,0.1,0.5,0.3,0.8,0.4c5.4-8.2,10.8-16.4,16.2-24.6c19.5-29.8,39-59.7,58.3-89.6c2-3.1,4.1-4.2,7.6-4.2
					c20.5,0.2,41.1,0.1,61.6,0.1c1.5,0,2.9,0.1,5,0.2c-1.1,2-1.8,3.4-2.6,4.7c-51.6,83.6-103,167-154.3,250.6
					c-2.3,3.8-4.7,5.1-9.1,5.1c-27.3-0.2-54.6-0.1-81.8-0.1c-1.7,0-3.3,0-5.6,0c10.7-40.4,21.2-80.3,31.7-120.1
					c-5.2-2.3-7.9,0.2-10.5,3.6c-29.3,37.8-58.6,75.5-88.1,113.1c-1.3,1.7-4,3.3-6,3.3c-34.7,0.2-69.3,0.1-104,0.1
					C0,477.4,0,477.1,0,476.7z"/>
			</defs>
			<use xlink:href="#SVGID_11_"  style="overflow:visible;fill:#1A1A1A;"/>
			<use xlink:href="#SVGID_12_"  style="overflow:visible;fill:#1A1A1A;"/>
			<clipPath id="SVGID_13_">
				<use xlink:href="#SVGID_11_"  style="overflow:visible;"/>
			</clipPath>
			<clipPath id="SVGID_14_" class="st1">
				<use xlink:href="#SVGID_12_"  style="overflow:visible;"/>
			</clipPath>
		</g>
		<g>
			<defs>
				<path id="SVGID_15_" d="M607,0c2.5,10.9,5.2,21.8,7.5,32.8c12.4,58.3,24.8,116.6,37.3,175c0.2,0.8,0.3,1.6,0.4,2.7
					c-26.2,0-52,0-78.4,0c-0.9-13.2-1.9-26.3-2.8-39.5c-11.8,0-23,0-34.5,0c-3.8,13.3-7.6,26.5-11.5,39.7c-49.8,0-99.2,0-149.3,0
					c12.3-54.4,24.5-108.3,36.8-162.8c-1.9-0.1-3.3-0.3-4.8-0.3c-25.4,0-50.8,0-76.2,0.2c-4,0.1-8,0.8-11.9,1.7
					c-4,0.9-7.4,2.8-6.8,7.9c0.6,4.6,4.5,8.3,9.3,8.4c11.6,0.1,23.2,0.1,34.9,0.1c8.4,0,16.8-0.1,25.3,0.1
					c11.3,0.3,16.6,6.3,14.3,17.4c-4,18.9-8.6,37.7-13.1,56.4c-3.6,15.2-7.6,30.3-10.9,45.6c-3.6,16.6-13.6,23.4-29.3,24.9
					c-11,1.1-22.2,0.8-33.3,0.8c-38.9,0.1-77.8,0.1-116.6-0.1c-5,0-10.2-0.6-14.9-2c-8.3-2.4-12-9.3-9.9-17.7
					c1.2-4.7,3-9.3,5.3-13.6c8-14.4,16.3-28.7,24.7-42.8c0.9-1.5,3.2-3.1,4.9-3.1c24.4-0.2,48.8-0.2,73.2-0.1c0.7,0,1.3,0.2,2.6,0.3
					c-0.7,1.9-1.5,3.5-2,5.2c-2.4,7.6,1.6,13.1,9.5,13.2c18.2,0.3,18.2,0.3,24.6-16.9c0.9-2.5,2.1-5,2.7-7.6
					c1.7-7-1.2-10.7-8.4-10.7c-21-0.1-42.1,0-63.1,0c-18.8,0-25.8-10.8-16.7-27.2c13.2-23.8,27-47.3,40.8-70.8
					c5.9-10,15.3-14.9,26.7-16.1c1.6-0.2,3.2-0.6,4.9-0.9c76.8,0,153.6,0,230.3,0c-5.6,14.4-11.2,28.8-16.6,43.3
					c-1.3,3.5-3.2,4.4-6.6,4.3c-10.7-0.2-21.5-0.1-32.5-0.1c-4.9,50.3-9.8,100.2-14.7,150c1.1-0.9,1.6-2,2-3
					c15.8-40.7,31.5-81.5,47.3-122.2c9.3-24.2,18.7-48.2,28.1-72.3C559.2,0,583.2,0,607,0z M568.1,127.1
					c-0.9-13.3-1.8-26.2-2.6-38.9c-3.9-1.2-5.7-0.2-6.3,3.3c-0.3,1.6-0.9,3.2-1.4,4.8c-2.8,10.2-5.7,20.2-8.7,30.8
					C555.6,127.1,561.5,127.1,568.1,127.1z"/>
			</defs>
			<defs>
				<path id="SVGID_16_" d="M0,476.7c3.1-4.9,6.3-9.8,9.2-14.8C55.4,382,101.6,302,147.6,222c2-3.5,4.2-4.9,8.3-4.8
					c19.5,0.2,39,0.1,59.6,0.1C193.4,259,171.7,300,149.9,341c0.2,0.2,0.4,0.3,0.7,0.5c5.1-5.9,10.3-11.7,15.4-17.6
					c29.7-34.4,59.5-68.7,89.2-103.1c2.2-2.5,4.4-3.6,7.8-3.6c16.1,0.2,32.3,0.1,49.3,0.1c-10.5,39.7-20.9,78.8-31.3,118
					c0.3,0.1,0.5,0.3,0.8,0.4c5.4-8.2,10.8-16.4,16.2-24.6c19.5-29.8,39-59.7,58.3-89.6c2-3.1,4.1-4.2,7.6-4.2
					c20.5,0.2,41.1,0.1,61.6,0.1c1.5,0,2.9,0.1,5,0.2c-1.1,2-1.8,3.4-2.6,4.7c-51.6,83.6-103,167-154.3,250.6
					c-2.3,3.8-4.7,5.1-9.1,5.1c-27.3-0.2-54.6-0.1-81.8-0.1c-1.7,0-3.3,0-5.6,0c10.7-40.4,21.2-80.3,31.7-120.1
					c-5.2-2.3-7.9,0.2-10.5,3.6c-29.3,37.8-58.6,75.5-88.1,113.1c-1.3,1.7-4,3.3-6,3.3c-34.7,0.2-69.3,0.1-104,0.1
					C0,477.4,0,477.1,0,476.7z"/>
			</defs>
			<defs>
				<path id="SVGID_17_" d="M733.3,0c3.8,1.1,7.9,1.7,11.6,3.2c7,2.7,12,7.9,15.7,14.4c14.3,25.7,28.7,51.4,42.8,77.2
					c5.6,10.4,2.3,18.8-8.5,23.1c-6.1,2.5-6.6,5.4-1.6,11c18.2,20.1,36.5,40.1,54.7,60.1c6.3,6.9,12.6,13.9,19.5,21.5
					c-2.1,0.2-3.3,0.4-4.6,0.4c-26.6,0-53.2-0.1-79.8,0c-3.4,0-5.5-1.1-7.5-3.8c-18.8-25-37.7-49.9-56.6-74.9
					c-1.4-1.9-3.1-3.6-4.6-5.4c-0.6,0.3-1.1,0.7-1.6,0.9c9.7,27.4,19.4,54.7,29.2,82.7c-27.3,0-53.8,0-81,0
					c-2.1-9.1-4.2-18.4-6.3-27.7c-13.3-59-26.7-118-40-176.9c-0.4-1.9-0.3-3.9-0.4-5.9C653.8,0,693.6,0,733.3,0z M684.1,47.5
					c2.1,5.7,3.6,10.7,5.6,15.5c0.5,1.2,2.2,2.5,3.5,2.5c5.2,0.3,10.4,0.4,15.6-0.1c2-0.2,4.8-2.1,5.5-4c2-5.1-3.8-13.6-9.3-13.8
					C698.3,47.2,691.6,47.5,684.1,47.5z"/>
			</defs>
			<use xlink:href="#SVGID_15_"  style="overflow:visible;fill:#1A1A1A;"/>
			<use xlink:href="#SVGID_16_"  style="overflow:visible;fill:#1A1A1A;"/>
			<use xlink:href="#SVGID_17_"  style="overflow:visible;fill:#1A1A1A;"/>
			<clipPath id="SVGID_18_">
				<use xlink:href="#SVGID_15_"  style="overflow:visible;"/>
			</clipPath>
			<clipPath id="SVGID_19_" class="st2">
				<use xlink:href="#SVGID_16_"  style="overflow:visible;"/>
			</clipPath>
			<clipPath id="SVGID_20_" class="st3">
				<use xlink:href="#SVGID_17_"  style="overflow:visible;"/>
			</clipPath>
		</g>
	</g>
	<g>
		<g>
			<defs>
				<path id="SVGID_21_" d="M607,0c2.5,10.9,5.2,21.8,7.5,32.8c12.4,58.3,24.8,116.6,37.3,175c0.2,0.8,0.3,1.6,0.4,2.7
					c-26.2,0-52,0-78.4,0c-0.9-13.2-1.9-26.3-2.8-39.5c-11.8,0-23,0-34.5,0c-3.8,13.3-7.6,26.5-11.5,39.7c-49.8,0-99.2,0-149.3,0
					c12.3-54.4,24.5-108.3,36.8-162.8c-1.9-0.1-3.3-0.3-4.8-0.3c-25.4,0-50.8,0-76.2,0.2c-4,0.1-8,0.8-11.9,1.7
					c-4,0.9-7.4,2.8-6.8,7.9c0.6,4.6,4.5,8.3,9.3,8.4c11.6,0.1,23.2,0.1,34.9,0.1c8.4,0,16.8-0.1,25.3,0.1
					c11.3,0.3,16.6,6.3,14.3,17.4c-4,18.9-8.6,37.7-13.1,56.4c-3.6,15.2-7.6,30.3-10.9,45.6c-3.6,16.6-13.6,23.4-29.3,24.9
					c-11,1.1-22.2,0.8-33.3,0.8c-38.9,0.1-77.8,0.1-116.6-0.1c-5,0-10.2-0.6-14.9-2c-8.3-2.4-12-9.3-9.9-17.7
					c1.2-4.7,3-9.3,5.3-13.6c8-14.4,16.3-28.7,24.7-42.8c0.9-1.5,3.2-3.1,4.9-3.1c24.4-0.2,48.8-0.2,73.2-0.1c0.7,0,1.3,0.2,2.6,0.3
					c-0.7,1.9-1.5,3.5-2,5.2c-2.4,7.6,1.6,13.1,9.5,13.2c18.2,0.3,18.2,0.3,24.6-16.9c0.9-2.5,2.1-5,2.7-7.6
					c1.7-7-1.2-10.7-8.4-10.7c-21-0.1-42.1,0-63.1,0c-18.8,0-25.8-10.8-16.7-27.2c13.2-23.8,27-47.3,40.8-70.8
					c5.9-10,15.3-14.9,26.7-16.1c1.6-0.2,3.2-0.6,4.9-0.9c76.8,0,153.6,0,230.3,0c-5.6,14.4-11.2,28.8-16.6,43.3
					c-1.3,3.5-3.2,4.4-6.6,4.3c-10.7-0.2-21.5-0.1-32.5-0.1c-4.9,50.3-9.8,100.2-14.7,150c1.1-0.9,1.6-2,2-3
					c15.8-40.7,31.5-81.5,47.3-122.2c9.3-24.2,18.7-48.2,28.1-72.3C559.2,0,583.2,0,607,0z M568.1,127.1
					c-0.9-13.3-1.8-26.2-2.6-38.9c-3.9-1.2-5.7-0.2-6.3,3.3c-0.3,1.6-0.9,3.2-1.4,4.8c-2.8,10.2-5.7,20.2-8.7,30.8
					C555.6,127.1,561.5,127.1,568.1,127.1z"/>
			</defs>
			<use xlink:href="#SVGID_21_"  style="overflow:visible;fill:#1A1A1A;"/>
			<clipPath id="SVGID_22_">
				<use xlink:href="#SVGID_21_"  style="overflow:visible;"/>
			</clipPath>
		</g>
		<g>
			<defs>
				<path id="SVGID_23_" d="M607,0c2.5,10.9,5.2,21.8,7.5,32.8c12.4,58.3,24.8,116.6,37.3,175c0.2,0.8,0.3,1.6,0.4,2.7
					c-26.2,0-52,0-78.4,0c-0.9-13.2-1.9-26.3-2.8-39.5c-11.8,0-23,0-34.5,0c-3.8,13.3-7.6,26.5-11.5,39.7c-49.8,0-99.2,0-149.3,0
					c12.3-54.4,24.5-108.3,36.8-162.8c-1.9-0.1-3.3-0.3-4.8-0.3c-25.4,0-50.8,0-76.2,0.2c-4,0.1-8,0.8-11.9,1.7
					c-4,0.9-7.4,2.8-6.8,7.9c0.6,4.6,4.5,8.3,9.3,8.4c11.6,0.1,23.2,0.1,34.9,0.1c8.4,0,16.8-0.1,25.3,0.1
					c11.3,0.3,16.6,6.3,14.3,17.4c-4,18.9-8.6,37.7-13.1,56.4c-3.6,15.2-7.6,30.3-10.9,45.6c-3.6,16.6-13.6,23.4-29.3,24.9
					c-11,1.1-22.2,0.8-33.3,0.8c-38.9,0.1-77.8,0.1-116.6-0.1c-5,0-10.2-0.6-14.9-2c-8.3-2.4-12-9.3-9.9-17.7
					c1.2-4.7,3-9.3,5.3-13.6c8-14.4,16.3-28.7,24.7-42.8c0.9-1.5,3.2-3.1,4.9-3.1c24.4-0.2,48.8-0.2,73.2-0.1c0.7,0,1.3,0.2,2.6,0.3
					c-0.7,1.9-1.5,3.5-2,5.2c-2.4,7.6,1.6,13.1,9.5,13.2c18.2,0.3,18.2,0.3,24.6-16.9c0.9-2.5,2.1-5,2.7-7.6
					c1.7-7-1.2-10.7-8.4-10.7c-21-0.1-42.1,0-63.1,0c-18.8,0-25.8-10.8-16.7-27.2c13.2-23.8,27-47.3,40.8-70.8
					c5.9-10,15.3-14.9,26.7-16.1c1.6-0.2,3.2-0.6,4.9-0.9c76.8,0,153.6,0,230.3,0c-5.6,14.4-11.2,28.8-16.6,43.3
					c-1.3,3.5-3.2,4.4-6.6,4.3c-10.7-0.2-21.5-0.1-32.5-0.1c-4.9,50.3-9.8,100.2-14.7,150c1.1-0.9,1.6-2,2-3
					c15.8-40.7,31.5-81.5,47.3-122.2c9.3-24.2,18.7-48.2,28.1-72.3C559.2,0,583.2,0,607,0z M568.1,127.1
					c-0.9-13.3-1.8-26.2-2.6-38.9c-3.9-1.2-5.7-0.2-6.3,3.3c-0.3,1.6-0.9,3.2-1.4,4.8c-2.8,10.2-5.7,20.2-8.7,30.8
					C555.6,127.1,561.5,127.1,568.1,127.1z"/>
			</defs>
			<defs>
				<path id="SVGID_24_" d="M0,476.7c3.1-4.9,6.3-9.8,9.2-14.8C55.4,382,101.6,302,147.6,222c2-3.5,4.2-4.9,8.3-4.8
					c19.5,0.2,39,0.1,59.6,0.1C193.4,259,171.7,300,149.9,341c0.2,0.2,0.4,0.3,0.7,0.5c5.1-5.9,10.3-11.7,15.4-17.6
					c29.7-34.4,59.5-68.7,89.2-103.1c2.2-2.5,4.4-3.6,7.8-3.6c16.1,0.2,32.3,0.1,49.3,0.1c-10.5,39.7-20.9,78.8-31.3,118
					c0.3,0.1,0.5,0.3,0.8,0.4c5.4-8.2,10.8-16.4,16.2-24.6c19.5-29.8,39-59.7,58.3-89.6c2-3.1,4.1-4.2,7.6-4.2
					c20.5,0.2,41.1,0.1,61.6,0.1c1.5,0,2.9,0.1,5,0.2c-1.1,2-1.8,3.4-2.6,4.7c-51.6,83.6-103,167-154.3,250.6
					c-2.3,3.8-4.7,5.1-9.1,5.1c-27.3-0.2-54.6-0.1-81.8-0.1c-1.7,0-3.3,0-5.6,0c10.7-40.4,21.2-80.3,31.7-120.1
					c-5.2-2.3-7.9,0.2-10.5,3.6c-29.3,37.8-58.6,75.5-88.1,113.1c-1.3,1.7-4,3.3-6,3.3c-34.7,0.2-69.3,0.1-104,0.1
					C0,477.4,0,477.1,0,476.7z"/>
			</defs>
			<use xlink:href="#SVGID_23_"  style="overflow:visible;fill:#1A1A1A;"/>
			<use xlink:href="#SVGID_24_"  style="overflow:visible;fill:#1A1A1A;"/>
			<clipPath id="SVGID_25_">
				<use xlink:href="#SVGID_23_"  style="overflow:visible;"/>
			</clipPath>
			<clipPath id="SVGID_26_" class="st4">
				<use xlink:href="#SVGID_24_"  style="overflow:visible;"/>
			</clipPath>
		</g>
		<g>
			<defs>
				<path id="SVGID_27_" d="M607,0c2.5,10.9,5.2,21.8,7.5,32.8c12.4,58.3,24.8,116.6,37.3,175c0.2,0.8,0.3,1.6,0.4,2.7
					c-26.2,0-52,0-78.4,0c-0.9-13.2-1.9-26.3-2.8-39.5c-11.8,0-23,0-34.5,0c-3.8,13.3-7.6,26.5-11.5,39.7c-49.8,0-99.2,0-149.3,0
					c12.3-54.4,24.5-108.3,36.8-162.8c-1.9-0.1-3.3-0.3-4.8-0.3c-25.4,0-50.8,0-76.2,0.2c-4,0.1-8,0.8-11.9,1.7
					c-4,0.9-7.4,2.8-6.8,7.9c0.6,4.6,4.5,8.3,9.3,8.4c11.6,0.1,23.2,0.1,34.9,0.1c8.4,0,16.8-0.1,25.3,0.1
					c11.3,0.3,16.6,6.3,14.3,17.4c-4,18.9-8.6,37.7-13.1,56.4c-3.6,15.2-7.6,30.3-10.9,45.6c-3.6,16.6-13.6,23.4-29.3,24.9
					c-11,1.1-22.2,0.8-33.3,0.8c-38.9,0.1-77.8,0.1-116.6-0.1c-5,0-10.2-0.6-14.9-2c-8.3-2.4-12-9.3-9.9-17.7
					c1.2-4.7,3-9.3,5.3-13.6c8-14.4,16.3-28.7,24.7-42.8c0.9-1.5,3.2-3.1,4.9-3.1c24.4-0.2,48.8-0.2,73.2-0.1c0.7,0,1.3,0.2,2.6,0.3
					c-0.7,1.9-1.5,3.5-2,5.2c-2.4,7.6,1.6,13.1,9.5,13.2c18.2,0.3,18.2,0.3,24.6-16.9c0.9-2.5,2.1-5,2.7-7.6
					c1.7-7-1.2-10.7-8.4-10.7c-21-0.1-42.1,0-63.1,0c-18.8,0-25.8-10.8-16.7-27.2c13.2-23.8,27-47.3,40.8-70.8
					c5.9-10,15.3-14.9,26.7-16.1c1.6-0.2,3.2-0.6,4.9-0.9c76.8,0,153.6,0,230.3,0c-5.6,14.4-11.2,28.8-16.6,43.3
					c-1.3,3.5-3.2,4.4-6.6,4.3c-10.7-0.2-21.5-0.1-32.5-0.1c-4.9,50.3-9.8,100.2-14.7,150c1.1-0.9,1.6-2,2-3
					c15.8-40.7,31.5-81.5,47.3-122.2c9.3-24.2,18.7-48.2,28.1-72.3C559.2,0,583.2,0,607,0z M568.1,127.1
					c-0.9-13.3-1.8-26.2-2.6-38.9c-3.9-1.2-5.7-0.2-6.3,3.3c-0.3,1.6-0.9,3.2-1.4,4.8c-2.8,10.2-5.7,20.2-8.7,30.8
					C555.6,127.1,561.5,127.1,568.1,127.1z"/>
			</defs>
			<defs>
				<path id="SVGID_28_" d="M0,476.7c3.1-4.9,6.3-9.8,9.2-14.8C55.4,382,101.6,302,147.6,222c2-3.5,4.2-4.9,8.3-4.8
					c19.5,0.2,39,0.1,59.6,0.1C193.4,259,171.7,300,149.9,341c0.2,0.2,0.4,0.3,0.7,0.5c5.1-5.9,10.3-11.7,15.4-17.6
					c29.7-34.4,59.5-68.7,89.2-103.1c2.2-2.5,4.4-3.6,7.8-3.6c16.1,0.2,32.3,0.1,49.3,0.1c-10.5,39.7-20.9,78.8-31.3,118
					c0.3,0.1,0.5,0.3,0.8,0.4c5.4-8.2,10.8-16.4,16.2-24.6c19.5-29.8,39-59.7,58.3-89.6c2-3.1,4.1-4.2,7.6-4.2
					c20.5,0.2,41.1,0.1,61.6,0.1c1.5,0,2.9,0.1,5,0.2c-1.1,2-1.8,3.4-2.6,4.7c-51.6,83.6-103,167-154.3,250.6
					c-2.3,3.8-4.7,5.1-9.1,5.1c-27.3-0.2-54.6-0.1-81.8-0.1c-1.7,0-3.3,0-5.6,0c10.7-40.4,21.2-80.3,31.7-120.1
					c-5.2-2.3-7.9,0.2-10.5,3.6c-29.3,37.8-58.6,75.5-88.1,113.1c-1.3,1.7-4,3.3-6,3.3c-34.7,0.2-69.3,0.1-104,0.1
					C0,477.4,0,477.1,0,476.7z"/>
			</defs>
			<defs>
				<path id="SVGID_29_" d="M733.3,0c3.8,1.1,7.9,1.7,11.6,3.2c7,2.7,12,7.9,15.7,14.4c14.3,25.7,28.7,51.4,42.8,77.2
					c5.6,10.4,2.3,18.8-8.5,23.1c-6.1,2.5-6.6,5.4-1.6,11c18.2,20.1,36.5,40.1,54.7,60.1c6.3,6.9,12.6,13.9,19.5,21.5
					c-2.1,0.2-3.3,0.4-4.6,0.4c-26.6,0-53.2-0.1-79.8,0c-3.4,0-5.5-1.1-7.5-3.8c-18.8-25-37.7-49.9-56.6-74.9
					c-1.4-1.9-3.1-3.6-4.6-5.4c-0.6,0.3-1.1,0.7-1.6,0.9c9.7,27.4,19.4,54.7,29.2,82.7c-27.3,0-53.8,0-81,0
					c-2.1-9.1-4.2-18.4-6.3-27.7c-13.3-59-26.7-118-40-176.9c-0.4-1.9-0.3-3.9-0.4-5.9C653.8,0,693.6,0,733.3,0z M684.1,47.5
					c2.1,5.7,3.6,10.7,5.6,15.5c0.5,1.2,2.2,2.5,3.5,2.5c5.2,0.3,10.4,0.4,15.6-0.1c2-0.2,4.8-2.1,5.5-4c2-5.1-3.8-13.6-9.3-13.8
					C698.3,47.2,691.6,47.5,684.1,47.5z"/>
			</defs>
			<use xlink:href="#SVGID_27_"  style="overflow:visible;fill:#1A1A1A;"/>
			<use xlink:href="#SVGID_28_"  style="overflow:visible;fill:#1A1A1A;"/>
			<use xlink:href="#SVGID_29_"  style="overflow:visible;fill:#1A1A1A;"/>
			<clipPath id="SVGID_30_">
				<use xlink:href="#SVGID_27_"  style="overflow:visible;"/>
			</clipPath>
			<clipPath id="SVGID_31_" class="st5">
				<use xlink:href="#SVGID_28_"  style="overflow:visible;"/>
			</clipPath>
			<clipPath id="SVGID_32_" class="st6">
				<use xlink:href="#SVGID_29_"  style="overflow:visible;"/>
			</clipPath>
		</g>
		<g>
			<defs>
				<path id="SVGID_33_" d="M607,0c2.5,10.9,5.2,21.8,7.5,32.8c12.4,58.3,24.8,116.6,37.3,175c0.2,0.8,0.3,1.6,0.4,2.7
					c-26.2,0-52,0-78.4,0c-0.9-13.2-1.9-26.3-2.8-39.5c-11.8,0-23,0-34.5,0c-3.8,13.3-7.6,26.5-11.5,39.7c-49.8,0-99.2,0-149.3,0
					c12.3-54.4,24.5-108.3,36.8-162.8c-1.9-0.1-3.3-0.3-4.8-0.3c-25.4,0-50.8,0-76.2,0.2c-4,0.1-8,0.8-11.9,1.7
					c-4,0.9-7.4,2.8-6.8,7.9c0.6,4.6,4.5,8.3,9.3,8.4c11.6,0.1,23.2,0.1,34.9,0.1c8.4,0,16.8-0.1,25.3,0.1
					c11.3,0.3,16.6,6.3,14.3,17.4c-4,18.9-8.6,37.7-13.1,56.4c-3.6,15.2-7.6,30.3-10.9,45.6c-3.6,16.6-13.6,23.4-29.3,24.9
					c-11,1.1-22.2,0.8-33.3,0.8c-38.9,0.1-77.8,0.1-116.6-0.1c-5,0-10.2-0.6-14.9-2c-8.3-2.4-12-9.3-9.9-17.7
					c1.2-4.7,3-9.3,5.3-13.6c8-14.4,16.3-28.7,24.7-42.8c0.9-1.5,3.2-3.1,4.9-3.1c24.4-0.2,48.8-0.2,73.2-0.1c0.7,0,1.3,0.2,2.6,0.3
					c-0.7,1.9-1.5,3.5-2,5.2c-2.4,7.6,1.6,13.1,9.5,13.2c18.2,0.3,18.2,0.3,24.6-16.9c0.9-2.5,2.1-5,2.7-7.6
					c1.7-7-1.2-10.7-8.4-10.7c-21-0.1-42.1,0-63.1,0c-18.8,0-25.8-10.8-16.7-27.2c13.2-23.8,27-47.3,40.8-70.8
					c5.9-10,15.3-14.9,26.7-16.1c1.6-0.2,3.2-0.6,4.9-0.9c76.8,0,153.6,0,230.3,0c-5.6,14.4-11.2,28.8-16.6,43.3
					c-1.3,3.5-3.2,4.4-6.6,4.3c-10.7-0.2-21.5-0.1-32.5-0.1c-4.9,50.3-9.8,100.2-14.7,150c1.1-0.9,1.6-2,2-3
					c15.8-40.7,31.5-81.5,47.3-122.2c9.3-24.2,18.7-48.2,28.1-72.3C559.2,0,583.2,0,607,0z M568.1,127.1
					c-0.9-13.3-1.8-26.2-2.6-38.9c-3.9-1.2-5.7-0.2-6.3,3.3c-0.3,1.6-0.9,3.2-1.4,4.8c-2.8,10.2-5.7,20.2-8.7,30.8
					C555.6,127.1,561.5,127.1,568.1,127.1z"/>
			</defs>
			<defs>
				<path id="SVGID_34_" d="M0,476.7c3.1-4.9,6.3-9.8,9.2-14.8C55.4,382,101.6,302,147.6,222c2-3.5,4.2-4.9,8.3-4.8
					c19.5,0.2,39,0.1,59.6,0.1C193.4,259,171.7,300,149.9,341c0.2,0.2,0.4,0.3,0.7,0.5c5.1-5.9,10.3-11.7,15.4-17.6
					c29.7-34.4,59.5-68.7,89.2-103.1c2.2-2.5,4.4-3.6,7.8-3.6c16.1,0.2,32.3,0.1,49.3,0.1c-10.5,39.7-20.9,78.8-31.3,118
					c0.3,0.1,0.5,0.3,0.8,0.4c5.4-8.2,10.8-16.4,16.2-24.6c19.5-29.8,39-59.7,58.3-89.6c2-3.1,4.1-4.2,7.6-4.2
					c20.5,0.2,41.1,0.1,61.6,0.1c1.5,0,2.9,0.1,5,0.2c-1.1,2-1.8,3.4-2.6,4.7c-51.6,83.6-103,167-154.3,250.6
					c-2.3,3.8-4.7,5.1-9.1,5.1c-27.3-0.2-54.6-0.1-81.8-0.1c-1.7,0-3.3,0-5.6,0c10.7-40.4,21.2-80.3,31.7-120.1
					c-5.2-2.3-7.9,0.2-10.5,3.6c-29.3,37.8-58.6,75.5-88.1,113.1c-1.3,1.7-4,3.3-6,3.3c-34.7,0.2-69.3,0.1-104,0.1
					C0,477.4,0,477.1,0,476.7z"/>
			</defs>
			<defs>
				<path id="SVGID_35_" d="M733.3,0c3.8,1.1,7.9,1.7,11.6,3.2c7,2.7,12,7.9,15.7,14.4c14.3,25.7,28.7,51.4,42.8,77.2
					c5.6,10.4,2.3,18.8-8.5,23.1c-6.1,2.5-6.6,5.4-1.6,11c18.2,20.1,36.5,40.1,54.7,60.1c6.3,6.9,12.6,13.9,19.5,21.5
					c-2.1,0.2-3.3,0.4-4.6,0.4c-26.6,0-53.2-0.1-79.8,0c-3.4,0-5.5-1.1-7.5-3.8c-18.8-25-37.7-49.9-56.6-74.9
					c-1.4-1.9-3.1-3.6-4.6-5.4c-0.6,0.3-1.1,0.7-1.6,0.9c9.7,27.4,19.4,54.7,29.2,82.7c-27.3,0-53.8,0-81,0
					c-2.1-9.1-4.2-18.4-6.3-27.7c-13.3-59-26.7-118-40-176.9c-0.4-1.9-0.3-3.9-0.4-5.9C653.8,0,693.6,0,733.3,0z M684.1,47.5
					c2.1,5.7,3.6,10.7,5.6,15.5c0.5,1.2,2.2,2.5,3.5,2.5c5.2,0.3,10.4,0.4,15.6-0.1c2-0.2,4.8-2.1,5.5-4c2-5.1-3.8-13.6-9.3-13.8
					C698.3,47.2,691.6,47.5,684.1,47.5z"/>
			</defs>
			<defs>
				<path id="SVGID_36_" d="M744.1,375.8c28.3,0,55.6-0.1,82.8,0.1c1.5,0,3.5,1.7,4.1,3.1c2.3,5,4,10.3,6.2,15.4
					c3.8,8.9,16.7,13.1,25.2,8.3c4-2.2,5.6-6.7,3.8-11.4c-2.2-5.6-4.5-11.3-7.3-16.6c-3.4-6.5-8.8-10.3-16.6-10.3
					c-22.9,0.1-45.8,0.1-68.7,0c-4.4,0-8.8-0.4-13.1-0.9c-11.5-1.5-19.9-7.8-23.9-18.5c-4.5-12-8-24.5-11.6-36.9
					c-6.2-21.3-12.2-42.6-18.2-64c-0.7-2.6-1.5-5.2-1.7-7.9c-0.9-7.8,2.3-13.8,9.8-16.2c5.4-1.7,11.2-2.7,16.8-2.8
					c38.5-0.2,77.1-0.2,115.6-0.1c5,0,10.1,0.8,14.9,2c7.3,1.7,13.3,5.6,17.1,12.3c10.9,19.5,21.7,39.1,32.5,58.7
					c0.4,0.7,0.6,1.5,1.1,2.6c-1.9,0.1-3.3,0.3-4.8,0.3c-26.4,0-52.8-0.1-79.3,0.1c-3.6,0-5.5-0.9-6.7-4.4
					c-4.3-13.2-11.9-12.4-24.4-11c-3.3,0.4-4.6,3.4-3.5,6.6c1.5,4.3,3,8.6,5,12.6c2.3,4.4,6.6,6,11.4,6c13.9,0.1,27.9,0,41.9,0.1
					c15.5,0.1,31,0.2,46.4,0.8c5.2,0.2,10.6,1.8,15.7,3.5c5.7,1.9,10,5.8,13,11.3c22.4,40.6,45,81.2,67.4,121.8
					c0.8,1.5,1.6,3,2.3,4.5c7.6,17.8-2,32.7-21.3,32.7c-58.9,0.1-117.8,0.1-176.7,0c-15.4,0-27.2-7.8-32.5-24
					C758.7,428.4,751.8,402.4,744.1,375.8z"/>
			</defs>
			<use xlink:href="#SVGID_33_"  style="overflow:visible;fill:#1A1A1A;"/>
			<use xlink:href="#SVGID_34_"  style="overflow:visible;fill:#1A1A1A;"/>
			<use xlink:href="#SVGID_35_"  style="overflow:visible;fill:#1A1A1A;"/>
			<use xlink:href="#SVGID_36_"  style="overflow:visible;fill:#1A1A1A;"/>
			<clipPath id="SVGID_37_">
				<use xlink:href="#SVGID_33_"  style="overflow:visible;"/>
			</clipPath>
			<clipPath id="SVGID_38_" class="st7">
				<use xlink:href="#SVGID_34_"  style="overflow:visible;"/>
			</clipPath>
			<clipPath id="SVGID_39_" class="st8">
				<use xlink:href="#SVGID_35_"  style="overflow:visible;"/>
			</clipPath>
			<clipPath id="SVGID_40_" class="st9">
				<use xlink:href="#SVGID_36_"  style="overflow:visible;"/>
			</clipPath>
		</g>
	</g>
	<g>
		<g>
			<defs>
				<path id="SVGID_41_" d="M607,0c2.5,10.9,5.2,21.8,7.5,32.8c12.4,58.3,24.8,116.6,37.3,175c0.2,0.8,0.3,1.6,0.4,2.7
					c-26.2,0-52,0-78.4,0c-0.9-13.2-1.9-26.3-2.8-39.5c-11.8,0-23,0-34.5,0c-3.8,13.3-7.6,26.5-11.5,39.7c-49.8,0-99.2,0-149.3,0
					c12.3-54.4,24.5-108.3,36.8-162.8c-1.9-0.1-3.3-0.3-4.8-0.3c-25.4,0-50.8,0-76.2,0.2c-4,0.1-8,0.8-11.9,1.7
					c-4,0.9-7.4,2.8-6.8,7.9c0.6,4.6,4.5,8.3,9.3,8.4c11.6,0.1,23.2,0.1,34.9,0.1c8.4,0,16.8-0.1,25.3,0.1
					c11.3,0.3,16.6,6.3,14.3,17.4c-4,18.9-8.6,37.7-13.1,56.4c-3.6,15.2-7.6,30.3-10.9,45.6c-3.6,16.6-13.6,23.4-29.3,24.9
					c-11,1.1-22.2,0.8-33.3,0.8c-38.9,0.1-77.8,0.1-116.6-0.1c-5,0-10.2-0.6-14.9-2c-8.3-2.4-12-9.3-9.9-17.7
					c1.2-4.7,3-9.3,5.3-13.6c8-14.4,16.3-28.7,24.7-42.8c0.9-1.5,3.2-3.1,4.9-3.1c24.4-0.2,48.8-0.2,73.2-0.1c0.7,0,1.3,0.2,2.6,0.3
					c-0.7,1.9-1.5,3.5-2,5.2c-2.4,7.6,1.6,13.1,9.5,13.2c18.2,0.3,18.2,0.3,24.6-16.9c0.9-2.5,2.1-5,2.7-7.6
					c1.7-7-1.2-10.7-8.4-10.7c-21-0.1-42.1,0-63.1,0c-18.8,0-25.8-10.8-16.7-27.2c13.2-23.8,27-47.3,40.8-70.8
					c5.9-10,15.3-14.9,26.7-16.1c1.6-0.2,3.2-0.6,4.9-0.9c76.8,0,153.6,0,230.3,0c-5.6,14.4-11.2,28.8-16.6,43.3
					c-1.3,3.5-3.2,4.4-6.6,4.3c-10.7-0.2-21.5-0.1-32.5-0.1c-4.9,50.3-9.8,100.2-14.7,150c1.1-0.9,1.6-2,2-3
					c15.8-40.7,31.5-81.5,47.3-122.2c9.3-24.2,18.7-48.2,28.1-72.3C559.2,0,583.2,0,607,0z M568.1,127.1
					c-0.9-13.3-1.8-26.2-2.6-38.9c-3.9-1.2-5.7-0.2-6.3,3.3c-0.3,1.6-0.9,3.2-1.4,4.8c-2.8,10.2-5.7,20.2-8.7,30.8
					C555.6,127.1,561.5,127.1,568.1,127.1z"/>
			</defs>
			<use xlink:href="#SVGID_41_"  style="overflow:visible;fill:#1A1A1A;"/>
			<clipPath id="SVGID_42_">
				<use xlink:href="#SVGID_41_"  style="overflow:visible;"/>
			</clipPath>
		</g>
		<g>
			<defs>
				<path id="SVGID_43_" d="M607,0c2.5,10.9,5.2,21.8,7.5,32.8c12.4,58.3,24.8,116.6,37.3,175c0.2,0.8,0.3,1.6,0.4,2.7
					c-26.2,0-52,0-78.4,0c-0.9-13.2-1.9-26.3-2.8-39.5c-11.8,0-23,0-34.5,0c-3.8,13.3-7.6,26.5-11.5,39.7c-49.8,0-99.2,0-149.3,0
					c12.3-54.4,24.5-108.3,36.8-162.8c-1.9-0.1-3.3-0.3-4.8-0.3c-25.4,0-50.8,0-76.2,0.2c-4,0.1-8,0.8-11.9,1.7
					c-4,0.9-7.4,2.8-6.8,7.9c0.6,4.6,4.5,8.3,9.3,8.4c11.6,0.1,23.2,0.1,34.9,0.1c8.4,0,16.8-0.1,25.3,0.1
					c11.3,0.3,16.6,6.3,14.3,17.4c-4,18.9-8.6,37.7-13.1,56.4c-3.6,15.2-7.6,30.3-10.9,45.6c-3.6,16.6-13.6,23.4-29.3,24.9
					c-11,1.1-22.2,0.8-33.3,0.8c-38.9,0.1-77.8,0.1-116.6-0.1c-5,0-10.2-0.6-14.9-2c-8.3-2.4-12-9.3-9.9-17.7
					c1.2-4.7,3-9.3,5.3-13.6c8-14.4,16.3-28.7,24.7-42.8c0.9-1.5,3.2-3.1,4.9-3.1c24.4-0.2,48.8-0.2,73.2-0.1c0.7,0,1.3,0.2,2.6,0.3
					c-0.7,1.9-1.5,3.5-2,5.2c-2.4,7.6,1.6,13.1,9.5,13.2c18.2,0.3,18.2,0.3,24.6-16.9c0.9-2.5,2.1-5,2.7-7.6
					c1.7-7-1.2-10.7-8.4-10.7c-21-0.1-42.1,0-63.1,0c-18.8,0-25.8-10.8-16.7-27.2c13.2-23.8,27-47.3,40.8-70.8
					c5.9-10,15.3-14.9,26.7-16.1c1.6-0.2,3.2-0.6,4.9-0.9c76.8,0,153.6,0,230.3,0c-5.6,14.4-11.2,28.8-16.6,43.3
					c-1.3,3.5-3.2,4.4-6.6,4.3c-10.7-0.2-21.5-0.1-32.5-0.1c-4.9,50.3-9.8,100.2-14.7,150c1.1-0.9,1.6-2,2-3
					c15.8-40.7,31.5-81.5,47.3-122.2c9.3-24.2,18.7-48.2,28.1-72.3C559.2,0,583.2,0,607,0z M568.1,127.1
					c-0.9-13.3-1.8-26.2-2.6-38.9c-3.9-1.2-5.7-0.2-6.3,3.3c-0.3,1.6-0.9,3.2-1.4,4.8c-2.8,10.2-5.7,20.2-8.7,30.8
					C555.6,127.1,561.5,127.1,568.1,127.1z"/>
			</defs>
			<defs>
				<path id="SVGID_44_" d="M0,476.7c3.1-4.9,6.3-9.8,9.2-14.8C55.4,382,101.6,302,147.6,222c2-3.5,4.2-4.9,8.3-4.8
					c19.5,0.2,39,0.1,59.6,0.1C193.4,259,171.7,300,149.9,341c0.2,0.2,0.4,0.3,0.7,0.5c5.1-5.9,10.3-11.7,15.4-17.6
					c29.7-34.4,59.5-68.7,89.2-103.1c2.2-2.5,4.4-3.6,7.8-3.6c16.1,0.2,32.3,0.1,49.3,0.1c-10.5,39.7-20.9,78.8-31.3,118
					c0.3,0.1,0.5,0.3,0.8,0.4c5.4-8.2,10.8-16.4,16.2-24.6c19.5-29.8,39-59.7,58.3-89.6c2-3.1,4.1-4.2,7.6-4.2
					c20.5,0.2,41.1,0.1,61.6,0.1c1.5,0,2.9,0.1,5,0.2c-1.1,2-1.8,3.4-2.6,4.7c-51.6,83.6-103,167-154.3,250.6
					c-2.3,3.8-4.7,5.1-9.1,5.1c-27.3-0.2-54.6-0.1-81.8-0.1c-1.7,0-3.3,0-5.6,0c10.7-40.4,21.2-80.3,31.7-120.1
					c-5.2-2.3-7.9,0.2-10.5,3.6c-29.3,37.8-58.6,75.5-88.1,113.1c-1.3,1.7-4,3.3-6,3.3c-34.7,0.2-69.3,0.1-104,0.1
					C0,477.4,0,477.1,0,476.7z"/>
			</defs>
			<use xlink:href="#SVGID_43_"  style="overflow:visible;fill:#1A1A1A;"/>
			<use xlink:href="#SVGID_44_"  style="overflow:visible;fill:#1A1A1A;"/>
			<clipPath id="SVGID_45_">
				<use xlink:href="#SVGID_43_"  style="overflow:visible;"/>
			</clipPath>
			<clipPath id="SVGID_46_" class="st10">
				<use xlink:href="#SVGID_44_"  style="overflow:visible;"/>
			</clipPath>
		</g>
		<g>
			<defs>
				<path id="SVGID_47_" d="M607,0c2.5,10.9,5.2,21.8,7.5,32.8c12.4,58.3,24.8,116.6,37.3,175c0.2,0.8,0.3,1.6,0.4,2.7
					c-26.2,0-52,0-78.4,0c-0.9-13.2-1.9-26.3-2.8-39.5c-11.8,0-23,0-34.5,0c-3.8,13.3-7.6,26.5-11.5,39.7c-49.8,0-99.2,0-149.3,0
					c12.3-54.4,24.5-108.3,36.8-162.8c-1.9-0.1-3.3-0.3-4.8-0.3c-25.4,0-50.8,0-76.2,0.2c-4,0.1-8,0.8-11.9,1.7
					c-4,0.9-7.4,2.8-6.8,7.9c0.6,4.6,4.5,8.3,9.3,8.4c11.6,0.1,23.2,0.1,34.9,0.1c8.4,0,16.8-0.1,25.3,0.1
					c11.3,0.3,16.6,6.3,14.3,17.4c-4,18.9-8.6,37.7-13.1,56.4c-3.6,15.2-7.6,30.3-10.9,45.6c-3.6,16.6-13.6,23.4-29.3,24.9
					c-11,1.1-22.2,0.8-33.3,0.8c-38.9,0.1-77.8,0.1-116.6-0.1c-5,0-10.2-0.6-14.9-2c-8.3-2.4-12-9.3-9.9-17.7
					c1.2-4.7,3-9.3,5.3-13.6c8-14.4,16.3-28.7,24.7-42.8c0.9-1.5,3.2-3.1,4.9-3.1c24.4-0.2,48.8-0.2,73.2-0.1c0.7,0,1.3,0.2,2.6,0.3
					c-0.7,1.9-1.5,3.5-2,5.2c-2.4,7.6,1.6,13.1,9.5,13.2c18.2,0.3,18.2,0.3,24.6-16.9c0.9-2.5,2.1-5,2.7-7.6
					c1.7-7-1.2-10.7-8.4-10.7c-21-0.1-42.1,0-63.1,0c-18.8,0-25.8-10.8-16.7-27.2c13.2-23.8,27-47.3,40.8-70.8
					c5.9-10,15.3-14.9,26.7-16.1c1.6-0.2,3.2-0.6,4.9-0.9c76.8,0,153.6,0,230.3,0c-5.6,14.4-11.2,28.8-16.6,43.3
					c-1.3,3.5-3.2,4.4-6.6,4.3c-10.7-0.2-21.5-0.1-32.5-0.1c-4.9,50.3-9.8,100.2-14.7,150c1.1-0.9,1.6-2,2-3
					c15.8-40.7,31.5-81.5,47.3-122.2c9.3-24.2,18.7-48.2,28.1-72.3C559.2,0,583.2,0,607,0z M568.1,127.1
					c-0.9-13.3-1.8-26.2-2.6-38.9c-3.9-1.2-5.7-0.2-6.3,3.3c-0.3,1.6-0.9,3.2-1.4,4.8c-2.8,10.2-5.7,20.2-8.7,30.8
					C555.6,127.1,561.5,127.1,568.1,127.1z"/>
			</defs>
			<defs>
				<path id="SVGID_48_" d="M0,476.7c3.1-4.9,6.3-9.8,9.2-14.8C55.4,382,101.6,302,147.6,222c2-3.5,4.2-4.9,8.3-4.8
					c19.5,0.2,39,0.1,59.6,0.1C193.4,259,171.7,300,149.9,341c0.2,0.2,0.4,0.3,0.7,0.5c5.1-5.9,10.3-11.7,15.4-17.6
					c29.7-34.4,59.5-68.7,89.2-103.1c2.2-2.5,4.4-3.6,7.8-3.6c16.1,0.2,32.3,0.1,49.3,0.1c-10.5,39.7-20.9,78.8-31.3,118
					c0.3,0.1,0.5,0.3,0.8,0.4c5.4-8.2,10.8-16.4,16.2-24.6c19.5-29.8,39-59.7,58.3-89.6c2-3.1,4.1-4.2,7.6-4.2
					c20.5,0.2,41.1,0.1,61.6,0.1c1.5,0,2.9,0.1,5,0.2c-1.1,2-1.8,3.4-2.6,4.7c-51.6,83.6-103,167-154.3,250.6
					c-2.3,3.8-4.7,5.1-9.1,5.1c-27.3-0.2-54.6-0.1-81.8-0.1c-1.7,0-3.3,0-5.6,0c10.7-40.4,21.2-80.3,31.7-120.1
					c-5.2-2.3-7.9,0.2-10.5,3.6c-29.3,37.8-58.6,75.5-88.1,113.1c-1.3,1.7-4,3.3-6,3.3c-34.7,0.2-69.3,0.1-104,0.1
					C0,477.4,0,477.1,0,476.7z"/>
			</defs>
			<defs>
				<path id="SVGID_49_" d="M733.3,0c3.8,1.1,7.9,1.7,11.6,3.2c7,2.7,12,7.9,15.7,14.4c14.3,25.7,28.7,51.4,42.8,77.2
					c5.6,10.4,2.3,18.8-8.5,23.1c-6.1,2.5-6.6,5.4-1.6,11c18.2,20.1,36.5,40.1,54.7,60.1c6.3,6.9,12.6,13.9,19.5,21.5
					c-2.1,0.2-3.3,0.4-4.6,0.4c-26.6,0-53.2-0.1-79.8,0c-3.4,0-5.5-1.1-7.5-3.8c-18.8-25-37.7-49.9-56.6-74.9
					c-1.4-1.9-3.1-3.6-4.6-5.4c-0.6,0.3-1.1,0.7-1.6,0.9c9.7,27.4,19.4,54.7,29.2,82.7c-27.3,0-53.8,0-81,0
					c-2.1-9.1-4.2-18.4-6.3-27.7c-13.3-59-26.7-118-40-176.9c-0.4-1.9-0.3-3.9-0.4-5.9C653.8,0,693.6,0,733.3,0z M684.1,47.5
					c2.1,5.7,3.6,10.7,5.6,15.5c0.5,1.2,2.2,2.5,3.5,2.5c5.2,0.3,10.4,0.4,15.6-0.1c2-0.2,4.8-2.1,5.5-4c2-5.1-3.8-13.6-9.3-13.8
					C698.3,47.2,691.6,47.5,684.1,47.5z"/>
			</defs>
			<use xlink:href="#SVGID_47_"  style="overflow:visible;fill:#1A1A1A;"/>
			<use xlink:href="#SVGID_48_"  style="overflow:visible;fill:#1A1A1A;"/>
			<use xlink:href="#SVGID_49_"  style="overflow:visible;fill:#1A1A1A;"/>
			<clipPath id="SVGID_50_">
				<use xlink:href="#SVGID_47_"  style="overflow:visible;"/>
			</clipPath>
			<clipPath id="SVGID_51_" class="st11">
				<use xlink:href="#SVGID_48_"  style="overflow:visible;"/>
			</clipPath>
			<clipPath id="SVGID_52_" class="st12">
				<use xlink:href="#SVGID_49_"  style="overflow:visible;"/>
			</clipPath>
		</g>
		<g>
			<defs>
				<path id="SVGID_53_" d="M607,0c2.5,10.9,5.2,21.8,7.5,32.8c12.4,58.3,24.8,116.6,37.3,175c0.2,0.8,0.3,1.6,0.4,2.7
					c-26.2,0-52,0-78.4,0c-0.9-13.2-1.9-26.3-2.8-39.5c-11.8,0-23,0-34.5,0c-3.8,13.3-7.6,26.5-11.5,39.7c-49.8,0-99.2,0-149.3,0
					c12.3-54.4,24.5-108.3,36.8-162.8c-1.9-0.1-3.3-0.3-4.8-0.3c-25.4,0-50.8,0-76.2,0.2c-4,0.1-8,0.8-11.9,1.7
					c-4,0.9-7.4,2.8-6.8,7.9c0.6,4.6,4.5,8.3,9.3,8.4c11.6,0.1,23.2,0.1,34.9,0.1c8.4,0,16.8-0.1,25.3,0.1
					c11.3,0.3,16.6,6.3,14.3,17.4c-4,18.9-8.6,37.7-13.1,56.4c-3.6,15.2-7.6,30.3-10.9,45.6c-3.6,16.6-13.6,23.4-29.3,24.9
					c-11,1.1-22.2,0.8-33.3,0.8c-38.9,0.1-77.8,0.1-116.6-0.1c-5,0-10.2-0.6-14.9-2c-8.3-2.4-12-9.3-9.9-17.7
					c1.2-4.7,3-9.3,5.3-13.6c8-14.4,16.3-28.7,24.7-42.8c0.9-1.5,3.2-3.1,4.9-3.1c24.4-0.2,48.8-0.2,73.2-0.1c0.7,0,1.3,0.2,2.6,0.3
					c-0.7,1.9-1.5,3.5-2,5.2c-2.4,7.6,1.6,13.1,9.5,13.2c18.2,0.3,18.2,0.3,24.6-16.9c0.9-2.5,2.1-5,2.7-7.6
					c1.7-7-1.2-10.7-8.4-10.7c-21-0.1-42.1,0-63.1,0c-18.8,0-25.8-10.8-16.7-27.2c13.2-23.8,27-47.3,40.8-70.8
					c5.9-10,15.3-14.9,26.7-16.1c1.6-0.2,3.2-0.6,4.9-0.9c76.8,0,153.6,0,230.3,0c-5.6,14.4-11.2,28.8-16.6,43.3
					c-1.3,3.5-3.2,4.4-6.6,4.3c-10.7-0.2-21.5-0.1-32.5-0.1c-4.9,50.3-9.8,100.2-14.7,150c1.1-0.9,1.6-2,2-3
					c15.8-40.7,31.5-81.5,47.3-122.2c9.3-24.2,18.7-48.2,28.1-72.3C559.2,0,583.2,0,607,0z M568.1,127.1
					c-0.9-13.3-1.8-26.2-2.6-38.9c-3.9-1.2-5.7-0.2-6.3,3.3c-0.3,1.6-0.9,3.2-1.4,4.8c-2.8,10.2-5.7,20.2-8.7,30.8
					C555.6,127.1,561.5,127.1,568.1,127.1z"/>
			</defs>
			<defs>
				<path id="SVGID_54_" d="M0,476.7c3.1-4.9,6.3-9.8,9.2-14.8C55.4,382,101.6,302,147.6,222c2-3.5,4.2-4.9,8.3-4.8
					c19.5,0.2,39,0.1,59.6,0.1C193.4,259,171.7,300,149.9,341c0.2,0.2,0.4,0.3,0.7,0.5c5.1-5.9,10.3-11.7,15.4-17.6
					c29.7-34.4,59.5-68.7,89.2-103.1c2.2-2.5,4.4-3.6,7.8-3.6c16.1,0.2,32.3,0.1,49.3,0.1c-10.5,39.7-20.9,78.8-31.3,118
					c0.3,0.1,0.5,0.3,0.8,0.4c5.4-8.2,10.8-16.4,16.2-24.6c19.5-29.8,39-59.7,58.3-89.6c2-3.1,4.1-4.2,7.6-4.2
					c20.5,0.2,41.1,0.1,61.6,0.1c1.5,0,2.9,0.1,5,0.2c-1.1,2-1.8,3.4-2.6,4.7c-51.6,83.6-103,167-154.3,250.6
					c-2.3,3.8-4.7,5.1-9.1,5.1c-27.3-0.2-54.6-0.1-81.8-0.1c-1.7,0-3.3,0-5.6,0c10.7-40.4,21.2-80.3,31.7-120.1
					c-5.2-2.3-7.9,0.2-10.5,3.6c-29.3,37.8-58.6,75.5-88.1,113.1c-1.3,1.7-4,3.3-6,3.3c-34.7,0.2-69.3,0.1-104,0.1
					C0,477.4,0,477.1,0,476.7z"/>
			</defs>
			<defs>
				<path id="SVGID_55_" d="M733.3,0c3.8,1.1,7.9,1.7,11.6,3.2c7,2.7,12,7.9,15.7,14.4c14.3,25.7,28.7,51.4,42.8,77.2
					c5.6,10.4,2.3,18.8-8.5,23.1c-6.1,2.5-6.6,5.4-1.6,11c18.2,20.1,36.5,40.1,54.7,60.1c6.3,6.9,12.6,13.9,19.5,21.5
					c-2.1,0.2-3.3,0.4-4.6,0.4c-26.6,0-53.2-0.1-79.8,0c-3.4,0-5.5-1.1-7.5-3.8c-18.8-25-37.7-49.9-56.6-74.9
					c-1.4-1.9-3.1-3.6-4.6-5.4c-0.6,0.3-1.1,0.7-1.6,0.9c9.7,27.4,19.4,54.7,29.2,82.7c-27.3,0-53.8,0-81,0
					c-2.1-9.1-4.2-18.4-6.3-27.7c-13.3-59-26.7-118-40-176.9c-0.4-1.9-0.3-3.9-0.4-5.9C653.8,0,693.6,0,733.3,0z M684.1,47.5
					c2.1,5.7,3.6,10.7,5.6,15.5c0.5,1.2,2.2,2.5,3.5,2.5c5.2,0.3,10.4,0.4,15.6-0.1c2-0.2,4.8-2.1,5.5-4c2-5.1-3.8-13.6-9.3-13.8
					C698.3,47.2,691.6,47.5,684.1,47.5z"/>
			</defs>
			<defs>
				<path id="SVGID_56_" d="M744.1,375.8c28.3,0,55.6-0.1,82.8,0.1c1.5,0,3.5,1.7,4.1,3.1c2.3,5,4,10.3,6.2,15.4
					c3.8,8.9,16.7,13.1,25.2,8.3c4-2.2,5.6-6.7,3.8-11.4c-2.2-5.6-4.5-11.3-7.3-16.6c-3.4-6.5-8.8-10.3-16.6-10.3
					c-22.9,0.1-45.8,0.1-68.7,0c-4.4,0-8.8-0.4-13.1-0.9c-11.5-1.5-19.9-7.8-23.9-18.5c-4.5-12-8-24.5-11.6-36.9
					c-6.2-21.3-12.2-42.6-18.2-64c-0.7-2.6-1.5-5.2-1.7-7.9c-0.9-7.8,2.3-13.8,9.8-16.2c5.4-1.7,11.2-2.7,16.8-2.8
					c38.5-0.2,77.1-0.2,115.6-0.1c5,0,10.1,0.8,14.9,2c7.3,1.7,13.3,5.6,17.1,12.3c10.9,19.5,21.7,39.1,32.5,58.7
					c0.4,0.7,0.6,1.5,1.1,2.6c-1.9,0.1-3.3,0.3-4.8,0.3c-26.4,0-52.8-0.1-79.3,0.1c-3.6,0-5.5-0.9-6.7-4.4
					c-4.3-13.2-11.9-12.4-24.4-11c-3.3,0.4-4.6,3.4-3.5,6.6c1.5,4.3,3,8.6,5,12.6c2.3,4.4,6.6,6,11.4,6c13.9,0.1,27.9,0,41.9,0.1
					c15.5,0.1,31,0.2,46.4,0.8c5.2,0.2,10.6,1.8,15.7,3.5c5.7,1.9,10,5.8,13,11.3c22.4,40.6,45,81.2,67.4,121.8
					c0.8,1.5,1.6,3,2.3,4.5c7.6,17.8-2,32.7-21.3,32.7c-58.9,0.1-117.8,0.1-176.7,0c-15.4,0-27.2-7.8-32.5-24
					C758.7,428.4,751.8,402.4,744.1,375.8z"/>
			</defs>
			<use xlink:href="#SVGID_53_"  style="overflow:visible;fill:#1A1A1A;"/>
			<use xlink:href="#SVGID_54_"  style="overflow:visible;fill:#1A1A1A;"/>
			<use xlink:href="#SVGID_55_"  style="overflow:visible;fill:#1A1A1A;"/>
			<use xlink:href="#SVGID_56_"  style="overflow:visible;fill:#1A1A1A;"/>
			<clipPath id="SVGID_57_">
				<use xlink:href="#SVGID_53_"  style="overflow:visible;"/>
			</clipPath>
			<clipPath id="SVGID_58_" class="st13">
				<use xlink:href="#SVGID_54_"  style="overflow:visible;"/>
			</clipPath>
			<clipPath id="SVGID_59_" class="st14">
				<use xlink:href="#SVGID_55_"  style="overflow:visible;"/>
			</clipPath>
			<clipPath id="SVGID_60_" class="st15">
				<use xlink:href="#SVGID_56_"  style="overflow:visible;"/>
			</clipPath>
		</g>
		<g>
			<defs>
				<path id="SVGID_61_" d="M607,0c2.5,10.9,5.2,21.8,7.5,32.8c12.4,58.3,24.8,116.6,37.3,175c0.2,0.8,0.3,1.6,0.4,2.7
					c-26.2,0-52,0-78.4,0c-0.9-13.2-1.9-26.3-2.8-39.5c-11.8,0-23,0-34.5,0c-3.8,13.3-7.6,26.5-11.5,39.7c-49.8,0-99.2,0-149.3,0
					c12.3-54.4,24.5-108.3,36.8-162.8c-1.9-0.1-3.3-0.3-4.8-0.3c-25.4,0-50.8,0-76.2,0.2c-4,0.1-8,0.8-11.9,1.7
					c-4,0.9-7.4,2.8-6.8,7.9c0.6,4.6,4.5,8.3,9.3,8.4c11.6,0.1,23.2,0.1,34.9,0.1c8.4,0,16.8-0.1,25.3,0.1
					c11.3,0.3,16.6,6.3,14.3,17.4c-4,18.9-8.6,37.7-13.1,56.4c-3.6,15.2-7.6,30.3-10.9,45.6c-3.6,16.6-13.6,23.4-29.3,24.9
					c-11,1.1-22.2,0.8-33.3,0.8c-38.9,0.1-77.8,0.1-116.6-0.1c-5,0-10.2-0.6-14.9-2c-8.3-2.4-12-9.3-9.9-17.7
					c1.2-4.7,3-9.3,5.3-13.6c8-14.4,16.3-28.7,24.7-42.8c0.9-1.5,3.2-3.1,4.9-3.1c24.4-0.2,48.8-0.2,73.2-0.1c0.7,0,1.3,0.2,2.6,0.3
					c-0.7,1.9-1.5,3.5-2,5.2c-2.4,7.6,1.6,13.1,9.5,13.2c18.2,0.3,18.2,0.3,24.6-16.9c0.9-2.5,2.1-5,2.7-7.6
					c1.7-7-1.2-10.7-8.4-10.7c-21-0.1-42.1,0-63.1,0c-18.8,0-25.8-10.8-16.7-27.2c13.2-23.8,27-47.3,40.8-70.8
					c5.9-10,15.3-14.9,26.7-16.1c1.6-0.2,3.2-0.6,4.9-0.9c76.8,0,153.6,0,230.3,0c-5.6,14.4-11.2,28.8-16.6,43.3
					c-1.3,3.5-3.2,4.4-6.6,4.3c-10.7-0.2-21.5-0.1-32.5-0.1c-4.9,50.3-9.8,100.2-14.7,150c1.1-0.9,1.6-2,2-3
					c15.8-40.7,31.5-81.5,47.3-122.2c9.3-24.2,18.7-48.2,28.1-72.3C559.2,0,583.2,0,607,0z M568.1,127.1
					c-0.9-13.3-1.8-26.2-2.6-38.9c-3.9-1.2-5.7-0.2-6.3,3.3c-0.3,1.6-0.9,3.2-1.4,4.8c-2.8,10.2-5.7,20.2-8.7,30.8
					C555.6,127.1,561.5,127.1,568.1,127.1z"/>
			</defs>
			<defs>
				<path id="SVGID_62_" d="M0,476.7c3.1-4.9,6.3-9.8,9.2-14.8C55.4,382,101.6,302,147.6,222c2-3.5,4.2-4.9,8.3-4.8
					c19.5,0.2,39,0.1,59.6,0.1C193.4,259,171.7,300,149.9,341c0.2,0.2,0.4,0.3,0.7,0.5c5.1-5.9,10.3-11.7,15.4-17.6
					c29.7-34.4,59.5-68.7,89.2-103.1c2.2-2.5,4.4-3.6,7.8-3.6c16.1,0.2,32.3,0.1,49.3,0.1c-10.5,39.7-20.9,78.8-31.3,118
					c0.3,0.1,0.5,0.3,0.8,0.4c5.4-8.2,10.8-16.4,16.2-24.6c19.5-29.8,39-59.7,58.3-89.6c2-3.1,4.1-4.2,7.6-4.2
					c20.5,0.2,41.1,0.1,61.6,0.1c1.5,0,2.9,0.1,5,0.2c-1.1,2-1.8,3.4-2.6,4.7c-51.6,83.6-103,167-154.3,250.6
					c-2.3,3.8-4.7,5.1-9.1,5.1c-27.3-0.2-54.6-0.1-81.8-0.1c-1.7,0-3.3,0-5.6,0c10.7-40.4,21.2-80.3,31.7-120.1
					c-5.2-2.3-7.9,0.2-10.5,3.6c-29.3,37.8-58.6,75.5-88.1,113.1c-1.3,1.7-4,3.3-6,3.3c-34.7,0.2-69.3,0.1-104,0.1
					C0,477.4,0,477.1,0,476.7z"/>
			</defs>
			<defs>
				<path id="SVGID_63_" d="M733.3,0c3.8,1.1,7.9,1.7,11.6,3.2c7,2.7,12,7.9,15.7,14.4c14.3,25.7,28.7,51.4,42.8,77.2
					c5.6,10.4,2.3,18.8-8.5,23.1c-6.1,2.5-6.6,5.4-1.6,11c18.2,20.1,36.5,40.1,54.7,60.1c6.3,6.9,12.6,13.9,19.5,21.5
					c-2.1,0.2-3.3,0.4-4.6,0.4c-26.6,0-53.2-0.1-79.8,0c-3.4,0-5.5-1.1-7.5-3.8c-18.8-25-37.7-49.9-56.6-74.9
					c-1.4-1.9-3.1-3.6-4.6-5.4c-0.6,0.3-1.1,0.7-1.6,0.9c9.7,27.4,19.4,54.7,29.2,82.7c-27.3,0-53.8,0-81,0
					c-2.1-9.1-4.2-18.4-6.3-27.7c-13.3-59-26.7-118-40-176.9c-0.4-1.9-0.3-3.9-0.4-5.9C653.8,0,693.6,0,733.3,0z M684.1,47.5
					c2.1,5.7,3.6,10.7,5.6,15.5c0.5,1.2,2.2,2.5,3.5,2.5c5.2,0.3,10.4,0.4,15.6-0.1c2-0.2,4.8-2.1,5.5-4c2-5.1-3.8-13.6-9.3-13.8
					C698.3,47.2,691.6,47.5,684.1,47.5z"/>
			</defs>
			<defs>
				<path id="SVGID_64_" d="M744.1,375.8c28.3,0,55.6-0.1,82.8,0.1c1.5,0,3.5,1.7,4.1,3.1c2.3,5,4,10.3,6.2,15.4
					c3.8,8.9,16.7,13.1,25.2,8.3c4-2.2,5.6-6.7,3.8-11.4c-2.2-5.6-4.5-11.3-7.3-16.6c-3.4-6.5-8.8-10.3-16.6-10.3
					c-22.9,0.1-45.8,0.1-68.7,0c-4.4,0-8.8-0.4-13.1-0.9c-11.5-1.5-19.9-7.8-23.9-18.5c-4.5-12-8-24.5-11.6-36.9
					c-6.2-21.3-12.2-42.6-18.2-64c-0.7-2.6-1.5-5.2-1.7-7.9c-0.9-7.8,2.3-13.8,9.8-16.2c5.4-1.7,11.2-2.7,16.8-2.8
					c38.5-0.2,77.1-0.2,115.6-0.1c5,0,10.1,0.8,14.9,2c7.3,1.7,13.3,5.6,17.1,12.3c10.9,19.5,21.7,39.1,32.5,58.7
					c0.4,0.7,0.6,1.5,1.1,2.6c-1.9,0.1-3.3,0.3-4.8,0.3c-26.4,0-52.8-0.1-79.3,0.1c-3.6,0-5.5-0.9-6.7-4.4
					c-4.3-13.2-11.9-12.4-24.4-11c-3.3,0.4-4.6,3.4-3.5,6.6c1.5,4.3,3,8.6,5,12.6c2.3,4.4,6.6,6,11.4,6c13.9,0.1,27.9,0,41.9,0.1
					c15.5,0.1,31,0.2,46.4,0.8c5.2,0.2,10.6,1.8,15.7,3.5c5.7,1.9,10,5.8,13,11.3c22.4,40.6,45,81.2,67.4,121.8
					c0.8,1.5,1.6,3,2.3,4.5c7.6,17.8-2,32.7-21.3,32.7c-58.9,0.1-117.8,0.1-176.7,0c-15.4,0-27.2-7.8-32.5-24
					C758.7,428.4,751.8,402.4,744.1,375.8z"/>
			</defs>
			<defs>
				<path id="SVGID_65_" d="M630.6,477.6c-30.7,0-60.6,0-91,0c-2.1-86.6-4.1-173-6.2-260c2-0.1,3.8-0.2,5.6-0.2
					c42.1,0,84.2-0.1,126.2,0c17.2,0,31,10,35.6,26.6c7.8,27.6,15.5,55.3,22.6,83.1c1.8,7,1.7,14.7,0.9,21.9
					c-0.9,8.5-6.8,14.1-15.2,15.3c-8.3,1.1-10.4,5.4-5.1,12.9c11.4,16.2,23,32.3,34.6,48.4c11.3,15.7,22.6,31.4,33.9,47.1
					c1.1,1.5,2,3,3.5,5.2c-2.5,0-4.1,0-5.7,0c-30.5,0-60.9-0.1-91.4,0.1c-3.5,0-5.3-1.1-6.9-4.2c-16.2-31.3-32.6-62.6-49-93.9
					c-0.9-1.7-2.3-3-3.5-4.5c-0.6,0.3-1.1,0.6-1.6,0.8C622.2,409.8,626.4,443.4,630.6,477.6z M608.9,303.3c7.5,0,14.6,0.1,21.6,0
					c5.6-0.1,8-1.8,7.8-7.4c-0.2-4.7-1.5-9.5-3.2-13.9c-0.7-1.9-3.7-4-5.8-4.1c-7.6-0.5-15.3-0.2-23.6-0.2
					C606.8,286.4,607.8,294.6,608.9,303.3z"/>
			</defs>
			<use xlink:href="#SVGID_61_"  style="overflow:visible;fill:#1A1A1A;"/>
			<use xlink:href="#SVGID_62_"  style="overflow:visible;fill:#1A1A1A;"/>
			<use xlink:href="#SVGID_63_"  style="overflow:visible;fill:#1A1A1A;"/>
			<use xlink:href="#SVGID_64_"  style="overflow:visible;fill:#1A1A1A;"/>
			<use xlink:href="#SVGID_65_"  style="overflow:visible;fill:#1A1A1A;"/>
			<clipPath id="SVGID_66_">
				<use xlink:href="#SVGID_61_"  style="overflow:visible;"/>
			</clipPath>
			<clipPath id="SVGID_67_" class="st16">
				<use xlink:href="#SVGID_62_"  style="overflow:visible;"/>
			</clipPath>
			<clipPath id="SVGID_68_" class="st17">
				<use xlink:href="#SVGID_63_"  style="overflow:visible;"/>
			</clipPath>
			<clipPath id="SVGID_69_" class="st18">
				<use xlink:href="#SVGID_64_"  style="overflow:visible;"/>
			</clipPath>
			<clipPath id="SVGID_70_" class="st19">
				<use xlink:href="#SVGID_65_"  style="overflow:visible;"/>
			</clipPath>
		</g>
	</g>
</g>
<g id="logo-stroke">
	<path class="st20" d="M607,0c2.5,10.9,5.2,21.8,7.5,32.8c12.4,58.3,24.8,116.6,37.3,175c0.2,0.8,0.3,1.6,0.4,2.7
		c-26.2,0-52,0-78.4,0c-0.9-13.2-1.9-26.3-2.8-39.5c-11.8,0-23,0-34.5,0c-3.8,13.3-7.6,26.5-11.5,39.7c-49.8,0-99.2,0-149.3,0
		c12.3-54.4,24.5-108.3,36.8-162.8c-1.9-0.1-3.3-0.3-4.8-0.3c-25.4,0-50.8,0-76.2,0.2c-4,0.1-8,0.8-11.9,1.7c-4,0.9-7.4,2.8-6.8,7.9
		c0.6,4.6,4.5,8.3,9.3,8.4c11.6,0.1,23.2,0.1,34.9,0.1c8.4,0,16.8-0.1,25.3,0.1c11.3,0.3,16.6,6.3,14.3,17.4
		c-4,18.9-8.6,37.7-13.1,56.4c-3.6,15.2-7.6,30.3-10.9,45.6c-3.6,16.6-13.6,23.4-29.3,24.9c-11,1.1-22.2,0.8-33.3,0.8
		c-38.9,0.1-77.8,0.1-116.6-0.1c-5,0-10.2-0.6-14.9-2c-8.3-2.4-12-9.3-9.9-17.7c1.2-4.7,3-9.3,5.3-13.6c8-14.4,16.3-28.7,24.7-42.8
		c0.9-1.5,3.2-3.1,4.9-3.1c24.4-0.2,48.8-0.2,73.2-0.1c0.7,0,1.3,0.2,2.6,0.3c-0.7,1.9-1.5,3.5-2,5.2c-2.4,7.6,1.6,13.1,9.5,13.2
		c18.2,0.3,18.2,0.3,24.6-16.9c0.9-2.5,2.1-5,2.7-7.6c1.7-7-1.2-10.7-8.4-10.7c-21-0.1-42.1,0-63.1,0c-18.8,0-25.8-10.8-16.7-27.2
		c13.2-23.8,27-47.3,40.8-70.8c5.9-10,15.3-14.9,26.7-16.1c1.6-0.2,3.2-0.6,4.9-0.9c76.8,0,153.6,0,230.3,0
		c-5.6,14.4-11.2,28.8-16.6,43.3c-1.3,3.5-3.2,4.4-6.6,4.3c-10.7-0.2-21.5-0.1-32.5-0.1c-4.9,50.3-9.8,100.2-14.7,150
		c1.1-0.9,1.6-2,2-3c15.8-40.7,31.5-81.5,47.3-122.2c9.3-24.2,18.7-48.2,28.1-72.3C559.2,0,583.2,0,607,0z M568.1,127.1
		c-0.9-13.3-1.8-26.2-2.6-38.9c-3.9-1.2-5.7-0.2-6.3,3.3c-0.3,1.6-0.9,3.2-1.4,4.8c-2.8,10.2-5.7,20.2-8.7,30.8
		C555.6,127.1,561.5,127.1,568.1,127.1z"/>
	<path class="st20" d="M0,476.7c3.1-4.9,6.3-9.8,9.2-14.8C55.4,382,101.6,302,147.6,222c2-3.5,4.2-4.9,8.3-4.8
		c19.5,0.2,39,0.1,59.6,0.1C193.4,259,171.7,300,149.9,341c0.2,0.2,0.4,0.3,0.7,0.5c5.1-5.9,10.3-11.7,15.4-17.6
		c29.7-34.4,59.5-68.7,89.2-103.1c2.2-2.5,4.4-3.6,7.8-3.6c16.1,0.2,32.3,0.1,49.3,0.1c-10.5,39.7-20.9,78.8-31.3,118
		c0.3,0.1,0.5,0.3,0.8,0.4c5.4-8.2,10.8-16.4,16.2-24.6c19.5-29.8,39-59.7,58.3-89.6c2-3.1,4.1-4.2,7.6-4.2
		c20.5,0.2,41.1,0.1,61.6,0.1c1.5,0,2.9,0.1,5,0.2c-1.1,2-1.8,3.4-2.6,4.7c-51.6,83.6-103,167-154.3,250.6c-2.3,3.8-4.7,5.1-9.1,5.1
		c-27.3-0.2-54.6-0.1-81.8-0.1c-1.7,0-3.3,0-5.6,0c10.7-40.4,21.2-80.3,31.7-120.1c-5.2-2.3-7.9,0.2-10.5,3.6
		c-29.3,37.8-58.6,75.5-88.1,113.1c-1.3,1.7-4,3.3-6,3.3c-34.7,0.2-69.3,0.1-104,0.1C0,477.4,0,477.1,0,476.7z"/>
	<path class="st20" d="M733.3,0c3.8,1.1,7.9,1.7,11.6,3.2c7,2.7,12,7.9,15.7,14.4c14.3,25.7,28.7,51.4,42.8,77.2
		c5.6,10.4,2.3,18.8-8.5,23.1c-6.1,2.5-6.6,5.4-1.6,11c18.2,20.1,36.5,40.1,54.7,60.1c6.3,6.9,12.6,13.9,19.5,21.5
		c-2.1,0.2-3.3,0.4-4.6,0.4c-26.6,0-53.2-0.1-79.8,0c-3.4,0-5.5-1.1-7.5-3.8c-18.8-25-37.7-49.9-56.6-74.9c-1.4-1.9-3.1-3.6-4.6-5.4
		c-0.6,0.3-1.1,0.7-1.6,0.9c9.7,27.4,19.4,54.7,29.2,82.7c-27.3,0-53.8,0-81,0c-2.1-9.1-4.2-18.4-6.3-27.7
		c-13.3-59-26.7-118-40-176.9c-0.4-1.9-0.3-3.9-0.4-5.9C653.8,0,693.6,0,733.3,0z M684.1,47.5c2.1,5.7,3.6,10.7,5.6,15.5
		c0.5,1.2,2.2,2.5,3.5,2.5c5.2,0.3,10.4,0.4,15.6-0.1c2-0.2,4.8-2.1,5.5-4c2-5.1-3.8-13.6-9.3-13.8
		C698.3,47.2,691.6,47.5,684.1,47.5z"/>
	<path class="st20" d="M744.1,375.8c28.3,0,55.6-0.1,82.8,0.1c1.5,0,3.5,1.7,4.1,3.1c2.3,5,4,10.3,6.2,15.4
		c3.8,8.9,16.7,13.1,25.2,8.3c4-2.2,5.6-6.7,3.8-11.4c-2.2-5.6-4.5-11.3-7.3-16.6c-3.4-6.5-8.8-10.3-16.6-10.3
		c-22.9,0.1-45.8,0.1-68.7,0c-4.4,0-8.8-0.4-13.1-0.9c-11.5-1.5-19.9-7.8-23.9-18.5c-4.5-12-8-24.5-11.6-36.9
		c-6.2-21.3-12.2-42.6-18.2-64c-0.7-2.6-1.5-5.2-1.7-7.9c-0.9-7.8,2.3-13.8,9.8-16.2c5.4-1.7,11.2-2.7,16.8-2.8
		c38.5-0.2,77.1-0.2,115.6-0.1c5,0,10.1,0.8,14.9,2c7.3,1.7,13.3,5.6,17.1,12.3c10.9,19.5,21.7,39.1,32.5,58.7
		c0.4,0.7,0.6,1.5,1.1,2.6c-1.9,0.1-3.3,0.3-4.8,0.3c-26.4,0-52.8-0.1-79.3,0.1c-3.6,0-5.5-0.9-6.7-4.4c-4.3-13.2-11.9-12.4-24.4-11
		c-3.3,0.4-4.6,3.4-3.5,6.6c1.5,4.3,3,8.6,5,12.6c2.3,4.4,6.6,6,11.4,6c13.9,0.1,27.9,0,41.9,0.1c15.5,0.1,31,0.2,46.4,0.8
		c5.2,0.2,10.6,1.8,15.7,3.5c5.7,1.9,10,5.8,13,11.3c22.4,40.6,45,81.2,67.4,121.8c0.8,1.5,1.6,3,2.3,4.5c7.6,17.8-2,32.7-21.3,32.7
		c-58.9,0.1-117.8,0.1-176.7,0c-15.4,0-27.2-7.8-32.5-24C758.7,428.4,751.8,402.4,744.1,375.8z"/>
	<path class="st20" d="M630.6,477.6c-30.7,0-60.6,0-91,0c-2.1-86.6-4.1-173-6.2-260c2-0.1,3.8-0.2,5.6-0.2c42.1,0,84.2-0.1,126.2,0
		c17.2,0,31,10,35.6,26.6c7.8,27.6,15.5,55.3,22.6,83.1c1.8,7,1.7,14.7,0.9,21.9c-0.9,8.5-6.8,14.1-15.2,15.3
		c-8.3,1.1-10.4,5.4-5.1,12.9c11.4,16.2,23,32.3,34.6,48.4c11.3,15.7,22.6,31.4,33.9,47.1c1.1,1.5,2,3,3.5,5.2c-2.5,0-4.1,0-5.7,0
		c-30.5,0-60.9-0.1-91.4,0.1c-3.5,0-5.3-1.1-6.9-4.2c-16.2-31.3-32.6-62.6-49-93.9c-0.9-1.7-2.3-3-3.5-4.5c-0.6,0.3-1.1,0.6-1.6,0.8
		C622.2,409.8,626.4,443.4,630.6,477.6z M608.9,303.3c7.5,0,14.6,0.1,21.6,0c5.6-0.1,8-1.8,7.8-7.4c-0.2-4.7-1.5-9.5-3.2-13.9
		c-0.7-1.9-3.7-4-5.8-4.1c-7.6-0.5-15.3-0.2-23.6-0.2C606.8,286.4,607.8,294.6,608.9,303.3z"/>
	<path class="st20" d="M527.1,217.7c1.2,86.7,2.4,173.1,3.6,259.9c-30.3,0-60,0-90.4,0c1.5-16,3-31.7,4.5-48.3c-6.4,0-12.4,0-18.4,0
		c-7.9,0-15.8,0.2-23.7-0.1c-3.2-0.1-4.7,1-6.2,3.7c-7.4,14-14.8,27.9-22.5,41.7c-0.8,1.5-3.2,3.1-4.8,3.1
		c-29.1,0.2-58.2,0.1-87.3,0.1c-0.7,0-1.3-0.1-2.4-0.2c0.7-1.4,1.1-2.6,1.8-3.7c51.4-84.2,102.8-168.5,154.3-252.7
		c1.1-1.8,3.7-3.7,5.6-3.7c27.8-0.2,55.6-0.2,83.3-0.1C525,217.4,525.7,217.5,527.1,217.7z M449.9,375.7c1.3-14.3,2.6-28.1,4-41.9
		c-0.4-0.3-0.9-0.7-1.3-0.9c-1.3,1.2-3.1,2.1-4,3.6c-5.5,10-10.9,20-16.2,30.1c-1.6,2.9-3.1,5.8-4.8,9.2
		C435.2,375.7,442.2,375.7,449.9,375.7z"/>
</g>
<g id="logo-fill">
	<path class="st20" d="M607,0c2.5,10.9,5.2,21.8,7.5,32.8c12.4,58.3,24.8,116.6,37.3,175c0.2,0.8,0.3,1.6,0.4,2.7
		c-26.2,0-52,0-78.4,0c-0.9-13.2-1.9-26.3-2.8-39.5c-11.8,0-23,0-34.5,0c-3.8,13.3-7.6,26.5-11.5,39.7c-49.8,0-99.2,0-149.3,0
		c12.3-54.4,24.5-108.3,36.8-162.8c-1.9-0.1-3.3-0.3-4.8-0.3c-25.4,0-50.8,0-76.2,0.2c-4,0.1-8,0.8-11.9,1.7c-4,0.9-7.4,2.8-6.8,7.9
		c0.6,4.6,4.5,8.3,9.3,8.4c11.6,0.1,23.2,0.1,34.9,0.1c8.4,0,16.8-0.1,25.3,0.1c11.3,0.3,16.6,6.3,14.3,17.4
		c-4,18.9-8.6,37.7-13.1,56.4c-3.6,15.2-7.6,30.3-10.9,45.6c-3.6,16.6-13.6,23.4-29.3,24.9c-11,1.1-22.2,0.8-33.3,0.8
		c-38.9,0.1-77.8,0.1-116.6-0.1c-5,0-10.2-0.6-14.9-2c-8.3-2.4-12-9.3-9.9-17.7c1.2-4.7,3-9.3,5.3-13.6c8-14.4,16.3-28.7,24.7-42.8
		c0.9-1.5,3.2-3.1,4.9-3.1c24.4-0.2,48.8-0.2,73.2-0.1c0.7,0,1.3,0.2,2.6,0.3c-0.7,1.9-1.5,3.5-2,5.2c-2.4,7.6,1.6,13.1,9.5,13.2
		c18.2,0.3,18.2,0.3,24.6-16.9c0.9-2.5,2.1-5,2.7-7.6c1.7-7-1.2-10.7-8.4-10.7c-21-0.1-42.1,0-63.1,0c-18.8,0-25.8-10.8-16.7-27.2
		c13.2-23.8,27-47.3,40.8-70.8c5.9-10,15.3-14.9,26.7-16.1c1.6-0.2,3.2-0.6,4.9-0.9c76.8,0,153.6,0,230.3,0
		c-5.6,14.4-11.2,28.8-16.6,43.3c-1.3,3.5-3.2,4.4-6.6,4.3c-10.7-0.2-21.5-0.1-32.5-0.1c-4.9,50.3-9.8,100.2-14.7,150
		c1.1-0.9,1.6-2,2-3c15.8-40.7,31.5-81.5,47.3-122.2c9.3-24.2,18.7-48.2,28.1-72.3C559.2,0,583.2,0,607,0z M568.1,127.1
		c-0.9-13.3-1.8-26.2-2.6-38.9c-3.9-1.2-5.7-0.2-6.3,3.3c-0.3,1.6-0.9,3.2-1.4,4.8c-2.8,10.2-5.7,20.2-8.7,30.8
		C555.6,127.1,561.5,127.1,568.1,127.1z"/>
	<path class="st20" d="M0,476.7c3.1-4.9,6.3-9.8,9.2-14.8C55.4,382,101.6,302,147.6,222c2-3.5,4.2-4.9,8.3-4.8
		c19.5,0.2,39,0.1,59.6,0.1C193.4,259,171.7,300,149.9,341c0.2,0.2,0.4,0.3,0.7,0.5c5.1-5.9,10.3-11.7,15.4-17.6
		c29.7-34.4,59.5-68.7,89.2-103.1c2.2-2.5,4.4-3.6,7.8-3.6c16.1,0.2,32.3,0.1,49.3,0.1c-10.5,39.7-20.9,78.8-31.3,118
		c0.3,0.1,0.5,0.3,0.8,0.4c5.4-8.2,10.8-16.4,16.2-24.6c19.5-29.8,39-59.7,58.3-89.6c2-3.1,4.1-4.2,7.6-4.2
		c20.5,0.2,41.1,0.1,61.6,0.1c1.5,0,2.9,0.1,5,0.2c-1.1,2-1.8,3.4-2.6,4.7c-51.6,83.6-103,167-154.3,250.6c-2.3,3.8-4.7,5.1-9.1,5.1
		c-27.3-0.2-54.6-0.1-81.8-0.1c-1.7,0-3.3,0-5.6,0c10.7-40.4,21.2-80.3,31.7-120.1c-5.2-2.3-7.9,0.2-10.5,3.6
		c-29.3,37.8-58.6,75.5-88.1,113.1c-1.3,1.7-4,3.3-6,3.3c-34.7,0.2-69.3,0.1-104,0.1C0,477.4,0,477.1,0,476.7z"/>
	<path class="st20" d="M733.3,0c3.8,1.1,7.9,1.7,11.6,3.2c7,2.7,12,7.9,15.7,14.4c14.3,25.7,28.7,51.4,42.8,77.2
		c5.6,10.4,2.3,18.8-8.5,23.1c-6.1,2.5-6.6,5.4-1.6,11c18.2,20.1,36.5,40.1,54.7,60.1c6.3,6.9,12.6,13.9,19.5,21.5
		c-2.1,0.2-3.3,0.4-4.6,0.4c-26.6,0-53.2-0.1-79.8,0c-3.4,0-5.5-1.1-7.5-3.8c-18.8-25-37.7-49.9-56.6-74.9c-1.4-1.9-3.1-3.6-4.6-5.4
		c-0.6,0.3-1.1,0.7-1.6,0.9c9.7,27.4,19.4,54.7,29.2,82.7c-27.3,0-53.8,0-81,0c-2.1-9.1-4.2-18.4-6.3-27.7
		c-13.3-59-26.7-118-40-176.9c-0.4-1.9-0.3-3.9-0.4-5.9C653.8,0,693.6,0,733.3,0z M684.1,47.5c2.1,5.7,3.6,10.7,5.6,15.5
		c0.5,1.2,2.2,2.5,3.5,2.5c5.2,0.3,10.4,0.4,15.6-0.1c2-0.2,4.8-2.1,5.5-4c2-5.1-3.8-13.6-9.3-13.8
		C698.3,47.2,691.6,47.5,684.1,47.5z"/>
	<path class="st20" d="M744.1,375.8c28.3,0,55.6-0.1,82.8,0.1c1.5,0,3.5,1.7,4.1,3.1c2.3,5,4,10.3,6.2,15.4
		c3.8,8.9,16.7,13.1,25.2,8.3c4-2.2,5.6-6.7,3.8-11.4c-2.2-5.6-4.5-11.3-7.3-16.6c-3.4-6.5-8.8-10.3-16.6-10.3
		c-22.9,0.1-45.8,0.1-68.7,0c-4.4,0-8.8-0.4-13.1-0.9c-11.5-1.5-19.9-7.8-23.9-18.5c-4.5-12-8-24.5-11.6-36.9
		c-6.2-21.3-12.2-42.6-18.2-64c-0.7-2.6-1.5-5.2-1.7-7.9c-0.9-7.8,2.3-13.8,9.8-16.2c5.4-1.7,11.2-2.7,16.8-2.8
		c38.5-0.2,77.1-0.2,115.6-0.1c5,0,10.1,0.8,14.9,2c7.3,1.7,13.3,5.6,17.1,12.3c10.9,19.5,21.7,39.1,32.5,58.7
		c0.4,0.7,0.6,1.5,1.1,2.6c-1.9,0.1-3.3,0.3-4.8,0.3c-26.4,0-52.8-0.1-79.3,0.1c-3.6,0-5.5-0.9-6.7-4.4c-4.3-13.2-11.9-12.4-24.4-11
		c-3.3,0.4-4.6,3.4-3.5,6.6c1.5,4.3,3,8.6,5,12.6c2.3,4.4,6.6,6,11.4,6c13.9,0.1,27.9,0,41.9,0.1c15.5,0.1,31,0.2,46.4,0.8
		c5.2,0.2,10.6,1.8,15.7,3.5c5.7,1.9,10,5.8,13,11.3c22.4,40.6,45,81.2,67.4,121.8c0.8,1.5,1.6,3,2.3,4.5c7.6,17.8-2,32.7-21.3,32.7
		c-58.9,0.1-117.8,0.1-176.7,0c-15.4,0-27.2-7.8-32.5-24C758.7,428.4,751.8,402.4,744.1,375.8z"/>
	<path class="st20" d="M630.6,477.6c-30.7,0-60.6,0-91,0c-2.1-86.6-4.1-173-6.2-260c2-0.1,3.8-0.2,5.6-0.2c42.1,0,84.2-0.1,126.2,0
		c17.2,0,31,10,35.6,26.6c7.8,27.6,15.5,55.3,22.6,83.1c1.8,7,1.7,14.7,0.9,21.9c-0.9,8.5-6.8,14.1-15.2,15.3
		c-8.3,1.1-10.4,5.4-5.1,12.9c11.4,16.2,23,32.3,34.6,48.4c11.3,15.7,22.6,31.4,33.9,47.1c1.1,1.5,2,3,3.5,5.2c-2.5,0-4.1,0-5.7,0
		c-30.5,0-60.9-0.1-91.4,0.1c-3.5,0-5.3-1.1-6.9-4.2c-16.2-31.3-32.6-62.6-49-93.9c-0.9-1.7-2.3-3-3.5-4.5c-0.6,0.3-1.1,0.6-1.6,0.8
		C622.2,409.8,626.4,443.4,630.6,477.6z M608.9,303.3c7.5,0,14.6,0.1,21.6,0c5.6-0.1,8-1.8,7.8-7.4c-0.2-4.7-1.5-9.5-3.2-13.9
		c-0.7-1.9-3.7-4-5.8-4.1c-7.6-0.5-15.3-0.2-23.6-0.2C606.8,286.4,607.8,294.6,608.9,303.3z"/>
	<path class="st20" d="M527.1,217.7c1.2,86.7,2.4,173.1,3.6,259.9c-30.3,0-60,0-90.4,0c1.5-16,3-31.7,4.5-48.3c-6.4,0-12.4,0-18.4,0
		c-7.9,0-15.8,0.2-23.7-0.1c-3.2-0.1-4.7,1-6.2,3.7c-7.4,14-14.8,27.9-22.5,41.7c-0.8,1.5-3.2,3.1-4.8,3.1
		c-29.1,0.2-58.2,0.1-87.3,0.1c-0.7,0-1.3-0.1-2.4-0.2c0.7-1.4,1.1-2.6,1.8-3.7c51.4-84.2,102.8-168.5,154.3-252.7
		c1.1-1.8,3.7-3.7,5.6-3.7c27.8-0.2,55.6-0.2,83.3-0.1C525,217.4,525.7,217.5,527.1,217.7z M449.9,375.7c1.3-14.3,2.6-28.1,4-41.9
		c-0.4-0.3-0.9-0.7-1.3-0.9c-1.3,1.2-3.1,2.1-4,3.6c-5.5,10-10.9,20-16.2,30.1c-1.6,2.9-3.1,5.8-4.8,9.2
		C435.2,375.7,442.2,375.7,449.9,375.7z"/>
</g>
</svg>
